<?xml version="1.0" encoding="utf-8"?>
<!-- Generator: Adobe Illustrator 16.0.0, SVG Export Plug-In . SVG Version: 6.00 Build 0)  -->
<!DOCTYPE svg PUBLIC "-//W3C//DTD SVG 1.1//EN" "http://www.w3.org/Graphics/SVG/1.1/DTD/svg11.dtd">
<svg version="1.1" id="Capa_1" xmlns="http://www.w3.org/2000/svg" xmlns:xlink="http://www.w3.org/1999/xlink" x="0px" y="0px"
	 width="459px" height="612px" viewBox="76.5 90 459 612" enable-background="new 76.5 90 459 612" xml:space="preserve">
<g>
	<g>
		<g>
			<path fill="#989898" d="M401.625,128.25h-41.539C352.206,105.988,330.939,90,306,90c-24.939,0-46.206,15.988-54.124,38.25
				h-41.501c-10.557,0-19.125,8.568-19.125,19.125v76.5c0,10.557,8.568,19.125,19.125,19.125h191.25
				c10.557,0,19.125-8.568,19.125-19.125v-76.5C420.75,136.818,412.182,128.25,401.625,128.25z"/>
		</g>
	</g>
	<g>
		<g>
			<path fill="#989898" d="M497.25,166.5H459v57.375c0,31.633-25.742,57.375-57.375,57.375h-191.25
				c-31.633,0-57.375-25.742-57.375-57.375V166.5h-38.25c-21.076,0-38.25,17.174-38.25,38.25v459c0,21.458,16.792,38.25,38.25,38.25
				h382.5c21.458,0,38.25-16.792,38.25-38.25v-459C535.5,183.292,518.708,166.5,497.25,166.5z M300.416,505.165l-76.5,76.5
				c-3.749,3.711-8.645,5.585-13.541,5.585s-9.792-1.874-13.541-5.585l-38.25-38.25c-7.458-7.458-7.458-19.584,0-27.042
				c7.459-7.459,19.584-7.459,27.043,0l24.748,24.709l62.959-62.959c7.459-7.459,19.584-7.459,27.043,0
				C307.836,485.581,307.874,497.669,300.416,505.165z M300.416,352.166l-76.5,76.5c-3.749,3.711-8.645,5.585-13.541,5.585
				s-9.792-1.874-13.541-5.585l-38.25-38.25c-7.458-7.459-7.458-19.584,0-27.043c7.459-7.458,19.584-7.458,27.043,0l24.748,24.709
				l62.959-62.959c7.459-7.458,19.584-7.458,27.043,0C307.836,332.582,307.874,344.668,300.416,352.166z M439.875,549h-76.5
				c-10.557,0-19.125-8.568-19.125-19.125s8.568-19.125,19.125-19.125h76.5c10.557,0,19.125,8.568,19.125,19.125
				S450.432,549,439.875,549z M439.875,396h-76.5c-10.557,0-19.125-8.568-19.125-19.125s8.568-19.125,19.125-19.125h76.5
				c10.557,0,19.125,8.568,19.125,19.125S450.432,396,439.875,396z"/>
		</g>
	</g>
</g>
</svg>
