<?xml version="1.0" encoding="utf-8"?>
<!-- Generator: Adobe Illustrator 16.0.0, SVG Export Plug-In . SVG Version: 6.00 Build 0)  -->
<!DOCTYPE svg PUBLIC "-//W3C//DTD SVG 1.1//EN" "http://www.w3.org/Graphics/SVG/1.1/DTD/svg11.dtd">
<svg version="1.1" id="Capa_1" xmlns="http://www.w3.org/2000/svg" xmlns:xlink="http://www.w3.org/1999/xlink" x="0px" y="0px"
	 width="606.818px" height="612px" viewBox="2.59 90 606.818 612" enable-background="new 2.59 90 606.818 612"
	 xml:space="preserve">
<g>
	<g>
		<path fill="#989898" d="M497.822,478.965c-35.432,0-66.684,16.88-87.103,42.73l-189.385-96.853
			c2.479-9.247,4.261-18.802,4.261-28.857c0-10.947-2.117-21.252-5.07-31.281l188.55-96.405c20.306,27.02,52.367,44.68,88.773,44.68
			c61.671,0,111.559-49.888,111.559-111.503C609.409,139.916,559.521,90,497.851,90c-61.531,0-111.475,49.916-111.475,111.475
			c0,10.084,1.783,19.666,4.29,28.941l-189.359,96.852c-20.445-25.877-51.755-42.813-87.242-42.813
			c-61.616,0-111.475,49.943-111.475,111.53s49.861,111.503,111.475,111.503c36.462,0,68.496-17.716,88.884-44.763l188.466,96.405
			c-2.953,10-5.097,20.39-5.097,31.365c0,61.587,49.943,111.503,111.475,111.503c61.671,0,111.559-49.916,111.559-111.503
			C609.381,528.854,559.493,478.965,497.822,478.965z"/>
	</g>
</g>
</svg>
