<?xml version="1.0" encoding="utf-8"?>
<!-- Generator: Adobe Illustrator 17.0.0, SVG Export Plug-In . SVG Version: 6.00 Build 0)  -->
<!DOCTYPE svg PUBLIC "-//W3C//DTD SVG 1.1//EN" "http://www.w3.org/Graphics/SVG/1.1/DTD/svg11.dtd">
<svg version="1.1" id="Forma_1_1_" xmlns="http://www.w3.org/2000/svg" xmlns:xlink="http://www.w3.org/1999/xlink" x="0px" y="0px"
	 width="468px" height="362px" viewBox="0 0 468 362" enable-background="new 0 0 468 362" xml:space="preserve">
<g id="Forma_1">
	<g>
		<path fill="#444444" d="M450.1,134.5l-10.2-10.8l-35.8-96.5C398,10.9,382.4,0.1,365,0H109.3c-17.4,0-33,10.9-39.1,27.2l-35.3,95.3
			l-14.7,13.6C7.4,147,0,163,0,179.8v140.6c0.1,23,18.8,41.6,41.8,41.6h26.4c23,0,41.7-18.6,41.8-41.6V300h248v20.4
			c0.1,23,18.8,41.6,41.8,41.6h26.4c23,0,41.7-18.6,41.8-41.6V176.1C467.9,160.4,461.5,145.4,450.1,134.5z M89,34
			c3.2-8.5,11.3-14,20.3-14h255.8c9,0,17.1,5.6,20.3,14l31.2,84h-23.3c-5.5-37.5-40.4-63.4-77.9-57.8c-29.9,4.4-53.4,27.9-57.8,57.8
			H57.8L89,34z M372.9,118h-95.1c5.5-26.3,31.3-43.1,57.6-37.6C354.2,84.4,368.9,99.1,372.9,118z M90,320.4
			c-0.1,12-9.8,21.6-21.8,21.6H41.8c-12,0-21.7-9.6-21.8-21.6v-26.2c6,3.9,13.9,5.8,21.8,5.8H90V320.4z M448,320.4
			c-0.1,12-9.8,21.6-21.8,21.6h-26.4c-12,0-21.7-9.7-21.8-21.6V300h48.2c7.9,0,15.8-1.9,21.8-5.8L448,320.4L448,320.4z M426.2,280
			H41.8c-11.9,0.1-21.7-9.4-21.8-21.4v-78.8c0-11,4.9-21.5,13.3-28.6c0.1-0.1,0.3-0.3,0.4-0.4L47.3,138H426l9.6,10.3
			c0.1,0.2,0.4,0.3,0.5,0.5c7.5,7.1,11.8,17,11.8,27.3v82.5h0.1C447.9,270.5,438.1,280.1,426.2,280z M132,178H57
			c-5.5,0-10,4.5-10,10v52c0,5.5,4.5,10,10,10h75c5.5,0,10-4.5,10-10v-52C142,182.5,137.5,178,132,178z M122,230H67v-32h55V230z
			 M411,178h-75c-5.5,0-10,4.5-10,10v52c0,5.5,4.5,10,10,10h75c5.5,0,10-4.5,10-10v-52C421,182.5,416.5,178,411,178z M401,230h-55
			v-32h55V230z M282.3,220h-96.6c-5.5,0-10,4.5-10,10s4.5,10,10,10h96.6c5.5,0,10-4.5,10-10S287.8,220,282.3,220z M282.3,189h-96.6
			c-5.5,0-10,4.5-10,10s4.5,10,10,10h96.6c5.5,0,10-4.5,10-10S287.8,189,282.3,189z"/>
	</g>
</g>
</svg>
