<?xml version="1.0" encoding="utf-8"?>
<!-- Generator: Adobe Illustrator 17.0.0, SVG Export Plug-In . SVG Version: 6.00 Build 0)  -->
<!DOCTYPE svg PUBLIC "-//W3C//DTD SVG 1.1//EN" "http://www.w3.org/Graphics/SVG/1.1/DTD/svg11.dtd">
<svg version="1.1" id="Forma_1_1_" xmlns="http://www.w3.org/2000/svg" xmlns:xlink="http://www.w3.org/1999/xlink" x="0px" y="0px"
	 width="47px" height="60px" viewBox="0 0 47 60" enable-background="new 0 0 47 60" xml:space="preserve">
<g id="Forma_1">
	<g>
		<path fill="#444444" d="M32.414,0H0v60h47V14.586L32.414,0z M33,3.414L43.586,14H33V3.414z M45,58H2V2h29v14h14V58z M19,22
			c0,0.553,0.448,1,1,1h16c0.552,0,1-0.447,1-1s-0.448-1-1-1H20C19.448,21,19,21.447,19,22z M16.375,18.219l-4.301,3.441
			l-1.367-1.367c-0.391-0.391-1.023-0.391-1.414,0c-0.391,0.391-0.391,1.023,0,1.414l2,2C11.487,23.901,11.743,24,12,24
			c0.22,0,0.441-0.072,0.624-0.219l5-4c0.432-0.346,0.501-0.975,0.156-1.406C17.436,17.943,16.806,17.874,16.375,18.219z M36,32H20
			c-0.552,0-1,0.447-1,1s0.448,1,1,1h16c0.552,0,1-0.447,1-1S36.552,32,36,32z M16.375,29.219l-4.301,3.441l-1.367-1.367
			c-0.391-0.391-1.023-0.391-1.414,0c-0.391,0.391-0.391,1.023,0,1.414l2,2C11.487,34.901,11.743,35,12,35
			c0.22,0,0.441-0.072,0.624-0.219l5-4c0.432-0.346,0.501-0.975,0.156-1.406C17.436,28.943,16.806,28.874,16.375,29.219z M36,43H20
			c-0.552,0-1,0.447-1,1s0.448,1,1,1h16c0.552,0,1-0.447,1-1S36.552,43,36,43z M16.375,40.219l-4.301,3.441l-1.367-1.367
			c-0.391-0.391-1.023-0.391-1.414,0c-0.391,0.391-0.391,1.023,0,1.414l2,2C11.487,45.901,11.743,46,12,46
			c0.22,0,0.441-0.072,0.624-0.219l5-4c0.432-0.346,0.501-0.975,0.156-1.406C17.436,39.943,16.806,39.874,16.375,40.219z"/>
	</g>
</g>
</svg>
