<?xml version="1.0" encoding="utf-8"?>
<!-- Generator: Adobe Illustrator 17.0.0, SVG Export Plug-In . SVG Version: 6.00 Build 0)  -->
<!DOCTYPE svg PUBLIC "-//W3C//DTD SVG 1.1//EN" "http://www.w3.org/Graphics/SVG/1.1/DTD/svg11.dtd">
<svg version="1.1" id="Shape_1_1_" xmlns="http://www.w3.org/2000/svg" xmlns:xlink="http://www.w3.org/1999/xlink" x="0px" y="0px"
	 width="300px" height="300px" viewBox="0 0 300 300" enable-background="new 0 0 300 300" xml:space="preserve">
<g id="Shape_1">
	<g>
		<path fill-rule="evenodd" clip-rule="evenodd" fill="#7ADCB6" d="M149.998,0C67.157,0,0,67.158,0,149.996S67.157,300,149.997,300
			S300,232.837,300,149.996S232.839,0,149.998,0z M40.732,206.497c0-46.858,41.153-46.848,50.285-59.1l1.045-5.587
			c-12.83-6.505-21.887-22.178-21.887-40.514c0-24.154,15.712-43.738,35.09-43.738c15.258,0,28.206,12.164,33.038,29.118
			c-19.41,6.168-33.769,27.214-33.769,52.232c0,17.224,6.79,33.06,17.937,43.121c-1.79,0.918-3.781,1.854-5.493,2.656
			c-8.989,4.217-21.449,10.079-30.438,21.812H40.732z M150.454,244.107v-0.002H85.466c0-46.856,41.153-46.843,50.285-59.095
			l1.045-5.587c-12.83-6.505-21.887-22.178-21.887-40.514c0-24.154,15.712-43.738,35.09-43.738s35.09,19.584,35.09,43.738
			c0,18.178-8.896,33.758-21.555,40.361l1.19,6.352c10.019,11.658,49.803,12.418,49.803,58.485H150.454z M213.455,206.499v-0.002
			c-8.992-11.731-21.452-17.592-30.441-21.809c-1.769-0.83-3.73-1.751-5.483-2.651c11.137-10.074,17.935-25.944,17.935-43.129
			c0-25.015-14.353-46.057-33.759-52.227c4.829-16.957,17.776-29.121,33.038-29.121c19.379,0,35.09,19.584,35.09,43.738
			c0,18.178-8.896,33.756-21.555,40.361l1.19,6.352c10.019,11.656,49.803,12.415,49.803,58.488H213.455z"/>
	</g>
</g>
<image display="none" overflow="visible" width="555" height="337" xlink:href="3D658FF2.jpg"  transform="matrix(1 0 0 1 -128 -19)">
</image>
</svg>
