<?xml version="1.0" encoding="utf-8"?>
<!-- Generator: Adobe Illustrator 17.0.0, SVG Export Plug-In . SVG Version: 6.00 Build 0)  -->
<!DOCTYPE svg PUBLIC "-//W3C//DTD SVG 1.1//EN" "http://www.w3.org/Graphics/SVG/1.1/DTD/svg11.dtd">
<svg version="1.1" id="Forma_1_1_" xmlns="http://www.w3.org/2000/svg" xmlns:xlink="http://www.w3.org/1999/xlink" x="0px" y="0px"
	 width="512px" height="404px" viewBox="0 0 512 404" enable-background="new 0 0 512 404" xml:space="preserve">
<g id="Forma_1">
	<g>
		<path fill-rule="evenodd" clip-rule="evenodd" fill="#7DD977" d="M29.98,252.7c-2.63,0-5.21,1.07-7.071,2.93
			c-1.86,1.86-2.93,4.43-2.93,7.07c0,2.63,1.069,5.21,2.93,7.07c1.86,1.859,4.44,2.93,7.071,2.93s5.21-1.07,7.07-2.93
			c1.86-1.87,2.931-4.44,2.931-7.07c0-2.63-1.07-5.21-2.931-7.07C35.19,253.771,32.61,252.7,29.98,252.7z M19.979,222.377
			c0,5.522,4.478,10.001,10.001,10.001c5.522,0,10.001-4.478,10.001-10.001V34.121l2.929,2.929c1.953,1.951,4.512,2.928,7.072,2.928
			s5.118-0.977,7.072-2.929c3.905-3.905,3.905-10.238,0-14.144L37.051,2.904C33.145-1,26.815-1,22.907,2.904L2.905,22.905
			C-1,26.811-1,33.143,2.905,37.049c3.906,3.904,10.237,3.904,14.144,0l2.929-2.928V222.377z M509.095,366.926l-20.002-20.001
			c-3.906-3.904-10.237-3.904-14.144,0c-3.905,3.905-3.905,10.238,0,14.144l2.929,2.929h-35.891V223.656
			c0-5.522-4.478-10.001-10.001-10.001c-5.522,0-10.001,4.478-10.001,10.001v140.341H313.61v-64.004
			c0-5.522-4.478-10.001-10.001-10.001c-5.523,0-10.001,4.478-10.001,10.001v64.004h-83.137V203.513
			c0-5.522-4.478-10.001-10.001-10.001c-5.522,0-10.001,4.478-10.001,10.001v160.484h-80.297v-62.504
			c0-5.522-4.478-10.001-10.001-10.001c-5.522,0-10.001,4.478-10.001,10.001v62.504h-50.19v-57.558
			c0-5.522-4.478-10.001-10.001-10.001c-5.523,0-10.001,4.478-10.001,10.001v67.559c0,5.522,4.478,10.001,10.001,10.001h447.897
			l-2.929,2.929c-3.905,3.905-3.905,10.238,0,14.144c1.953,1.952,4.512,2.929,7.072,2.929c2.559,0,5.118-0.977,7.072-2.929
			l20.002-20.001C513,377.163,513,370.831,509.095,366.926z M100.171,275.433c19.912,0,36.111-16.198,36.111-36.109
			c0-6.342-1.649-12.304-4.532-17.489l50.82-50.819c5.281,3.027,11.388,4.768,17.899,4.768c7.306,0,14.107-2.187,19.796-5.931
			l51.825,51.823c-2.92,5.209-4.592,11.209-4.592,17.594c0,19.911,16.198,36.11,36.11,36.11c19.912,0,36.11-16.199,36.11-36.11
			c0-6.241-1.593-12.118-4.392-17.245l77.728-77.725c5.508,3.405,11.992,5.376,18.931,5.376c19.912,0,36.11-16.199,36.11-36.11
			c0-19.911-16.198-36.109-36.11-36.109c-19.912,0-36.11,16.198-36.11,36.109c0,5.71,1.338,11.114,3.708,15.919l-78.311,78.308
			c-5.226-2.944-11.25-4.632-17.664-4.632c-6.271,0-12.171,1.609-17.316,4.431l-52.967-52.965c2.083-4.559,3.253-9.62,3.253-14.952
			c0-19.911-16.198-36.11-36.11-36.11c-19.912,0-36.111,16.199-36.111,36.11c0,6.144,1.546,11.933,4.264,17.002l-51.032,51.03
			c-5.169-2.859-11.107-4.492-17.421-4.492c-19.912,0-36.11,16.198-36.11,36.109S80.259,275.433,100.171,275.433z M431.986,97.457
			c8.883,0,16.108,7.226,16.108,16.108s-7.227,16.109-16.108,16.109c-8.882,0-16.108-7.227-16.108-16.109
			S423.103,97.457,431.986,97.457z M303.609,223.161c8.882,0,16.108,7.225,16.108,16.108s-7.227,16.109-16.108,16.109
			s-16.108-7.227-16.108-16.109S294.727,223.161,303.609,223.161z M200.47,123.565c8.883,0,16.108,7.227,16.108,16.109
			c0,8.881-7.227,16.108-16.108,16.108c-8.882,0-16.109-7.226-16.109-16.108C184.361,130.792,191.587,123.565,200.47,123.565z
			 M100.171,223.216c4.351,0,8.299,1.741,11.201,4.555c0.049,0.051,0.092,0.107,0.142,0.157c0.059,0.059,0.124,0.109,0.185,0.167
			c2.83,2.904,4.582,6.863,4.582,11.23c0,8.883-7.228,16.108-16.109,16.108s-16.108-7.226-16.108-16.108
			C84.064,230.443,91.288,223.216,100.171,223.216z M424.915,174.916c-1.859,1.86-2.93,4.44-2.93,7.07s1.07,5.21,2.93,7.069
			c1.86,1.86,4.44,2.931,7.071,2.931c2.63,0,5.211-1.07,7.071-2.931c1.859-1.859,2.93-4.439,2.93-7.069s-1.07-5.21-2.93-7.07
			s-4.44-2.93-7.071-2.93C429.355,171.986,426.775,173.055,424.915,174.916z"/>
	</g>
</g>
</svg>
