<?xml version="1.0" encoding="utf-8"?>
<!-- Generator: Adobe Illustrator 17.0.0, SVG Export Plug-In . SVG Version: 6.00 Build 0)  -->
<!DOCTYPE svg PUBLIC "-//W3C//DTD SVG 1.1//EN" "http://www.w3.org/Graphics/SVG/1.1/DTD/svg11.dtd">
<svg version="1.1" id="Forma_1_1_" xmlns="http://www.w3.org/2000/svg" xmlns:xlink="http://www.w3.org/1999/xlink" x="0px" y="0px"
	 width="60px" height="49px" viewBox="0 0 60 49" enable-background="new 0 0 60 49" xml:space="preserve">
<g id="Forma_1">
	<g>
		<path fill="#E66A86" d="M14,18c-0.254,0-0.479,0.172-0.545,0.417L2,47v1c0,0.734-0.047,1,0.565,1h44.759
			c1.156,0,2.174-0.779,2.45-1.813L60,19c0,0,0-0.625,0-1H14z M12.731,16H54V9.732C54,8.225,52.774,7,51.268,7H26.515l-5-7H2.732
			C1.226,0,0,1.226,0,2.732v41.796l10.282-26.717C10.557,16.779,11.575,16,12.731,16z"/>
	</g>
</g>
<image display="none" overflow="visible" width="555" height="337" xlink:href="F6086570.jpg"  transform="matrix(1 0 0 1 -248 -144)">
</image>
</svg>
