<?xml version="1.0" encoding="utf-8"?>
<!-- Generator: Adobe Illustrator 17.0.0, SVG Export Plug-In . SVG Version: 6.00 Build 0)  -->
<!DOCTYPE svg PUBLIC "-//W3C//DTD SVG 1.1//EN" "http://www.w3.org/Graphics/SVG/1.1/DTD/svg11.dtd">
<svg version="1.1" id="Forma_1_1_" xmlns="http://www.w3.org/2000/svg" xmlns:xlink="http://www.w3.org/1999/xlink" x="0px" y="0px"
	 width="360px" height="512px" viewBox="0 0 360 512" enable-background="new 0 0 360 512" xml:space="preserve">
<g id="Forma_1">
	<g>
		<path fill="#FFFFFF" d="M180,0C80.748,0,0,80.748,0,180c0,33.534,9.289,66.26,26.869,94.652l142.885,230.257
			c2.737,4.411,7.559,7.091,12.745,7.091h0.119c5.231-0.041,10.063-2.804,12.75-7.292L334.611,272.22
			C351.221,244.428,360,212.539,360,180C360,80.748,279.252,0,180,0z M308.866,256.818L182.272,468.186L52.367,258.846
			C37.734,235.214,29.8,207.95,29.8,180C29.8,97.29,97.29,29.8,180,29.8S330.1,97.29,330.1,180
			C330.1,207.121,322.689,233.688,308.866,256.818z M180,90c-49.626,0-90,40.374-90,90c0,49.309,39.717,90,90,90
			c50.903,0,90-41.233,90-90C270,130.374,229.626,90,180,90z M180,240.2c-33.257,0-60.2-27.033-60.2-60.2
			c0-33.084,27.116-60.2,60.2-60.2c33.084,0,60.1,27.116,60.1,60.2C240.1,212.683,213.784,240.2,180,240.2z"/>
	</g>
</g>
</svg>
