<?xml version="1.0" encoding="utf-8"?>
<!-- Generator: Adobe Illustrator 16.0.0, SVG Export Plug-In . SVG Version: 6.00 Build 0)  -->
<!DOCTYPE svg PUBLIC "-//W3C//DTD SVG 1.1//EN" "http://www.w3.org/Graphics/SVG/1.1/DTD/svg11.dtd">
<svg version="1.1" id="Layer_1" xmlns="http://www.w3.org/2000/svg" xmlns:xlink="http://www.w3.org/1999/xlink" x="0px" y="0px"
	 width="510px" height="612px" viewBox="51 90 510 612" enable-background="new 51 90 510 612" xml:space="preserve">
<g>
	<g>
		<g>
			<path fill="#0076BB" d="M510,90H142.8c-24.949,0-45.686,18.034-50.062,41.738C69.034,136.114,51,156.851,51,181.8V651
				c0,28.121,22.878,51,51,51h367.2c24.949,0,45.686-18.033,50.062-41.738C542.967,655.886,561,635.149,561,610.2V141
				C561,112.878,538.121,90,510,90z M499.8,651c0,16.871-13.729,30.6-30.6,30.6H102c-16.871,0-30.6-13.729-30.6-30.6V181.8
				c0-16.871,13.729-30.6,30.6-30.6h306v81.6c0,5.641,4.56,10.2,10.2,10.2h81.6V651z M428.4,222.6v-56.977l56.977,56.977H428.4z
				 M540.6,610.2c0,13.28-8.558,24.5-20.399,28.723V232.8c0-2.825-1.152-5.375-2.999-7.222l-91.77-91.769
				c-1.856-1.856-4.406-3.009-7.231-3.009H114.077c4.223-11.842,15.443-20.4,28.723-20.4H510c16.871,0,30.6,13.729,30.6,30.6V610.2z
				"/>
		</g>
	</g>
	<g>
		<g>
			<path fill="#0076BB" d="M285.6,181.8c-28.122,0-51,22.879-51,51c0,28.122,22.878,51,51,51s51-22.878,51-51
				C336.6,204.679,313.722,181.8,285.6,181.8z M285.6,263.4c-16.871,0-30.6-13.729-30.6-30.6c0-16.871,13.729-30.6,30.6-30.6
				c16.871,0,30.6,13.729,30.6,30.6C316.2,249.671,302.471,263.4,285.6,263.4z"/>
		</g>
	</g>
	<g>
		<g>
			<rect x="102" y="314.4" fill="#0076BB" width="102" height="20.4"/>
		</g>
	</g>
	<g>
		<g>
			<rect x="234.6" y="314.4" fill="#0076BB" width="30.6" height="20.4"/>
		</g>
	</g>
	<g>
		<g>
			<rect x="306" y="314.4" fill="#0076BB" width="102" height="20.4"/>
		</g>
	</g>
	<g>
		<g>
			<rect x="438.6" y="314.4" fill="#0076BB" width="30.601" height="20.4"/>
		</g>
	</g>
	<g>
		<g>
			<rect x="102" y="355.2" fill="#0076BB" width="102" height="20.4"/>
		</g>
	</g>
	<g>
		<g>
			<rect x="234.6" y="355.2" fill="#0076BB" width="30.6" height="20.4"/>
		</g>
	</g>
	<g>
		<g>
			<rect x="306" y="355.2" fill="#0076BB" width="102" height="20.4"/>
		</g>
	</g>
	<g>
		<g>
			<rect x="438.6" y="355.2" fill="#0076BB" width="30.601" height="20.4"/>
		</g>
	</g>
	<g>
		<g>
			<rect x="102" y="396" fill="#0076BB" width="102" height="20.4"/>
		</g>
	</g>
	<g>
		<g>
			<rect x="234.6" y="396" fill="#0076BB" width="30.6" height="20.4"/>
		</g>
	</g>
	<g>
		<g>
			<rect x="306" y="396" fill="#0076BB" width="102" height="20.4"/>
		</g>
	</g>
	<g>
		<g>
			<rect x="438.6" y="396" fill="#0076BB" width="30.601" height="20.4"/>
		</g>
	</g>
	<g>
		<g>
			<rect x="102" y="436.8" fill="#0076BB" width="102" height="20.4"/>
		</g>
	</g>
	<g>
		<g>
			<rect x="234.6" y="436.8" fill="#0076BB" width="30.6" height="20.4"/>
		</g>
	</g>
	<g>
		<g>
			<rect x="306" y="436.8" fill="#0076BB" width="102" height="20.4"/>
		</g>
	</g>
	<g>
		<g>
			<rect x="438.6" y="436.8" fill="#0076BB" width="30.601" height="20.4"/>
		</g>
	</g>
	<g>
		<g>
			<rect x="102" y="498" fill="#0076BB" width="102" height="20.4"/>
		</g>
	</g>
	<g>
		<g>
			<rect x="234.6" y="498" fill="#0076BB" width="30.6" height="20.4"/>
		</g>
	</g>
	<g>
		<g>
			<rect x="306" y="498" fill="#0076BB" width="102" height="20.4"/>
		</g>
	</g>
	<g>
		<g>
			<rect x="438.6" y="498" fill="#0076BB" width="30.601" height="20.4"/>
		</g>
	</g>
	<g>
		<g>
			<rect x="102" y="538.8" fill="#0076BB" width="102" height="20.4"/>
		</g>
	</g>
	<g>
		<g>
			<rect x="234.6" y="538.8" fill="#0076BB" width="30.6" height="20.4"/>
		</g>
	</g>
	<g>
		<g>
			<rect x="306" y="538.8" fill="#0076BB" width="102" height="20.4"/>
		</g>
	</g>
	<g>
		<g>
			<rect x="438.6" y="538.8" fill="#0076BB" width="30.601" height="20.4"/>
		</g>
	</g>
	<g>
		<g>
			<rect x="102" y="579.6" fill="#0076BB" width="102" height="20.4"/>
		</g>
	</g>
	<g>
		<g>
			<rect x="234.6" y="579.6" fill="#0076BB" width="30.6" height="20.4"/>
		</g>
	</g>
	<g>
		<g>
			<rect x="306" y="579.6" fill="#0076BB" width="102" height="20.4"/>
		</g>
	</g>
	<g>
		<g>
			<rect x="438.6" y="579.6" fill="#0076BB" width="30.601" height="20.4"/>
		</g>
	</g>
	<g>
		<g>
			<rect x="102" y="620.4" fill="#0076BB" width="102" height="20.399"/>
		</g>
	</g>
	<g>
		<g>
			<rect x="234.6" y="620.4" fill="#0076BB" width="30.6" height="20.399"/>
		</g>
	</g>
	<g>
		<g>
			<rect x="306" y="620.4" fill="#0076BB" width="102" height="20.399"/>
		</g>
	</g>
	<g>
		<g>
			<rect x="438.6" y="620.4" fill="#0076BB" width="30.601" height="20.399"/>
		</g>
	</g>
</g>
</svg>
