<?xml version="1.0" encoding="utf-8"?>
<!-- Generator: Adobe Illustrator 17.0.0, SVG Export Plug-In . SVG Version: 6.00 Build 0)  -->
<!DOCTYPE svg PUBLIC "-//W3C//DTD SVG 1.1//EN" "http://www.w3.org/Graphics/SVG/1.1/DTD/svg11.dtd">
<svg version="1.1" id="Forma_1_1_" xmlns="http://www.w3.org/2000/svg" xmlns:xlink="http://www.w3.org/1999/xlink" x="0px" y="0px"
	 width="137px" height="137px" viewBox="0 0 137 137" enable-background="new 0 0 137 137" xml:space="preserve">
<g id="Forma_1">
	<g>
		<path fill-rule="evenodd" clip-rule="evenodd" fill="#FFFFFF" d="M134.128,45.403l-10.266-10.184
			c-3.041,3.041-6.736,4.563-11.08,4.563c-4.346,0-8.039-1.521-11.08-4.563c-3.042-3.042-4.563-6.735-4.563-11.081
			c0-4.346,1.521-8.039,4.563-11.081L91.516,2.873c-2.011-2.009-4.468-3.014-7.373-3.014c-2.906,0-5.363,1.005-7.373,3.014
			L2.874,76.688c-2.01,2.012-3.015,4.47-3.015,7.373c0,2.905,1.005,5.363,3.015,7.373L13.058,101.7
			c3.042-3.041,6.736-4.561,11.081-4.561c4.345,0,8.038,1.519,11.08,4.561c3.041,3.042,4.562,6.735,4.562,11.081
			c0,4.345-1.52,8.037-4.562,11.08l10.266,10.266c2.01,2.01,4.468,3.014,7.374,3.014c2.906,0,5.364-1.004,7.373-3.014l73.896-73.978
			c2.01-2.01,3.014-4.467,3.014-7.373C137.141,49.87,136.137,47.413,134.128,45.403z M112.048,61.697l-50.35,50.35
			c-0.977,0.978-2.199,1.467-3.666,1.467c-1.466,0-2.688-0.488-3.666-1.467L24.872,82.555c-1.032-1.033-1.548-2.255-1.548-3.666
			c0-1.412,0.516-2.635,1.548-3.668l50.35-50.35c0.979-0.978,2.201-1.467,3.668-1.467c1.465,0,2.688,0.489,3.666,1.467
			l29.492,29.493c1.033,1.033,1.549,2.255,1.549,3.667C113.596,59.443,113.081,60.665,112.048,61.697z M32.291,78.889l25.745,25.745
			l46.602-46.602L78.891,32.287L32.291,78.889z"/>
	</g>
</g>
</svg>
