<?xml version="1.0" encoding="utf-8"?>
<!-- Generator: Adobe Illustrator 17.0.0, SVG Export Plug-In . SVG Version: 6.00 Build 0)  -->
<!DOCTYPE svg PUBLIC "-//W3C//DTD SVG 1.1//EN" "http://www.w3.org/Graphics/SVG/1.1/DTD/svg11.dtd">
<svg version="1.1" id="Shape_1_1_" xmlns="http://www.w3.org/2000/svg" xmlns:xlink="http://www.w3.org/1999/xlink" x="0px" y="0px"
	 width="300px" height="300px" viewBox="0 0 300 300" enable-background="new 0 0 300 300" xml:space="preserve">
<g id="Shape_1">
	<g>
		<path fill="#FFFFFF" d="M202.106,96.266c-5.574-5.405-11.98-9.957-19.011-13.437c3.395,5.159,6.383,11.129,8.867,17.787
			C195.529,99.337,198.919,97.882,202.106,96.266z M112.602,144.813h32.208v-27.29c-9.625-0.418-18.931-1.774-27.602-3.989
			C114.612,123.016,112.986,133.634,112.602,144.813z M116.578,183.953c8.862-2.324,18.394-3.758,28.232-4.194v-24.572h-32.206
			C112.963,165.39,114.358,175.121,116.578,183.953z M120.411,103.666c7.648,1.904,15.87,3.079,24.398,3.47V75.3
			c-1.502,0.104-2.988,0.252-4.464,0.444C132.374,80.578,125.391,90.555,120.411,103.666z M96.921,202.79
			c6.686,6.72,14.636,12.174,23.456,15.989c-4.272-6.095-7.939-13.456-10.841-21.799C105.008,198.65,100.781,200.593,96.921,202.79z
			 M120.287,81.26c-8.019,3.481-15.307,8.325-21.586,14.239c3.613,1.937,7.521,3.639,11.656,5.125
			C113.097,93.276,116.451,86.761,120.287,81.26z M107.194,110.479c-5.638-2.002-10.906-4.396-15.707-7.158
			c-9.231,11.547-15.113,25.866-16.189,41.492h26.915C102.593,132.454,104.342,120.861,107.194,110.479z M102.215,155.187H75.299
			c1.017,14.791,6.328,28.423,14.721,39.627c4.995-3.001,10.551-5.61,16.542-7.773C104.093,177.305,102.573,166.573,102.215,155.187
			z M140.536,224.283c1.413,0.176,2.837,0.319,4.274,0.418v-34.554c-8.831,0.415-17.359,1.681-25.263,3.719
			C124.604,208.249,132.008,219.207,140.536,224.283z M195.767,187c5.335,1.932,10.338,4.212,14.913,6.837
			c7.98-11.018,13.033-24.279,14.021-38.647h-24.595C199.749,166.557,198.234,177.277,195.767,187z M183.012,217.213
			c7.82-3.857,14.864-9.039,20.858-15.25c-3.439-1.849-7.156-3.507-11.095-4.954C190.116,204.636,186.822,211.445,183.012,217.213z
			 M149.997,0C67.156,0,0,67.161,0,149.997S67.156,300,149.997,300S300,232.837,300,149.997S232.839,0,149.997,0z M150,240.462
			c-49.881,0-90.464-40.579-90.464-90.462S100.119,59.538,150,59.538s90.464,40.579,90.464,90.462S199.881,240.462,150,240.462z
			 M162.719,76.202c-2.474-0.425-4.987-0.726-7.534-0.903v31.937c9.334-0.275,18.352-1.512,26.712-3.597
			C177.075,90.952,170.375,81.195,162.719,76.202z M195.122,110.471c2.856,10.382,4.604,21.981,4.985,34.342h24.592
			c-1.045-15.227-6.658-29.209-15.484-40.595C204.855,106.596,200.14,108.692,195.122,110.471z M155.185,224.7
			c2.49-0.169,4.949-0.464,7.368-0.871c8.201-5.262,15.307-16.002,20.212-29.948c-8.613-2.223-17.955-3.543-27.581-3.833
			L155.185,224.7L155.185,224.7z M185.103,113.508c-9.384,2.402-19.493,3.813-29.918,4.103v27.202h34.535
			C189.333,133.627,187.704,122.998,185.103,113.508z M189.717,155.187h-34.532v24.486c10.732,0.288,21.052,1.722,30.574,4.207
			C187.971,175.07,189.359,165.364,189.717,155.187z"/>
	</g>
</g>
</svg>
