<?xml version="1.0" encoding="utf-8"?>
<!-- Generator: Adobe Illustrator 17.0.0, SVG Export Plug-In . SVG Version: 6.00 Build 0)  -->
<!DOCTYPE svg PUBLIC "-//W3C//DTD SVG 1.1//EN" "http://www.w3.org/Graphics/SVG/1.1/DTD/svg11.dtd">
<svg version="1.1" id="L0001_xA0_Image_1_" xmlns="http://www.w3.org/2000/svg" xmlns:xlink="http://www.w3.org/1999/xlink" x="0px"
	 y="0px" width="927.966px" height="927.966px" viewBox="0 0 927.966 927.966" enable-background="new 0 0 927.966 927.966"
	 xml:space="preserve">
<path fill="#E66A86" d="M366.112,927.966c-3.545-10.188-8.397-20.144-10.257-30.631c-1.76-9.922-0.378-20.4-0.378-32.983
	c31.915,0,62.951,0,95.165,0c0-11.621,0-20.883,0-32.054c-31.62,0-62.196,0-93.945,0c0-11.112,0-20.361,0-31.761
	c20.384,0,40.599,0,61.995,0c0-11.357,0-20.631,0-31.887c-20.381,0-40.606,0-61.997,0c0-11.245,0-20.614,0-32.043
	c30.552,0,61.612,0,93.916,0c0-11.326,0-20.659,0-32.322c-31.112,0-62.084,0-94.068,0c0-21.919,0-41.538,0-62.707
	c73.543,0,146.832,0,222.395,0c0.262,5.285,0.787,11.001,0.791,16.717c0.053,80.914,0.369,161.832-0.433,242.738
	c-0.089,9.01-6.638,17.956-10.192,26.932C501.44,927.966,433.776,927.966,366.112,927.966z"/>
<path fill="#E66A86" d="M489.357,0c25.113,11.049,52.69,18.55,74.809,33.91c41.519,28.833,61.612,71.62,62.984,122.386
	c0.663,24.548,0.115,49.129,0.115,74.385c-10.844-2.81-20.088-5.204-31.122-8.063c-0.493-9.2-1.023-19.098-1.54-28.739
	c-97.501-14.325-97.501-14.325-163.894-56.16c-18.393,35.808-45.741,58.694-89.843,54.051c-0.592,11.037-1.096,20.445-1.641,30.608
	c-9.976,2.698-19.628,5.308-30.822,8.336c0-42.038-1.866-83.529,1.107-124.672c0.923-12.773,13.685-25.755,23.379-36.525
	c9.374-10.415,22.69-17.192,32.66-27.179C388.079,19.769,416.306,8.814,445.859,0C460.358,0,474.858,0,489.357,0z"/>
<path fill="#E66A86" d="M703.224,927.966c-28.57-19.048-32.482-30.578-21.527-63.718c7.383-22.332,15.332-44.494,22.015-67.032
	c3.106-10.475,8.411-14.622,19.255-13.94c17.139,1.078,31.407-2.444,44.835-16.475c18.502-19.333,44.74-19.903,66.139-4.555
	c19.264,13.816,39.281,23.555,63.536,21.108c11.606,31.934,22.859,62.899,34.113,93.864c0,7.25,0,14.499,0,21.749
	c-9.666,9.666-19.333,19.333-28.999,28.999C836.136,927.966,769.68,927.966,703.224,927.966z"/>
<path fill="#E66A86" d="M3.625,779.347c2.24-0.653,4.904-2.444,6.657-1.79c34.406,12.84,64.38,4.72,93.204-16.564
	c18.894-13.952,40.449-12.625,58.927,1.605c28.855,22.222,59.585,26.803,93.235,14c15.775,61.767-25.305,128.571-89.855,146.968
	c-4.563,1.3-9.033,2.926-13.547,4.401c-13.291,0-26.582,0-39.874,0c-18.855-8.523-39.053-14.959-56.266-26.034
	c-29.619-19.056-43.569-49.665-52.48-82.712C3.625,805.929,3.625,792.638,3.625,779.347z"/>
<path fill="#E66A86" d="M3.625,550.98c8.402-2.368,16.787-6.721,25.208-6.79c68.178-0.559,136.362-0.315,204.544-0.312
	c3.017,0,6.938-1.164,8.882,0.291c6.1,4.566,11.455,10.127,17.099,15.303c-5.928,5.513-11.224,14.616-17.915,15.793
	c-13.997,2.462-28.728,0.746-45.584,0.746c0,36.883-0.325,72.831,0.466,108.754c0.086,3.904,6.578,7.701,10.162,11.488
	c13.828,14.616,27.681,29.207,42.012,44.321c-22.1,14.916-40.677,14.54-61.502-0.5c-18.814-13.588-39.113-23.593-62.168-18.867
	c-16.54,3.391-33.122,10.368-47.579,19.195c-19.25,11.754-37.603,14.551-60.01,4.8c7.981-20.252,21.014-35.784,37.894-47.183
	c10.635-7.182,13.46-15.2,13.035-26.993c-0.717-19.858-0.196-39.76-0.196-62.166c31.735,0,62.666,0,94.511,0
	c0-11.878,0-21.237,0-32.804c-44.834,0-89.294,0.543-133.718-0.478c-8.453-0.194-16.764-6.575-25.14-10.101
	C3.625,560.646,3.625,555.813,3.625,550.98z"/>
<path fill="#E66A86" d="M931.591,565.479c-8.373,3.526-16.679,9.903-25.129,10.1c-43.951,1.026-87.939,0.478-133.282,0.478
	c0,10.723,0,20.48,0,32.159c30.949,0,61.42,0,94.183,0c-1.035,48.992-3.514,96.64,22.327,142.404
	c-31.448-11.148-58.431-28.154-85.446-28.204c-27.151-0.051-54.333,16.779-80.092,25.722c4.913-26.574,12.207-54.78,14.834-83.413
	c2.624-28.595,0.576-57.618,0.576-88.691c-15.614,0-29.878-0.044-44.143,0.014c-11.313,0.046-20.662-5.193-18.591-16.45
	c1.125-6.117,11.517-14.924,17.839-15.017c72.373-1.064,144.768-0.868,217.153-0.382c6.605,0.044,13.182,4.417,19.772,6.779
	C931.591,555.813,931.591,560.646,931.591,565.479z"/>
<path fill="#E66A86" d="M685.586,509.648c-34.867,17.527-45.458,34.929-40.54,60.443c4.698,24.368,22.44,36.02,59.492,39.071
	c7.965,30.364,2.183,83.173-14.001,125.748c-25.357,0-51.041,0-77.656,0c0-31.42,0-61.921,0-93.609
	c9.854-0.799,19.163-1.554,29.64-2.404c0-10.1,0-19.355,0-29.609c-116.574,0-232.283,0-349.507,0c0,9.366,0,18.594,0,29.619
	c9.283,0.684,18.662,1.374,29.156,2.147c0,30.937,0,61.518,0,94.741c-12.155,0-24.644,0.748-36.952-0.419
	c-4.132-0.392-8.518-5.077-11.558-8.803c-12.888-15.797-25.489-31.838-37.795-48.093c-3.357-4.434-7.298-9.821-7.562-14.947
	c-0.924-17.93-0.358-35.937-0.358-53.627c41.867-5.134,57.999-15.917,62.352-40.604c4.46-25.296-6.468-43.088-40.566-59.072
	c33.745-10.273,62.891-19.146,93.995-28.614c11.577,39.97,22.93,79.165,35.226,121.616c30.075-23.927,58.957-46.905,88.684-70.555
	c29.171,23.192,57.828,45.975,88.602,70.44c12.029-41.443,23.48-80.89,35.279-121.54
	C622.247,490.748,651.375,499.44,685.586,509.648z"/>
<path fill="#E66A86" d="M445.854,186.44c29.575,17.733,66.328,31.746,106.575,36.261c4.11,0.461,10.478,8.014,10.594,12.412
	c0.695,26.482,1.355,53.122-0.764,79.485c-3.944,49.079-45.892,85.371-95.761,84.911c-48.819-0.45-89.944-37.023-93.582-85.341
	c-2.032-26.98-1.106-54.204-0.842-81.312c0.037-3.82,2.932-9.354,6.141-11.118C399.411,210.086,421.056,199.248,445.854,186.44z"/>
<path fill="#E66A86" d="M465.507,488.655c-14.029-22.546-44.047-32.247-46.438-60.53c33.164,0,63.331,0,94.386,0
	C517.1,442.556,505.811,458.307,465.507,488.655z"/>
<path fill="#E66A86" d="M375.194,473.674c39.724-16.964,44.281,25.142,70.436,34.858c-17.333,14.12-31.659,25.789-49.016,39.929
	C389.152,522.405,382.279,498.409,375.194,473.674z"/>
<path fill="#E66A86" d="M560.785,470.9c-7.822,27.599-14.515,51.211-21.904,77.281c-15.675-12.472-30.092-23.944-47.194-37.551
	c14.302-14.239,27.152-29.002,42.258-40.899C538.626,466.044,549.438,470.142,560.785,470.9z"/>
<path fill="#E66A86" d="M596.036,318.506c0-20.698,0-40.314,0-59.912c19.005,0.116,30.176,10.264,31.155,27.414
	C628.236,304.293,617.374,315.993,596.036,318.506z"/>
<path fill="#E66A86" d="M339.005,258.281c0,19.572,0,39.114,0,58.727c-17.179,1.592-29.822-9.181-30.941-26.911
	C306.887,271.465,318.263,259.324,339.005,258.281z"/>
</svg>
