<?xml version="1.0" encoding="utf-8"?>
<!-- Generator: Adobe Illustrator 16.0.0, SVG Export Plug-In . SVG Version: 6.00 Build 0)  -->
<!DOCTYPE svg PUBLIC "-//W3C//DTD SVG 1.1//EN" "http://www.w3.org/Graphics/SVG/1.1/DTD/svg11.dtd">
<svg version="1.1" id="Capa_1" xmlns="http://www.w3.org/2000/svg" xmlns:xlink="http://www.w3.org/1999/xlink" x="0px" y="0px"
	 width="448.8px" height="612px" viewBox="81.6 90 448.8 612" enable-background="new 81.6 90 448.8 612" xml:space="preserve">
<path fill="#989898" d="M523.984,122.089c-2.07-0.826-51.612-20.37-110.313-20.37c-35.026,0-65.994,7.007-92.045,20.829
	C298.544,134.798,267.23,141,228.551,141C174.41,141,121.023,128.638,102,123.731V100.2C102,94.56,97.44,90,91.8,90
	s-10.2,4.56-10.2,10.2v30.6c0,0.143,0.071,0.266,0.082,0.408c0,0.123-0.082,0.225-0.082,0.347V426.6v10.955V691.8
	c0,5.641,4.559,10.2,10.2,10.2s10.2-4.56,10.2-10.2V450.805c23.185,5.753,73.878,16.596,126.551,16.596
	c42.044,0,76.572-7.018,102.632-20.829c23.083-12.25,50.827-18.462,82.487-18.462c54.642,0,102.275,18.728,102.745,18.911
	c3.151,1.265,6.701,0.877,9.506-1.04c2.795-1.877,4.479-5.039,4.479-8.426v-306C530.4,127.383,527.86,123.64,523.984,122.089z"/>
</svg>
