<?xml version="1.0" encoding="utf-8"?>
<!-- Generator: Adobe Illustrator 17.0.0, SVG Export Plug-In . SVG Version: 6.00 Build 0)  -->
<!DOCTYPE svg PUBLIC "-//W3C//DTD SVG 1.1//EN" "http://www.w3.org/Graphics/SVG/1.1/DTD/svg11.dtd">
<svg version="1.1" id="Forma_1_1_" xmlns="http://www.w3.org/2000/svg" xmlns:xlink="http://www.w3.org/1999/xlink" x="0px" y="0px"
	 width="47px" height="47px" viewBox="0 0 47 47" enable-background="new 0 0 47 47" xml:space="preserve">
<g id="Forma_1">
	<g>
		<path fill="#EEBE4C" d="M44.862,10.771h-9.998c1.373,1.227,2.547,2.665,3.467,4.272h6.531c1.18,0,2.137-0.956,2.137-2.136
			S46.042,10.771,44.862,10.771z M44.862,16.157h-5.954c0.642,1.34,1.116,2.77,1.391,4.272h4.563c1.18,0,2.137-0.956,2.137-2.136
			C46.999,17.113,46.042,16.157,44.862,16.157z M44.862,5.386H29.047c-0.921,0-1.697,0.584-1.998,1.398
			c2.365,0.502,4.541,1.504,6.436,2.874h11.378c1.18,0,2.137-0.956,2.137-2.136C47,6.342,46.042,5.386,44.862,5.386z M29.047,4.272
			h15.815c1.18,0,2.137-0.956,2.137-2.136S46.042,0,44.862,0H29.047c-1.181,0-2.137,0.957-2.137,2.137S27.866,4.272,29.047,4.272z
			 M44.862,21.542h-4.393c0.074,0.644,0.121,1.295,0.121,1.958c0,0.786-0.072,1.556-0.175,2.314h4.447
			c1.18,0,2.137-0.956,2.137-2.136S46.042,21.542,44.862,21.542z M44.862,26.928h-4.619c-0.308,1.509-0.829,2.937-1.507,4.272h6.126
			c1.18,0,2.137-0.956,2.137-2.136C46.999,27.884,46.042,26.928,44.862,26.928z M44.862,32.313h-6.748
			c-0.979,1.616-2.204,3.063-3.644,4.272h10.392c1.18,0,2.137-0.956,2.137-2.136C46.999,33.269,46.042,32.313,44.862,32.313z
			 M2.137,25.458H6.53c-0.074-0.644-0.121-1.295-0.121-1.958c0-0.786,0.072-1.556,0.175-2.314H2.137C0.957,21.186,0,22.142,0,23.322
			S0.957,25.458,2.137,25.458z M2.137,30.844h5.954c-0.641-1.34-1.116-2.77-1.391-4.272H2.137C0.957,26.572,0,27.528,0,28.708
			S0.957,30.844,2.137,30.844z M2.137,20.072h4.619c0.308-1.509,0.829-2.937,1.507-4.272H2.137C0.957,15.8,0,16.756,0,17.936
			C0,19.116,0.957,20.072,2.137,20.072z M2.137,14.687h6.748c0.979-1.616,2.204-3.063,3.644-4.272H2.137
			C0.957,10.415,0,11.371,0,12.551S0.957,14.687,2.137,14.687z M2.137,36.229h9.998c-1.373-1.227-2.547-2.665-3.467-4.272H2.137
			C0.957,31.957,0,32.913,0,34.093S0.957,36.229,2.137,36.229z M2.137,41.614h15.815c0.921,0,1.697-0.584,1.998-1.398
			c-2.365-0.502-4.541-1.504-6.436-2.874H2.137C0.957,37.342,0,38.298,0,39.478S0.957,41.614,2.137,41.614z M17.952,42.728H2.137
			C0.957,42.728,0,43.684,0,44.864S0.957,47,2.137,47h15.815c1.181,0,2.137-0.957,2.137-2.137S19.133,42.728,17.952,42.728z
			 M23.5,8.546c-8.246,0-14.954,6.708-14.954,14.954S15.254,38.454,23.5,38.454S38.454,31.746,38.454,23.5
			C38.453,15.254,31.745,8.546,23.5,8.546z M23.5,34.182c-5.89,0-10.682-4.792-10.682-10.682S17.61,12.818,23.5,12.818
			S34.181,17.61,34.181,23.5S29.389,34.182,23.5,34.182z M24.122,22.056v-3.692c2.151,0.04,2.134,2.118,3.396,2.118
			c0.66,0,1.227-0.445,1.227-1.203c0-1.904-3.11-2.855-4.623-2.895v-1.035c0-0.331-0.254-0.661-0.586-0.661
			c-0.328,0-0.579,0.33-0.579,0.661v1.035c-2.428,0.075-4.624,1.438-4.624,4.078c0,2.157,1.744,3.42,4.624,3.943v4.061
			c-3.229-0.136-1.537-2.817-3.713-2.817c-0.734,0-1.203,0.449-1.203,1.223c0,1.536,1.633,3.498,4.916,3.578v1.202
			c0,0.331,0.251,0.661,0.579,0.661c0.332,0,0.586-0.33,0.586-0.661V30.45c2.893-0.175,4.835-1.498,4.835-4.1
			C28.957,23.358,26.687,22.601,24.122,22.056z M22.958,21.844c-1.457-0.293-2.18-0.855-2.18-1.828c0-0.834,0.855-1.612,2.18-1.652
			V21.844z M24.122,28.466V24.62c1.046,0.232,2.39,0.62,2.39,1.941C26.512,27.842,25.286,28.389,24.122,28.466z"/>
	</g>
</g>
</svg>
