<?xml version="1.0" encoding="utf-8"?>
<!-- Generator: Adobe Illustrator 16.0.0, SVG Export Plug-In . SVG Version: 6.00 Build 0)  -->
<!DOCTYPE svg PUBLIC "-//W3C//DTD SVG 1.1//EN" "http://www.w3.org/Graphics/SVG/1.1/DTD/svg11.dtd">
<svg version="1.1" id="Capa_1" xmlns="http://www.w3.org/2000/svg" xmlns:xlink="http://www.w3.org/1999/xlink" x="0px" y="0px"
	 width="611.992px" height="612px" viewBox="0 0 611.992 612" enable-background="new 0 0 611.992 612" xml:space="preserve">
<g>
	<path fill="#2C77DA" d="M610.074,273.026c-0.967-8.603-11-15.073-19.678-15.073c-28.037,0-52.922-16.457-63.357-41.929
		c-10.652-26.083-3.779-56.496,17.109-75.661c6.58-6.016,7.383-16.089,1.867-23.082c-14.355-18.225-30.664-34.69-48.477-48.958
		c-6.969-5.59-17.209-4.813-23.258,1.882c-18.238,20.199-51,27.706-76.318,17.143c-26.338-11.082-42.961-37.779-41.328-66.435
		c0.537-9.006-6.049-16.833-15.021-17.878c-22.859-2.646-45.921-2.723-68.846-0.18c-8.861,0.979-15.441,8.62-15.147,17.513
		c0.992,28.375-15.819,54.601-41.902,65.286c-25.014,10.219-57.549,2.768-75.75-17.254c-6.016-6.596-16.076-7.405-23.092-1.935
		C98.54,80.855,81.863,97.33,67.375,115.407c-5.646,7.027-4.812,17.211,1.823,23.248c21.303,19.292,28.171,49.967,17.111,76.354
		c-10.56,25.157-36.68,41.362-66.58,41.362c-9.703-0.313-16.608,6.207-17.68,15.03C-0.64,294.382-0.669,317.81,1.92,340.98
		c0.966,8.639,11.296,15.055,20.067,15.055c26.652-0.678,52.225,15.811,62.967,41.926c10.69,26.084,3.809,56.482-17.116,75.674
		c-6.545,6.018-7.381,16.066-1.855,23.051c14.21,18.111,30.535,34.586,48.4,48.977c7.014,5.648,17.214,4.855,23.293-1.844
		c18.31-20.248,51.067-27.74,76.282-17.156c26.414,11.053,43.03,37.746,41.408,66.41c-0.532,9.008,6.069,16.855,15.012,17.879
		c11.698,1.369,23.458,2.045,35.254,2.045c11.196,0,22.395-0.611,33.592-1.857c8.871-0.979,15.439-8.627,15.143-17.523
		c-1.025-28.361,15.824-54.59,41.875-65.254c25.18-10.283,57.57-2.758,75.783,17.234c6.047,6.584,16.047,7.383,23.092,1.934
		c18.305-14.354,34.949-30.82,49.5-48.945c5.65-7.014,4.85-17.211-1.822-23.258c-21.299-19.279-28.203-49.967-17.143-76.328
		c10.395-24.818,35.545-41.482,62.594-41.482l3.785,0.102c8.779,0.713,16.852-6.049,17.912-15.008
		C612.644,319.603,612.671,296.203,610.074,273.026z M305.999,483.41c-97.432,0-176.412-78.979-176.412-176.408
		s78.982-176.41,176.412-176.41s176.413,78.979,176.413,176.41c0,33.07-9.117,64.002-24.953,90.453l-77.246-77.248
		c5.592-13.188,8.547-27.481,8.543-42.233c0-28.89-11.25-56.046-31.68-76.471c-20.426-20.424-47.582-31.673-76.466-31.673
		c-9.639,0-19.233,1.281-28.515,3.809c-4.065,1.109-7.39,4.46-8.472,8.533c-1.106,4.166,0.14,8.435,3.396,11.693
		c0,0,38.136,38.431,50.896,51.187c1.336,1.338,1.334,4.527,1.146,5.676l-0.119,0.839c-1.286,14.026-3.766,30.866-5.812,37.337
		c-0.275,0.271-0.535,0.502-0.815,0.783c-0.293,0.294-0.563,0.576-0.847,0.867c-6.556,2.104-23.653,4.613-37.903,5.89l0.003-0.077
		l-0.641,0.162c-0.114,0.014-0.326,0.029-0.606,0.029c-1.541,0-3.806-0.432-5.865-2.488c-13.281-13.281-49.922-49.66-49.922-49.66
		c-3.287-3.275-6.659-3.965-8.906-3.965c-5.238,0-9.928,3.785-11.405,9.213c-10.086,37.326,0.606,77.477,27.912,104.785
		c20.43,20.428,47.59,31.676,76.479,31.676c14.752,0,29.047-2.951,42.229-8.543l78.086,78.084
		C373.513,473.199,340.958,483.41,305.999,483.41z"/>
</g>
</svg>
