<?xml version="1.0" encoding="utf-8"?>
<!-- Generator: Adobe Illustrator 17.0.0, SVG Export Plug-In . SVG Version: 6.00 Build 0)  -->
<!DOCTYPE svg PUBLIC "-//W3C//DTD SVG 1.1//EN" "http://www.w3.org/Graphics/SVG/1.1/DTD/svg11.dtd">
<svg version="1.1" id="Forma_1_1_" xmlns="http://www.w3.org/2000/svg" xmlns:xlink="http://www.w3.org/1999/xlink" x="0px" y="0px"
	 width="90px" height="90px" viewBox="0 0 90 90" enable-background="new 0 0 90 90" xml:space="preserve">
<g id="Forma_1">
	<g>
		<path fill="#444444" d="M52.328,53.429c-0.913,0-1.652,0.738-1.652,1.651c0,0.912,0.739,1.651,1.652,1.651
			c0.911,0,1.651-0.739,1.651-1.651C53.979,54.167,53.239,53.429,52.328,53.429z M56.856,42.794c0.913,0,1.651-0.74,1.651-1.652
			c0-0.912-0.739-1.651-1.651-1.651c-0.912,0-1.651,0.739-1.651,1.651C55.205,42.054,55.944,42.794,56.856,42.794z M57.413,44.358
			C57.413,44.358,57.413,44.358,57.413,44.358l0.002-0.007C57.414,44.355,57.413,44.358,57.413,44.358z M39.062,38.708
			c0.606,0,1.098-0.492,1.098-1.098s-0.492-1.098-1.098-1.098c-0.605,0-1.097,0.492-1.098,1.098
			C37.964,38.217,38.456,38.708,39.062,38.708z M45,53.445c-0.606,0-1.098,0.492-1.098,1.098c0,0.606,0.492,1.098,1.098,1.098
			s1.098-0.493,1.098-1.098C46.098,53.936,45.606,53.445,45,53.445z M52.91,44.921c0-4.362-3.549-7.911-7.91-7.911
			c-4.362,0-7.91,3.549-7.91,7.911s3.548,7.911,7.91,7.911C49.361,52.832,52.91,49.283,52.91,44.921z M37.672,53.429
			c-0.912,0-1.651,0.738-1.651,1.651c0,0.912,0.739,1.651,1.651,1.651c0.913,0,1.652-0.739,1.652-1.651
			C39.324,54.167,38.585,53.429,37.672,53.429z M45,0C20.147,0,0,20.147,0,45c0,24.854,20.147,45,45,45c24.854,0,45-20.146,45-45
			C90,20.147,69.854,0,45,0z M45,87.104C21.747,87.104,2.897,68.253,2.897,45S21.747,2.897,45,2.897S87.104,21.747,87.104,45
			S68.253,87.104,45,87.104z M45,4.092C22.407,4.092,4.092,22.407,4.092,45S22.407,85.908,45,85.908S85.908,67.593,85.908,45
			S67.593,4.092,45,4.092z M79.178,32.132c-6.436,1.999-19.615,5.783-22.456,4.196c-0.69-3.178,6.777-14.67,10.572-20.243
			C72.614,20.192,76.768,25.734,79.178,32.132z M65.612,14.86c-4.188,5.409-13.004,16.299-16.125,16.318
			c-2.508-1.865-3.239-15.842-3.447-22.675C53.291,8.706,60.013,11.023,65.612,14.86z M43.96,8.503
			c-0.208,6.833-0.939,20.81-3.448,22.675c-3.12-0.019-11.937-10.909-16.125-16.318C29.987,11.023,36.708,8.706,43.96,8.503z
			 M22.706,16.084c3.85,5.654,11.481,17.402,10.536,20.376c-2.55,1.811-16.079-1.817-22.639-3.73
			C12.975,26.08,17.221,20.319,22.706,16.084z M8.487,45c0-3.574,0.516-7.027,1.473-10.292c6.526,2.342,19.895,7.473,20.544,10.418
			c-0.598,2.956-13.877,8.321-20.361,10.776C9.067,52.459,8.487,48.798,8.487,45z M10.822,57.868
			c6.436-1.999,19.616-5.783,22.457-4.195c0.69,3.178-6.777,14.67-10.572,20.243C17.386,69.809,13.232,64.266,10.822,57.868z
			 M24.388,75.14c4.188-5.408,13.004-16.299,16.125-16.317c2.508,1.865,3.239,15.842,3.448,22.675
			C36.708,81.295,29.987,78.977,24.388,75.14z M40.562,56.61c-0.007,0-0.022,0-0.034,0.021l-0.012,0.021
			c-0.573,1.035-1.663,1.679-2.845,1.679c-1.792,0-3.251-1.459-3.251-3.251c0-0.779,0.282-1.534,0.794-2.126l0.014-0.017
			l0.098-0.108c0.001-0.003,0.001-0.006,0.001-0.01l-0.021-0.064l-2.725-8.395c-0.004-0.009-0.01-0.017-0.017-0.021l-0.177-0.036
			c-1.467-0.35-2.496-1.65-2.496-3.161c0-1.792,1.458-3.251,3.251-3.251c0.429,0,0.851,0.085,1.252,0.253l0.15,0.073
			c0.007,0.002,0.011,0.002,0.014,0.002l0.001,0.001l0.094-0.07l7.119-5.169c0.004-0.004,0.005-0.011,0.006-0.017l-0.015-0.105
			c-0.011-0.109-0.017-0.221-0.017-0.332c0-1.792,1.458-3.25,3.251-3.25c1.793,0,3.251,1.458,3.251,3.25
			c0,0.11-0.006,0.223-0.017,0.334l-0.015,0.101c0.001,0.007,0.002,0.014,0.01,0.022c0.015,0.01,0.038,0.025,0.038,0.025
			l7.104,5.162l0.082,0.06l-0.01,0.015l0.095,0.182l-0.088-0.209l0.087-0.046l0.065-0.028c0.402-0.168,0.824-0.254,1.253-0.254
			c1.792,0,3.251,1.458,3.251,3.251c0,1.517-1.031,2.818-2.508,3.164c-0.014,0.003-0.089,0.021-0.089,0.021l-0.078,0.013
			c-0.006,0.004-0.011,0.011-0.014,0.017c0,0.001-0.001,0.001-0.001,0.001l-0.01,0.038l-2.735,8.416
			c-0.001,0.009-0.001,0.014,0.001,0.018l0.032,0.036H54.7l0.084,0.093c0.507,0.584,0.789,1.34,0.789,2.121
			c0,1.792-1.458,3.251-3.25,3.251c-1.183,0-2.272-0.644-2.846-1.679l-0.014-0.025c-0.011-0.017-0.024-0.017-0.031-0.017H40.562z
			 M46.04,81.497c0.208-6.833,0.939-20.81,3.447-22.675c3.12,0.019,11.938,10.909,16.125,16.317
			C60.013,78.977,53.291,81.295,46.04,81.497z M67.294,73.916c-3.851-5.655-11.481-17.403-10.535-20.376
			c2.551-1.811,16.078,1.817,22.639,3.729C77.024,63.921,72.779,69.681,67.294,73.916z M59.496,44.874
			c0.598-2.956,13.877-8.32,20.36-10.776c1.076,3.443,1.656,7.105,1.656,10.902c0,3.574-0.516,7.027-1.474,10.292
			C73.513,52.949,60.146,47.818,59.496,44.874z M54.048,49.22c0.606,0,1.098-0.492,1.099-1.099c0-0.606-0.493-1.097-1.099-1.097
			c-0.606,0-1.097,0.492-1.097,1.097C52.951,48.728,53.443,49.22,54.048,49.22z M45,34.178c0.912,0,1.651-0.738,1.651-1.651
			c0-0.912-0.739-1.651-1.651-1.651s-1.651,0.74-1.651,1.651C43.349,33.439,44.088,34.178,45,34.178z M37.05,48.121
			c0-0.606-0.491-1.097-1.098-1.097c-0.607,0-1.098,0.492-1.098,1.097c0,0.607,0.491,1.099,1.098,1.099
			C36.559,49.22,37.05,48.727,37.05,48.121z M50.938,38.708c0.607,0,1.098-0.492,1.098-1.098s-0.492-1.098-1.098-1.098
			c-0.607,0-1.098,0.492-1.098,1.098C49.84,38.217,50.331,38.708,50.938,38.708z M33.144,39.49c-0.912,0-1.651,0.74-1.651,1.652
			c0,0.912,0.739,1.652,1.651,1.652s1.652-0.74,1.652-1.652C34.796,40.23,34.057,39.49,33.144,39.49z"/>
	</g>
</g>
</svg>
