<?xml version="1.0" encoding="utf-8"?>
<!-- Generator: Adobe Illustrator 16.0.0, SVG Export Plug-In . SVG Version: 6.00 Build 0)  -->
<!DOCTYPE svg PUBLIC "-//W3C//DTD SVG 1.1//EN" "http://www.w3.org/Graphics/SVG/1.1/DTD/svg11.dtd">
<svg version="1.1" id="Capa_1" xmlns="http://www.w3.org/2000/svg" xmlns:xlink="http://www.w3.org/1999/xlink" x="0px" y="0px"
	 width="201.54px" height="612px" viewBox="0 0 201.54 612" enable-background="new 0 0 201.54 612" xml:space="preserve">
<g>
	<g>
		<g>
			<path fill="#FFFFFF" d="M100.044,200.095C44.877,200.095,0,155.21,0,100.044C0,44.878,44.877,0,100.044,0
				c55.166,0,100.044,44.878,100.044,100.044C200.095,155.21,155.21,200.095,100.044,200.095z M100.044,11.429
				c-48.866,0-88.616,39.756-88.616,88.616c0,48.859,39.75,88.608,88.616,88.608c48.858,0,88.608-39.75,88.608-88.608
				C188.653,51.185,148.903,11.429,100.044,11.429z"/>
		</g>
		<g>
			<path fill="#FFFFFF" d="M139.491,105.758H60.598c-3.157,0-5.721-2.551-5.721-5.714c0-3.157,2.558-5.721,5.721-5.721h78.894
				c3.157,0,5.714,2.564,5.714,5.721C145.206,103.208,142.654,105.758,139.491,105.758z"/>
		</g>
		<g>
			<path fill="#FFFFFF" d="M100.044,145.206c-3.157,0-5.721-2.558-5.721-5.715V60.598c0-3.157,2.564-5.721,5.721-5.721
				c3.156,0,5.714,2.564,5.714,5.721v78.894C105.758,142.654,103.208,145.206,100.044,145.206z"/>
		</g>
	</g>
	<g>
		<g>
			<path fill="#FFFFFF" d="M101.291,612c-55.28,0-100.25-44.977-100.25-100.257c0-55.279,44.97-100.249,100.25-100.249
				c55.279,0,100.25,44.97,100.25,100.249C201.546,567.023,156.569,612,101.291,612z M101.291,422.946
				c-48.96,0-88.791,39.838-88.791,88.798s39.831,88.791,88.791,88.791c48.959,0,88.791-39.831,88.791-88.792
				C190.081,462.784,150.256,422.946,101.291,422.946z"/>
		</g>
		<g>
			<path fill="#FFFFFF" d="M140.818,517.471H61.762c-3.163,0-5.726-2.558-5.726-5.728c0-3.162,2.569-5.732,5.726-5.732h79.056
				c3.164,0,5.726,2.57,5.726,5.732C146.544,514.913,143.988,517.471,140.818,517.471z"/>
		</g>
	</g>
</g>
</svg>
