<?xml version="1.0" encoding="utf-8"?>
<!-- Generator: Adobe Illustrator 17.0.0, SVG Export Plug-In . SVG Version: 6.00 Build 0)  -->
<!DOCTYPE svg PUBLIC "-//W3C//DTD SVG 1.1//EN" "http://www.w3.org/Graphics/SVG/1.1/DTD/svg11.dtd">
<svg version="1.1" id="L0001_xA0_Image_1_" xmlns="http://www.w3.org/2000/svg" xmlns:xlink="http://www.w3.org/1999/xlink" x="0px"
	 y="0px" width="928.263px" height="927.966px" viewBox="0 0 928.263 927.966" enable-background="new 0 0 928.263 927.966"
	 xml:space="preserve">
<g>
	<g>
		<path fill="#FFFFFF" d="M0.125,724.724c0-43.498,0-86.997,0-130.495c1.103-3.974,2.692-7.882,3.236-11.931
			c6.894-51.247,25.496-97.946,56.686-139.005c71.488-94.107,143.32-187.959,215.855-281.259
			c28.183-36.251,63.935-64.838,106.652-81.542c33.258-13.005,68.785-20.21,103.303-29.993c143.786,0,287.573,0,431.359,0
			c3.62,9.55,10.372,19.091,10.4,28.652c0.604,208.427,0.468,416.855,0.422,625.284c-0.001,5.819-0.572,11.638-0.961,19.06
			c-9.031,0-16.768,0-24.505,0c-293.008,0-586.016-0.009-879.024,0.052C15.74,723.547,7.933,724.314,0.125,724.724z M895.219,83.237
			c-7.307,0-12.662,0-18.017,0c-120.171,0-240.342-0.226-360.512,0.073c-93.743,0.233-169.288,37.822-226.187,112.399
			c-41.375,54.23-82.302,108.804-124.008,162.778c-5.052,6.539-13.071,11.894-20.834,15.013
			c-19.798,7.954-32.533,23.658-33.198,45.191c-0.521,16.893-0.191,33.813-0.183,50.721c0.022,45.62,16.555,62.29,62.052,62.296
			c233.699,0.029,467.398,0.014,701.096,0.014c6.408,0,12.817,0,19.79,0C895.219,381.257,895.219,233.452,895.219,83.237z
			 M799.587,659.358c19.322,0,38.645,0.132,57.966-0.032c26.947-0.229,37.981-11.529,38.298-38.905
			c0.063-5.434,0.041-10.869,0.005-16.303c-0.197-29.781-10.487-40.598-40.075-40.869c-36.226-0.333-72.457-0.218-108.685-0.048
			c-32.817,0.153-43.164,10.736-43.284,43.63c-0.018,4.83-0.091,9.663,0.02,14.491c0.598,25.931,12.188,37.706,37.791,37.993
			C760.941,659.531,780.265,659.357,799.587,659.358z"/>
		<path fill="#FFFFFF" d="M0.125,786.346c0-10.875,0-21.749,0-32.624c7.777,0.536,15.554,1.538,23.332,1.54
			c293.604,0.08,587.209,0.067,880.813,0.068c7.593,0,15.187,0,22.47,0c0,12.085,0,21.394,0,32.323c-277.113,0-552.894,0-829.662,0
			c0,11.034,0,20.4,0,31.929c277.275,0,553.543,0,830.997,0c0,14.758-0.506,27.389,0.124,39.964
			c0.85,16.975-6.661,24.11-23.565,24.101c-293.604-0.158-587.209-0.033-880.812-0.539c-7.904-0.014-15.798-6.368-23.696-9.765
			c0-18.124,0-36.249,0-54.373c20.816,0,41.633,0,62.667,0c0-11.559,0-21.246,0-32.624C40.815,786.346,20.47,786.346,0.125,786.346z
			"/>
		<path fill="#FFFFFF" d="M336.94,371.113c-47.187,0-91.504,0-139.33,0c42.521-55.983,82.401-108.929,122.765-161.502
			c35.545-46.296,82.294-75.693,139.144-88.268c16.359-3.619,33.445-5.431,50.209-5.505c113.501-0.501,227.006-0.317,340.509-0.326
			c3.562,0,7.123,0.32,12.089,0.558c0,127.43,0,254.338,0,382.346c-179.559,0-358.65,0-540.24,0
			C344.978,458.877,333.667,416.375,336.94,371.113z"/>
		<path fill="#FFFFFF" d="M304.195,403.214c0,18.123,0.628,33.191-0.137,48.189c-1.395,27.343-19.939,46.803-47.05,47.741
			c-31.306,1.083-62.678,0.429-94.019,0.256c-12.452-0.069-18.652-6.657-18.543-19.324c0.166-19.287,0.19-38.577,0.001-57.863
			c-0.116-11.822,5.738-18.738,17.149-18.834C208.45,402.985,255.309,403.214,304.195,403.214z"/>
		<path fill="#FFFFFF" d="M737.001,625.919c0-10.337,0-19.616,0-29.871c20.971,0,40.988,0,62.201,0c0,10.194,0,19.418,0,29.871
			C778.807,625.919,758.756,625.919,737.001,625.919z"/>
		<path fill="#FFFFFF" d="M862.494,626.404c-10.073,0-18.864,0-27.484,0c-7.364-31.116-4.629-34.112,27.484-29.426
			C862.494,606.052,862.494,615.339,862.494,626.404z"/>
	</g>
</g>
</svg>
