<?xml version="1.0" encoding="utf-8"?>
<!-- Generator: Adobe Illustrator 17.0.0, SVG Export Plug-In . SVG Version: 6.00 Build 0)  -->
<!DOCTYPE svg PUBLIC "-//W3C//DTD SVG 1.1//EN" "http://www.w3.org/Graphics/SVG/1.1/DTD/svg11.dtd">
<svg version="1.1" id="L0001_xA0_Image_1_" xmlns="http://www.w3.org/2000/svg" xmlns:xlink="http://www.w3.org/1999/xlink" x="0px"
	 y="0px" width="927.966px" height="927.966px" viewBox="0 0 927.966 927.966" enable-background="new 0 0 927.966 927.966"
	 xml:space="preserve">
<g>
	<g>
		<path fill="#F6851F" d="M927.966,424.109c0,26.582,0,53.165,0,79.747c-1.135,4.642-2.798,9.225-3.329,13.935
			C903.9,701.932,770.329,859.809,592.025,909.503c-28.863,8.044-58.754,12.401-88.169,18.462c-26.582,0-53.165,0-79.747,0
			c-4.006-1.076-7.951-2.685-12.027-3.152C223.874,903.234,68.741,771.492,17.598,588.637C9.842,560.905,5.774,532.142,0,503.857
			c0-26.582,0-53.165,0-79.747c1.126-4.648,2.619-9.24,3.326-13.951C31.917,219.81,136.529,90.77,317.119,24.885
			C351.264,12.428,388.37,8.086,424.11,0c26.582,0,53.165,0,79.747,0c4.017,1.068,7.974,2.657,12.061,3.13
			c188.62,21.818,343.416,153.326,394.395,336.211C918.045,367.082,922.171,395.828,927.966,424.109z M32.276,463.93
			c-0.027,237.959,192.599,431.218,430.303,431.718c239.025,0.503,432.631-192.054,433.1-430.753
			c0.469-238.814-192.521-432.413-431.227-432.587C225.612,32.133,32.303,225.195,32.276,463.93z"/>
		<path fill="#F6851F" d="M238.635,262.07c6.922,6.505,13.855,13.021,22.25,20.91c6.619-7.859,13.048-15.493,20.146-23.92
			c-5.387-5.907-11.759-12.894-19.163-21.013c52.957-46.537,113.26-72.505,185.046-76.793c0.792,10.3,1.506,19.575,2.291,29.779
			c9.876,0,19.265,0,29.688,0c0.572-9.478,1.105-18.301,1.787-29.594c71.363,3.553,131.87,29.853,185.638,76.527
			c-7.273,7.894-13.698,14.866-21.567,23.406c7.743,6.488,15.037,12.599,23.598,19.773c6.166-5.429,13.611-11.984,21.01-18.498
			c44.631,44.453,78.413,126.285,75.82,184.47c-9.1,0.715-18.4,1.446-28.295,2.224c0,10.18,0,19.569,0,29.549
			c9.822,0.544,18.702,1.035,32.158,1.779c-5.189,25.257-7.696,49.849-15.581,72.575c-9.009,25.967-22.065,50.667-35.056,75.014
			c-3.075,5.763-12.901,11.218-19.643,11.245c-156.374,0.627-312.752,0.576-469.127,0.145c-6.155-0.017-14.446-3.333-18.103-7.978
			c-27.824-35.33-49.178-101.311-49.363-150.781c9.104-0.661,18.392-1.335,28.781-2.089c0-9.607,0-18.966,0-29.374
			c-9.531-0.789-18.833-1.559-27.945-2.313C158.951,392.216,191.72,312.011,238.635,262.07z M417.094,463.654
			c32.051,0,62.555,0,93.101,0c0-38.07,0-74.412,0-110.324c-42.801,0-84.074,0-124.61,0c0,21.682,0,41.879,0,61.427
			c10.852,0,20.172,0,29.841,0c0.675-10.772,1.26-20.117,1.86-29.703c21.126,0,40.785,0,61.327,0c0,15.61,0,30.282,0,46.778
			c-31.574,0-62.069,0-93.288,0c0,38.198,0,74.557,0,110.807c42.569,0,83.886,0,124.927,0c0-21.397,0-41.532,0-63.145
			c-10.771,0.477-20.004,0.887-29.577,1.311c-0.685,10.999-1.239,19.896-1.854,29.786c-20.703,0-40.817,0-61.726,0
			C417.094,495.152,417.094,480.853,417.094,463.654z M545.159,352.822c0,64.109,0,127.069,0,189.793c42.682,0,84.047,0,125.462,0
			c0-63.797,0-126.327,0-189.793C628.656,352.822,587.79,352.822,545.159,352.822z M350.849,353.01c-26.512,0-52.032,0-78.076,0
			c0,10.501,0,19.862,0,31.091c15.532,0,30.303,0,46.989,0c0,53.913,0,105.998,0,158.342c11.8,0,21.54,0,31.087,0
			C350.849,478.574,350.849,416.141,350.849,353.01z"/>
		<path fill="#F6851F" d="M181.058,744.747c12.681-24.017,19.593-55.89,39.003-68.454c18.489-11.968,50.02-4.333,75.818-4.371
			c131.68-0.199,263.361,0.152,395.038-0.444c14.169-0.064,21.829,3.857,27.428,16.997c8.233,19.323,18.633,37.724,27.983,56.266
			C602.635,898.631,337.732,907.195,181.058,744.747z M607.239,704.778c-95.899,0-190.738,0-286.173,0c0,32.023,0,62.91,0,93.928
			c96.24,0,191.073,0,286.173,0C607.239,766.71,607.239,736.23,607.239,704.778z M257.715,704.604c0,11.085,0,20.745,0,30.073
			c10.714,0,19.915,0,28.929,0c0-10.616,0-19.884,0-30.073C276.749,704.604,268.061,704.604,257.715,704.604z M670.165,735.23
			c0-11.076,0-20.744,0-30.626c-10.26,0-18.948,0-28.843,0c0,10.582,0,20.225,0,30.626
			C651.276,735.23,660.022,735.23,670.165,735.23z M256.022,769.235c0.494,11.206,0.901,20.448,1.318,29.912
			c10.763,0,19.485,0,29.36,0c0-10.313,0-19.58,0-29.912C276.913,769.235,267.645,769.235,256.022,769.235z M670.254,799.194
			c0-10.677,0-20.326,0-29.591c-10.733,0-19.952,0-30.316,0c0.474,10.732,0.883,19.983,1.308,29.591
			C652.011,799.194,660.728,799.194,670.254,799.194z"/>
		<path fill="#F6851F" d="M324.589,85.544c41.919-8.288,81.083-16.032,123.491-24.417c0,22.944,0.524,40.869-0.45,58.712
			c-0.191,3.501-5.742,8.917-9.559,9.66c-28.784,5.607-57.752,10.266-88.626,15.559C342.367,128.11,334.567,109.435,324.589,85.544z
			"/>
		<path fill="#F6851F" d="M88.551,325.832c19.889,8.242,38.622,16.005,56.49,23.41c-5.31,31.217-10.165,61.289-15.902,91.193
			c-0.595,3.102-6.34,7.258-9.85,7.413c-17.344,0.765-34.74,0.348-53.782,0.348C65.011,405.108,74.863,365.935,88.551,325.832z"/>
		<path fill="#F6851F" d="M782.88,349.337c17.723-7.327,35.979-14.875,59.285-24.511c8.265,41.138,16.181,80.536,24.782,123.347
			c-22.975,0-40.875,0.524-58.693-0.445c-3.539-0.192-9.037-5.667-9.775-9.456C792.867,409.474,788.214,380.488,782.88,349.337z"/>
		<path fill="#F6851F" d="M85.623,603.506c-8.237-41.789-16.031-81.327-24.39-123.735c22.998,0,40.383-0.651,57.648,0.502
			c3.851,0.257,9.67,6.377,10.513,10.609c5.619,28.192,10.134,56.604,15.47,87.635C128.018,585.622,108.982,593.652,85.623,603.506z
			"/>
		<path fill="#F6851F" d="M601.865,88.702c-8.079,19.668-15.773,38.399-23.133,56.316c-31.142-5.285-61.184-10.123-91.058-15.838
			c-3.115-0.596-7.313-6.293-7.467-9.779c-0.768-17.343-0.351-34.739-0.351-53.936C522.75,65.239,561.964,74.524,601.865,88.702z"/>
		<path fill="#F6851F" d="M866.872,479.778c-8.516,42.886-16.289,82.028-24.482,123.285c-22.772-9.354-41.486-17.041-59.324-24.368
			c5.298-31.172,10.144-61.212,15.867-91.084c0.598-3.12,6.291-7.326,9.777-7.481C826.031,479.359,843.404,479.778,866.872,479.778z
			"/>
		<path fill="#F6851F" d="M633.062,97.921c35.25,23.668,68.471,45.974,103.466,69.471c-18.453,16.629-33.52,30.206-48.919,44.083
			c-23.93-16.063-50.773-34.083-79.502-53.367C615.511,140.252,623.475,121.044,633.062,97.921z"/>
		<path fill="#F6851F" d="M830.045,294.923c-23,9.547-41.747,17.327-60.238,25.002c-18.697-27.901-36.653-54.695-55.01-82.089
			c14.013-13.069,28.817-26.875,47.145-43.967C783.702,226.158,806.234,259.592,830.045,294.923z"/>
		<path fill="#F6851F" d="M211.654,240.016c-16.897,25.261-34.578,51.694-53.273,79.643c-17.657-7.202-36.447-14.866-60.201-24.555
			c23.378-35.084,45.675-68.547,68.846-103.321C184.002,210.13,197.776,225.017,211.654,240.016z"/>
		<path fill="#F6851F" d="M192.826,166.354c33.826-22.584,67.088-44.792,102.131-68.189c9.456,22.762,17.246,41.514,24.937,60.025
			c-27.829,18.671-54.609,36.638-82.11,55.088C224.548,199.463,210.544,184.847,192.826,166.354z"/>
		<path fill="#F6851F" d="M159.381,607.58c9.414,15.653,17.853,28.755,25.183,42.452c2.134,3.987,2.976,10.524,1.197,14.427
			c-8.19,17.97-17.517,35.423-28.997,58.126c-20.089-31.1-38.255-59.223-57.86-89.574
			C120.756,623.822,139.682,615.863,159.381,607.58z"/>
		<path fill="#F6851F" d="M768.557,607.53c19.905,8.245,38.579,15.98,60.382,25.011c-19.186,30.179-37.32,58.702-57.498,90.44
			c-11.474-22.651-20.948-40.59-29.522-58.949c-1.631-3.492-1.088-9.397,0.82-12.899
			C750.456,636.968,759.099,623.306,768.557,607.53z"/>
		<path fill="#F6851F" d="M639.313,385.376c0,42.148,0,82.854,0,124.927c-20.792,0-40.819,0-62.009,0c0-41.26,0-82.458,0-124.927
			C597.357,385.376,617.491,385.376,639.313,385.376z"/>
		<path fill="#F6851F" d="M352.735,766.943c0-10.048,0-19.353,0-29.843c10.106,0,19.849,0,30.484,0c0,9.971,0,19.286,0,29.843
			C373.563,766.943,364.25,766.943,352.735,766.943z"/>
		<path fill="#F6851F" d="M417.318,767.197c0-10.151,0-19.492,0-30.06c9.404,0,18.724,0,29.466,0c0,9.518,0,19.29,0,30.06
			C436.828,767.197,427.585,767.197,417.318,767.197z"/>
		<path fill="#F6851F" d="M510.826,737.285c0,10.083,0,19.425,0,29.824c-10.082,0-19.344,0-29.84,0c0-9.806,0-19.125,0-29.824
			C490.308,737.285,499.548,737.285,510.826,737.285z"/>
		<path fill="#F6851F" d="M575.237,736.85c0,10.732,0,20.036,0,30.328c-10.175,0-19.478,0-30.079,0c0-9.901,0-19.634,0-30.328
			C554.901,736.85,564.223,736.85,575.237,736.85z"/>
	</g>
</g>
</svg>
