<?xml version="1.0" encoding="utf-8"?>
<!-- Generator: Adobe Illustrator 17.0.0, SVG Export Plug-In . SVG Version: 6.00 Build 0)  -->
<!DOCTYPE svg PUBLIC "-//W3C//DTD SVG 1.1//EN" "http://www.w3.org/Graphics/SVG/1.1/DTD/svg11.dtd">
<svg version="1.1" id="Forma_1_1_" xmlns="http://www.w3.org/2000/svg" xmlns:xlink="http://www.w3.org/1999/xlink" x="0px" y="0px"
	 width="567px" height="519px" viewBox="0 0 567 519" enable-background="new 0 0 567 519" xml:space="preserve">
<g id="Forma_1">
	<g>
		<path fill-rule="evenodd" clip-rule="evenodd" fill="#EEBE4C" d="M143.618,455.089c-5.727,11.712-14.417,21.843-27.393,23.87
			c-4.006-3.467-9.156-5.633-14.872-5.633c-12.614,0-22.838,10.224-22.838,22.838c0,12.613,10.225,22.837,22.838,22.837
			c8.978,0,16.666-5.223,20.393-12.752c24.977-4.955,42.07-27.513,51.802-50.797H160.34
			C154.707,455.451,149.13,455.34,143.618,455.089z M477.934,473.326c-5.038,0-9.658,1.682-13.431,4.452
			c-11.081-3.69-19.037-13.422-24.568-24.26c-8.458,1.469-15.978,1.933-21.62,1.933h-9.936c7.975,21.89,22.736,43.147,48.585,49.728
			c3.495,8.124,11.564,13.822,20.97,13.822c12.614,0,22.838-10.224,22.838-22.837C500.773,483.55,490.548,473.326,477.934,473.326z
			 M440.54,83.068L393.86,36.38c-8.57,2.184-34.847,19.129-42.701,27.327l62.119,62.118
			C421.421,118.036,438.189,92.019,440.54,83.068z M351.856,100.552c1.19,0,2.38-0.455,3.291-1.357l6.572-6.572
			c0.418-0.418,0.707-0.902,0.929-1.403c0.762-1.71,0.464-3.765-0.929-5.168c-1.395-1.404-3.458-1.692-5.168-0.93
			c-0.502,0.223-0.985,0.52-1.403,0.93l-6.581,6.562c-1.813,1.813-1.813,4.759,0,6.572
			C349.476,100.097,350.666,100.552,351.856,100.552z M332.131,120.267c1.19,0,2.38-0.456,3.291-1.357l6.572-6.572
			c1.812-1.812,1.812-4.759,0-6.571c-1.812-1.813-4.76-1.813-6.572,0l-6.572,6.571c-1.812,1.813-1.812,4.759,0,6.572
			C329.762,119.821,330.942,120.267,332.131,120.267z M312.417,139.99c1.19,0,2.379-0.456,3.291-1.357l6.571-6.572
			c1.813-1.813,1.813-4.759,0-6.571c-1.812-1.813-4.759-1.813-6.571,0l-6.572,6.571c-1.813,1.813-1.813,4.759,0,6.572
			C310.038,139.535,311.227,139.99,312.417,139.99z M375.781,104.354c0.762-1.71,0.474-3.774-0.929-5.168
			c-1.403-1.404-3.458-1.692-5.168-0.929c-0.502,0.223-0.985,0.521-1.403,0.929l-6.572,6.581c-1.812,1.812-1.812,4.759,0,6.571
			c0.911,0.911,2.101,1.357,3.291,1.357c1.19,0,2.379-0.455,3.291-1.357l6.571-6.581
			C375.27,105.348,375.559,104.865,375.781,104.354z M355.137,118.91c-1.812-1.813-4.759-1.813-6.571,0l-6.572,6.571
			c-1.812,1.813-1.812,4.759,0,6.572c0.91,0.911,2.1,1.357,3.29,1.357c1.191,0,2.38-0.455,3.291-1.357l6.572-6.572
			C356.95,123.669,356.95,120.722,355.137,118.91z M335.422,138.624c-1.812-1.813-4.76-1.813-6.572,0l-6.572,6.58
			c-1.812,1.813-1.812,4.759,0,6.572c0.911,0.911,2.101,1.357,3.291,1.357c1.19,0,2.379-0.455,3.291-1.357l6.572-6.581
			C337.234,143.383,337.234,140.436,335.422,138.624z M378.143,126.838c1.19,0,2.379-0.456,3.29-1.357l6.572-6.571
			c0.419-0.418,0.707-0.902,0.929-1.404c0.762-1.71,0.466-3.764-0.929-5.168c-1.395-1.403-3.458-1.692-5.169-0.93
			c-0.502,0.223-0.994,0.521-1.403,0.93l-6.572,6.572c-1.812,1.812-1.812,4.759,0,6.571
			C375.763,126.392,376.952,126.838,378.143,126.838z M358.427,146.562c1.19,0,2.379-0.456,3.291-1.357l6.572-6.571
			c1.812-1.813,1.812-4.759,0-6.572c-1.813-1.813-4.76-1.813-6.572,0l-6.572,6.572c-1.812,1.812-1.812,4.759,0,6.571
			C356.048,146.107,357.238,146.562,358.427,146.562z M338.703,166.276c1.19,0,2.379-0.455,3.291-1.357l6.572-6.571
			c1.812-1.813,1.812-4.759,0-6.572c-1.813-1.813-4.76-1.813-6.572,0l-6.572,6.572c-1.812,1.812-1.812,4.759,0,6.571
			C336.333,165.821,337.523,166.276,338.703,166.276z M548.41,223.078h-27.885V9.294c0-5.131-4.155-9.295-9.296-9.295h-40.378
			c-2.333,0-4.583,0.874-6.302,2.454L431.143,33.21c-7.594-1.924-16.257,0.669-21.602,2.844l31.919,31.928
			c2.305-5.949,4.443-14.073,2.631-21.416l30.395-27.978h27.449v204.489H18.589c-10.271,0-18.59,8.319-18.59,18.589v18.59
			c0,10.271,8.319,18.59,18.59,18.59h11.563c1.413,7.194,3.235,15.467,5.54,25.004l13.013,62.35
			c18.209,67.389,55.083,78.329,98.779,79.742c4.229,0.13,8.505,0.214,12.855,0.214h16.741l228.278,0.009
			c-0.009-0.046-0.018-0.083-0.037-0.13c0.01,0.037,0.019,0.084,0.037,0.121h12.957c5.271,0,11.313-0.335,17.791-1.292
			c28.583-4.211,65.708-20.514,83.052-73.756l21.146-92.262h8.105c0.502,0,0.967-0.111,1.459-0.148
			c9.575-0.753,17.131-8.673,17.131-18.442v-18.59C567.001,231.397,558.682,223.078,548.41,223.078z"/>
	</g>
</g>
</svg>
