<?xml version="1.0" encoding="utf-8"?>
<!-- Generator: Adobe Illustrator 16.0.0, SVG Export Plug-In . SVG Version: 6.00 Build 0)  -->
<!DOCTYPE svg PUBLIC "-//W3C//DTD SVG 1.1//EN" "http://www.w3.org/Graphics/SVG/1.1/DTD/svg11.dtd">
<svg version="1.1" id="Capa_1" xmlns="http://www.w3.org/2000/svg" xmlns:xlink="http://www.w3.org/1999/xlink" x="0px" y="0px"
	 width="612px" height="612px" viewBox="0 90 612 612" enable-background="new 0 90 612 612" xml:space="preserve">
<g>
	<g>
		<path fill="#999999" d="M540.281,137.813h-28.688V90h-47.813v47.813H148.219V90h-47.813v47.813H71.719
			C32.173,137.813,0,169.985,0,209.531v420.75C0,669.827,32.173,702,71.719,702h468.563C579.827,702,612,669.827,612,630.281
			v-420.75C612,169.985,579.827,137.813,540.281,137.813z M564.188,630.281c0,13.182-10.725,23.906-23.906,23.906H71.719
			c-13.182,0-23.906-10.725-23.906-23.906V314.719h516.375V630.281z M564.188,266.906H47.813v-57.375
			c0-13.182,10.724-23.906,23.906-23.906h28.688v47.813h47.813v-47.813h315.563v47.813h47.813v-47.813h28.688
			c13.182,0,23.906,10.725,23.906,23.906V266.906z"/>
	</g>
</g>
<g>
	<g>
		<rect x="90.844" y="364.922" fill="#999999" width="47.813" height="47.813"/>
	</g>
</g>
<g>
	<g>
		<rect x="186.469" y="364.922" fill="#999999" width="47.813" height="47.813"/>
	</g>
</g>
<g>
	<g>
		<rect x="282.094" y="364.922" fill="#999999" width="47.813" height="47.813"/>
	</g>
</g>
<g>
	<g>
		<rect x="377.719" y="364.922" fill="#999999" width="47.813" height="47.813"/>
	</g>
</g>
<g>
	<g>
		<rect x="473.344" y="364.922" fill="#999999" width="47.813" height="47.813"/>
	</g>
</g>
<g>
	<g>
		<rect x="90.844" y="460.547" fill="#999999" width="47.813" height="47.813"/>
	</g>
</g>
<g>
	<g>
		<rect x="186.469" y="460.547" fill="#999999" width="47.813" height="47.813"/>
	</g>
</g>
<g>
	<g>
		<rect x="282.094" y="460.547" fill="#999999" width="47.813" height="47.813"/>
	</g>
</g>
<g>
	<g>
		<rect x="377.719" y="460.547" fill="#999999" width="47.813" height="47.813"/>
	</g>
</g>
<g>
	<g>
		<rect x="90.844" y="556.172" fill="#999999" width="47.813" height="47.813"/>
	</g>
</g>
<g>
	<g>
		<rect x="186.469" y="556.172" fill="#999999" width="47.813" height="47.813"/>
	</g>
</g>
<g>
	<g>
		<rect x="282.094" y="556.172" fill="#999999" width="47.813" height="47.813"/>
	</g>
</g>
<g>
	<g>
		<rect x="377.719" y="556.172" fill="#999999" width="47.813" height="47.813"/>
	</g>
</g>
<g>
	<g>
		<rect x="473.344" y="460.547" fill="#999999" width="47.813" height="47.813"/>
	</g>
</g>
</svg>
