<?xml version="1.0" encoding="utf-8"?>
<!-- Generator: Adobe Illustrator 16.0.0, SVG Export Plug-In . SVG Version: 6.00 Build 0)  -->
<!DOCTYPE svg PUBLIC "-//W3C//DTD SVG 1.1//EN" "http://www.w3.org/Graphics/SVG/1.1/DTD/svg11.dtd">
<svg version="1.1" id="Capa_1" xmlns="http://www.w3.org/2000/svg" xmlns:xlink="http://www.w3.org/1999/xlink" x="0px" y="0px"
	 width="448.8px" height="612px" viewBox="0 0 448.8 612" enable-background="new 0 0 448.8 612" xml:space="preserve">
<path fill="#FFFFFF" d="M442.384,33.089c-2.07-0.826-51.611-20.37-110.313-20.37c-35.027,0-65.994,7.007-92.045,20.829
	C216.944,45.798,185.63,52,146.95,52C92.81,52,39.423,39.638,20.4,34.731V11.2C20.4,5.56,15.84,1,10.2,1C4.56,1,0,5.56,0,11.2v30.6
	c0,0.143,0.071,0.266,0.082,0.408C0.082,42.331,0,42.433,0,42.555V337.6v10.955V602.8c0,5.642,4.559,10.2,10.2,10.2
	c5.641,0,10.2-4.56,10.2-10.2V361.805c23.185,5.753,73.878,16.597,126.55,16.597c42.045,0,76.573-7.019,102.633-20.829
	c23.082-12.25,50.826-18.462,82.486-18.462c54.643,0,102.275,18.728,102.746,18.911c3.15,1.265,6.701,0.877,9.506-1.04
	c2.795-1.878,4.479-5.039,4.479-8.427v-306C448.8,38.383,446.261,34.64,442.384,33.089z"/>
</svg>
