<?xml version="1.0" encoding="utf-8"?>
<!-- Generator: Adobe Illustrator 17.0.0, SVG Export Plug-In . SVG Version: 6.00 Build 0)  -->
<!DOCTYPE svg PUBLIC "-//W3C//DTD SVG 1.1//EN" "http://www.w3.org/Graphics/SVG/1.1/DTD/svg11.dtd">
<svg version="1.1" id="L0001_xA0_Image_1_" xmlns="http://www.w3.org/2000/svg" xmlns:xlink="http://www.w3.org/1999/xlink" x="0px"
	 y="0px" width="992.029px" height="992.029px" viewBox="0 0 992.029 992.029" enable-background="new 0 0 992.029 992.029"
	 xml:space="preserve">
<g>
	<path fill="#FFFFFF" d="M213.131-0.125c117.545,0,235.09,0,352.635,0c0,52.642,0,105.284,0,158.243
		c-13.695,1.042-23.1,1.758-32.974,2.51c0,10.675,0,19.952,0,31.42c15.276,0,29.358-0.431,43.405,0.096
		c23.996,0.901,35.537,12.313,35.716,36.272c0.377,50.353,0.375,100.712-0.003,151.064c-0.174,23.222-10.981,34.029-33.933,35.947
		c-3.746,0.313-7.493,0.619-11.91,0.983c-3.896,17.284-6.186,30.395,16.734,36.569c19.838,5.343,28.18,23.373,29.085,43.737
		c0.444,10.007,0.077,20.05,0.077,29.79c51,4.163,63.642,17.769,63.671,65.844c0.035,58.102-0.244,116.207,0.203,174.306
		c0.101,13.116-5.226,32.589,16.919,31.881c20.071-0.642,15.31-19.032,15.328-31.728c0.228-165.914,0.095-331.829,0.326-497.744
		c0.011-8.043-0.148-18.309,4.35-23.765c29.963-36.341,60.451-72.316,92.296-107.008c14.815-16.139,39.154-13.4,53.283,2.801
		c12.279,14.08,13.119,33.486,1.18,51.973c-16.098,24.928-33.122,49.258-49.201,74.197c-10.405,16.139-7.662,25.439,9.075,34.475
		c7.937,4.285,15.973,8.458,24.242,12.042c17.529,7.597,24.862,20.518,24.522,39.685c-0.699,39.368-0.09,78.758-0.248,118.138
		c-0.116,28.826-11.093,39.865-39.678,40.028c-28.842,0.165-57.687,0.036-88.237,0.036c0,9.204,0,16.157,0,23.111
		c-0.002,80.698,0.082,161.396-0.053,242.093c-0.045,26.942-11.336,44.782-32.123,52.005
		c-33.255,11.555-63.773-12.048-64.032-50.471c-0.43-63.91-0.066-127.825-0.159-191.737c-0.036-24.838-5.332-28.95-30.211-24.028
		c0,110.655,0,221.335,0,331.898c10.726,0.843,20.067,1.576,28.822,2.264c0,32.649,0,63.303,0,95.102
		c-171.083,0-340.783,0-510.483,0c0-32.293,0-64.585,0-96.878c10.083,0,20.166,0,31.814,0c0-9.542,0-17.18,0-24.817
		c0.001-121.415,0.111-242.831-0.091-364.246c-0.04-23.777,5.708-46.132,29.953-53.081c23.124-6.628,20.132-19.527,17.168-35.385
		c-43.256-6.814-47.026-11.318-47.029-55.022c-0.003-41.333-0.034-82.666,0.01-123.999c0.04-37.476,9.127-46.387,47.261-46.501
		c10.689-0.032,21.379-0.005,31.792-0.005c0-12.407,0-21.751,0-31.638c-10.634-0.735-19.946-1.379-29.5-2.039
		C213.131,104.283,213.131,52.079,213.131-0.125z M514.407,894.799c0-117.839,0-233.573,0-349.631c-85.375,0-169.453,0-253.396,0
		c0,117.315,0,233.112,0,349.631C345.889,894.799,429.512,894.799,514.407,894.799z M227.935,512.907c107.988,0,212.873,0,320.226,0
		c0,127.891,0,254.607,0,381.208c11.828,0,21.125,0,30.902,0c0.471-3.82,1.045-6.314,1.047-8.809
		c0.063-127.156-0.058-254.313,0.244-381.468c0.045-18.886-8.939-24.08-26.498-24.003c-109.081,0.48-218.166,0.229-327.249,0.246
		c-28.737,0.005-30.591,1.83-30.599,30.847c-0.035,120.702-0.03,241.403,0.025,362.105c0.003,6.896,0.577,13.792,0.912,21.307
		c10.797,0,20.078,0,30.992,0C227.935,766.905,227.935,640.634,227.935,512.907z M244.612,126.664c96.439,0,190.853,0,285.89,0
		c0-31.701,0-62.29,0-93.493c-95.905,0-190.717,0-285.89,0C244.612,64.936,244.612,95.086,244.612,126.664z M578.844,383.129
		c0-32.408,0-62.959,0-95.55c-8.324,0-15.258,0-22.193,0c-54.829,0-109.657-0.001-164.486,0
		c-59.344,0.001-118.691-0.247-178.028,0.385c-6.004,0.064-16.987,5.207-17.137,8.394c-1.348,28.639-0.787,57.367-0.787,87.307
		c9.869,0,16.871,0,23.874,0c7.504,0,15.008,0,23.955,0c0-11.316-0.261-20.236,0.052-29.136
		c0.769-21.876,11.717-33.893,33.493-34.028c73.531-0.456,147.069-0.452,220.6,0.009c21.771,0.137,32.498,12.02,33.262,34.119
		c0.323,9.351,0.054,18.723,0.054,28.499C548.767,383.129,562.883,383.129,578.844,383.129z M164.698,928.928
		c0,10.538,0,19.831,0,30.146c149.298,0,297.429,0,446.406,0c0-10.508,0-19.865,0-30.146
		C461.956,928.928,313.778,928.928,164.698,928.928z M771.639,479.188c0-21.633-0.003-40.97,0.001-60.307
		c0.01-50.16,11.756-63.192,60.576-67.375c0.951-0.082,1.79-1.47,4.884-4.171c-11.51-6.136-21.897-11.745-32.349-17.231
		c-34.48-18.096-42.442-47.695-21.156-80.47c15.806-24.337,32.422-48.152,47.942-72.666c2.325-3.672,0.615-9.898,0.772-14.943
		c-4.14,2.175-9.377,3.391-12.248,6.675c-24.635,28.169-49.099,56.501-72.929,85.35c-4.053,4.906-6.787,12.496-6.834,18.87
		c-0.486,65.178-0.32,130.361-0.204,195.543c0.006,3.628,1.18,7.254,1.783,10.724C751.769,479.188,760.582,479.188,771.639,479.188z
		 M499.281,160.478c-74.93,0-148.164,0-222.542,0c0,10.358,0,19.688,0,30.178c74.353,0,148.137,0,222.542,0
		C499.281,180.413,499.281,171.473,499.281,160.478z M276.586,382.513c74.638,0,148.281,0,222.09,0c0-10.446,0-19.709,0-28.764
		c-74.864,0-148.492,0-222.09,0C276.586,364.104,276.586,372.874,276.586,382.513z M308.663,446.97c53.739,0,105.521,0,158.431,0
		c0-10.428,0-19.707,0-30.044c-53.042,0-105.274,0-158.431,0C308.663,427.202,308.663,436.015,308.663,446.97z M451.253,225.219
		c-43.205,0-84.179,0-125.964,0c0,10.337,0,19.566,0,29.163c42.6,0,84.006,0,125.964,0
		C451.253,244.213,451.253,235.455,451.253,225.219z M835.342,479.479c0-32.614,0-63.203,0-94.591
		c-14.012-1.919-29.077-3.923-30.505,13.871c-2.131,26.566-0.553,53.43-0.553,80.72C815.53,479.479,824.419,479.479,835.342,479.479
		z M484.932,225.269c0,10.752,0,19.585,0,28.985c31.933,0,63.004,0,94.234,0c0-10.335,0-19.106,0-28.985
		C547.541,225.269,516.943,225.269,484.932,225.269z M197,254.724c31.869,0,62.323,0,93.436,0c0-10.3,0-19.523,0-29.475
		c-31.586,0-62.023,0-93.436,0C197,235.132,197,243.906,197,254.724z M245.088,446.845c10.639,0,19.813,0,28.826,0
		c0-10.988,0-20.671,0-30.42c-10.404,0-19.077,0-28.826,0C245.088,426.614,245.088,435.898,245.088,446.845z M501.072,416.381
		c0,11.511,0,20.763,0,30.496c10.404,0,19.599,0,28.802,0c0-10.946,0-20.623,0-30.496
		C519.481,416.381,510.802,416.381,501.072,416.381z"/>
	<path fill="#FFFFFF" d="M387.858,671.928c21.164,36.313,41.682,68.13,58.664,101.734c13.415,26.544,3.484,58.447-19.359,76.472
		c-22.667,17.886-54.08,18.338-77.224,1.112c-23.143-17.226-34.275-49.577-21.211-75.99
		C345.696,740.947,366.622,708.597,387.858,671.928z M387.909,734.952c-10.507,17.618-19.529,31.567-27.342,46.163
		c-8.546,15.966-5.152,33.798,7.667,43.541c12.809,9.735,26.252,9.705,39.135,0.187c12.707-9.388,16.197-27.411,7.745-43.528
		C407.399,766.603,398.341,752.595,387.909,734.952z"/>
	<path fill="#FFFFFF" d="M435.322,608.682c-0.397,26.938-21.571,47.193-48.719,46.605c-26.798-0.581-46.866-21.985-46.097-49.165
		c0.737-26.027,21.413-45.839,47.667-45.674C415.138,560.617,435.72,581.673,435.322,608.682z M411.066,608.427
		c-11.336-7.738-17.399-15.074-23.335-14.972c-5.272,0.09-15.177,9.266-14.534,12.946c1.107,6.341,8.14,15.034,13.96,16.16
		C392.411,623.578,399.369,615.789,411.066,608.427z"/>
	<path fill="#FFFFFF" d="M499.204,65.814c0,10.099,0,18.935,0,29.066c-74.269,0-147.876,0-222.536,0c0-9.695,0-18.445,0-29.066
		C350.293,65.814,423.845,65.814,499.204,65.814z"/>
</g>
</svg>
