<?xml version="1.0" encoding="utf-8"?>
<!-- Generator: Adobe Illustrator 17.0.0, SVG Export Plug-In . SVG Version: 6.00 Build 0)  -->
<!DOCTYPE svg PUBLIC "-//W3C//DTD SVG 1.1//EN" "http://www.w3.org/Graphics/SVG/1.1/DTD/svg11.dtd">
<svg version="1.1" id="L0001_xA0_Image_1_" xmlns="http://www.w3.org/2000/svg" xmlns:xlink="http://www.w3.org/1999/xlink" x="0px"
	 y="0px" width="927.568px" height="949.829px" viewBox="0 0 927.568 949.829" enable-background="new 0 0 927.568 949.829"
	 xml:space="preserve">
<path fill="#FFFFFF" d="M356.186,3.71c13.704,10.152,28.941,18.768,40.878,30.689c147.757,147.556,295.095,295.532,442.254,443.685
	c7.608,7.66,13.928,17.267,18.631,27.034c24.835,51.581,48.959,103.505,73.329,155.31c0,2.474,0,4.947,0,7.421
	c-7.664,11.207-16.598,11.562-28.612,5.834c-49.56-23.628-99.694-46.054-149.193-69.803c-9.698-4.653-18.362-12.379-26.079-20.11
	C580.721,436.816,435.71,288.163,286.985,143.323C234.074,91.795,266.808,29.966,314.993,8.997
	c3.871-1.684,7.676-3.521,11.511-5.287C336.398,3.71,346.292,3.71,356.186,3.71z M382.639,112.313
	c7.928,6.579,14.058,10.886,19.27,16.108c119.113,119.343,238.133,238.78,357.152,358.218c19.803,19.873,26.693,20.443,52.756,3.628
	c-135.02-133.608-269.943-267.12-405.249-401.01C400.581,95.026,393.124,102.211,382.639,112.313z M745.742,556.762
	c13.588-30.263,13.546-30.221-10.399-54.261c-118.518-118.99-237.049-237.968-355.378-357.147
	c-4.659-4.693-7.307-11.382-10.892-17.141c-1.371,1.639-2.743,3.278-4.114,4.917c-7.522,7.749-15.044,15.498-23.178,23.879
	C476.181,290.009,610.816,423.242,745.742,556.762z M388.119,64.681c-17.069-16.386-30.312-40.807-59.781-30.36
	c-22.141,7.85-37.888,24.002-41.673,47.749c-4.276,26.829,19.403,36.63,31.87,51.882C342.575,110.022,364.754,87.941,388.119,64.681
	z M833.599,518.549c-46.401,5.642-59.791,19.345-61.863,63.137c17.965,8.453,35.91,17.985,54.775,25.066
	c5.22,1.959,15.045-1.471,19.446-5.797c6.917-6.8,21.04-11.22,13.865-26.192C850.832,556.006,842.217,537.068,833.599,518.549z"/>
<path fill="#FFFFFF" d="M800.321,775.213c-4.135,5.539-6.869,10.274-10.592,14.026c-51.396,51.789-103.183,103.193-154.262,155.293
	c-14.056,14.337-22.949,7.036-33.663-3.745C473.655,811.843,345.31,683.093,217.014,554.295
	C151.557,488.582,86.088,422.881,20.645,357.154c-19.505-19.589-19.433-21.402,0.606-41.501
	c48.46-48.605,96.878-97.253,145.375-145.822c15.169-15.192,19.835-15.285,34.923-0.148
	c195.555,196.208,391.074,392.453,586.488,588.802C792.566,763.037,795.757,768.92,800.321,775.213z M261.802,269.264
	c-16.42,4.186-22.598,31.719-39.164,15.566c-17.155-16.728,10.627-24.133,13.615-34.01c-6.479-9.123-12.015-16.919-18.525-26.087
	c-11.039,11.65-19.047,22.288-29.284,29.944c-4.818,3.603-13.921,1.477-21.082,1.946c0.73-7.071-1.112-16.395,2.709-20.756
	c8.753-9.987,20.272-17.551,31.735-26.977c-9.122-8.215-13.455-12.117-14.67-13.211c-48.923,48.419-96.62,95.621-145.094,143.594
	c3.491,3.015,7.859,6.786,14.377,12.414C66.085,341,73.85,330.208,83.887,322.302c4.631-3.648,13.705-1.654,20.764-2.219
	c-0.597,7.152,1.394,16.355-2.318,21.036c-8.237,10.389-19.334,18.511-28.037,26.439c20.943,20.944,39.123,39.125,57.48,57.482
	c11.693-3.789,18.231-30.628,34.562-15.232c17.856,16.834-9.801,24.307-13.818,36.862c18.423,17.869,36.933,35.822,58.052,56.307
	c6.651-7.467,14.224-18.427,24.257-26.221c5.189-4.031,14.74-2.446,22.32-3.398c-1.08,7.654,0.427,17.482-3.79,22.499
	c-8.173,9.724-19.567,16.743-27.082,22.824c22.029,22.284,40.144,40.608,59.842,60.533c3.094-3.673,6.189-10.299,11.26-12.637
	c6.754-3.114,15.047-2.892,22.679-4.103c-0.809,7.653-0.116,15.914-2.891,22.772c-2.318,5.728-8.696,9.813-12.397,13.702
	c18.487,18.71,36.16,36.596,55.974,56.649c7.08-7.836,14.829-16.57,22.757-25.14c7.131-7.709,16.332-15.315,24.408-4.405
	c3.242,4.379-0.161,17.394-4.764,23.025c-7.583,9.277-18.601,15.747-25.153,20.987c22.208,22.507,40.258,40.8,60.562,61.376
	c3.604-4.517,7.188-12.13,13.171-15.564c5.17-2.966,13.066-1.182,19.756-1.497c-0.034,6.688,1.965,14.333-0.62,19.819
	c-3.197,6.786-10.199,11.779-14.628,16.546c19.022,19.162,37.149,37.424,57.429,57.854c7.219-8.122,15.359-17.413,23.651-26.565
	c7.057-7.788,16.658-12.202,23.362-2.748c3.142,4.43,0.304,16.506-3.9,21.996c-7.597,9.92-18.255,17.496-24.151,22.873
	c20.727,21.058,38.724,39.342,58.552,59.486c3.108-3.824,6.416-11.141,11.97-13.847c5.989-2.917,14.081-1.517,21.255-2
	c-0.71,7.212,0.818,15.93-2.744,21.223c-3.738,5.554-12.354,7.825-20.326,12.38c10.908,9.579,15.262,13.402,15.623,13.719
	c49.555-48.198,97.644-94.97,145.041-141.069c-3.125-4.358-6.35-8.857-9.967-13.901c-7.881,7.332-13.416,14.614-20.748,18.535
	c-4.695,2.511-14.305,2.371-17.563-0.818c-3.244-3.176-3.59-12.858-1.117-17.515c3.901-7.343,11.222-12.869,18.339-20.497
	c-7.273-6.433-14.112-12.482-24.842-21.973c-8.152,9.744-15.855,21.305-26.011,30.001c-4.428,3.791-13.887,1.706-21.061,2.289
	c0.599-7.16-1.449-16.565,2.333-21.026c8.613-10.156,20.088-17.885,30.409-26.609c-9.591-10.348-15.773-17.018-22.589-24.371
	c-7.045,6.681-12.018,13.793-18.837,17.1c-5.377,2.607-13.027,0.529-19.667,0.532c0.277-6.647-1.789-14.912,1.408-19.542
	c4.244-6.147,12.596-9.457,19.797-14.408c-10.575-11.042-16.844-17.588-26.472-27.641c-9.591,11.277-16.883,22.443-26.767,30.378
	c-4.939,3.965-14.616,2.03-22.15,2.763c0.858-7.112-0.749-16.237,3.078-20.923c8.326-10.192,19.423-18.121,27.451-25.254
	c-8.99-10.489-14.835-17.307-23.155-27.013c-5.091,6.622-8.193,13.983-13.658,16.865c-5.921,3.122-14.044,2.069-21.206,2.836
	c0.439-7.134-0.88-15.035,1.807-21.187c2.738-6.268,9.416-10.815,14.708-16.479c-7.272-7.172-13.647-13.46-23.106-22.789
	c-8.769,10.161-16.242,21.08-26.039,29.194c-4.694,3.888-13.785,2.465-20.885,3.448c0.503-7.545-1.612-16.878,2.061-22.26
	c7.394-10.834,17.942-19.516,23.715-25.491c-6.115-8.962-10.864-15.923-17.717-25.967c-5.301,6.951-8.079,13.898-13.052,16.3
	c-6.597,3.186-14.908,2.822-22.482,3.984c0.876-7.524-0.097-16.019,3.189-22.276c2.826-5.381,10.514-8.209,17.325-13.075
	c-10.188-10.312-16.981-17.188-25.676-25.99c-9.735,10.219-18.116,19.102-26.594,27.891c-7.098,7.358-16.366,12.774-23.298,2.828
	c-3.116-4.472-0.664-16.751,3.638-21.63c8.36-9.482,19.809-16.24,29.979-24.127c-2.402-1.07-4.805-2.139-7.207-3.209
	c-5.316-6.517-10.633-13.034-18.578-22.774c-5.151,6.849-8.169,14.297-13.604,17.163c-5.943,3.134-14.12,2.032-21.324,2.777
	c0.473-7.156-0.792-15.07,1.905-21.257c2.729-6.26,9.379-10.812,14.367-16.172c-7.202-7.301-13.459-13.645-22.892-23.209
	c-6.692,8.261-12.424,16.354-19.209,23.438c-7.415,7.741-15.811,20.035-27.473,8.668c-12.69-12.368,0.404-21.156,8.604-28.758
	c7.162-6.639,15.831-11.653,23.835-17.385c-1.785-1.485-3.571-2.97-5.356-4.456c-6.004-6.594-12.009-13.188-18.574-20.399
	c-6.27,5.933-10.84,12.548-17.133,15.531c-5.638,2.673-13.172,1.348-19.87,1.787c0.3-7.162-1.234-15.112,1.411-21.266
	c2.703-6.29,9.507-10.817,14.802-16.419c-7.067-7.228-13.305-13.607-23.119-23.643c-8.927,10.634-16.118,21.876-25.974,29.804
	c-4.877,3.923-14.664,1.741-22.229,2.32c0.951-7.069-0.61-16.492,3.362-20.73c9.077-9.686,20.86-16.835,31.553-25.022
	C272.597,280.886,266.779,274.621,261.802,269.264z"/>
</svg>
