<?xml version="1.0" encoding="utf-8"?>
<!-- Generator: Adobe Illustrator 16.0.0, SVG Export Plug-In . SVG Version: 6.00 Build 0)  -->
<!DOCTYPE svg PUBLIC "-//W3C//DTD SVG 1.1//EN" "http://www.w3.org/Graphics/SVG/1.1/DTD/svg11.dtd">
<svg version="1.1" id="Layer_1" xmlns="http://www.w3.org/2000/svg" xmlns:xlink="http://www.w3.org/1999/xlink" x="0px" y="0px"
	 width="612px" height="357.002px" viewBox="0 0 612 357.002" enable-background="new 0 0 612 357.002" xml:space="preserve">
<g>
	<g>
		<g>
			<path fill="#2C77DA" d="M147.899,28.05c-20.4-20.4-107.1-25.5-135.15-28.051c-2.549,0-5.1,0-7.65,2.55C2.55,5.101,0,10.2,0,12.75
				v229.5C0,249.899,5.101,255,12.75,255h76.5c5.1,0,10.2-2.55,12.75-7.65c0-7.648,45.9-142.8,51-209.099
				C153,35.7,153,30.601,147.899,28.05z"/>
		</g>
	</g>
	<g>
		<g>
			<path fill="#2C77DA" d="M420.75,89.25c-25.5-7.649-48.449-17.851-68.85-25.5c-45.9-20.399-66.301-10.2-107.102,30.601
				c-17.85,17.85-30.6,43.35-28.05,53.549c0,2.551,0,2.551,5.101,5.102c12.75,5.1,30.6,7.65,48.45-20.4
				c2.549-2.55,5.1-5.101,10.199-5.101c7.65,0,10.2-2.549,17.85-5.101c5.101-2.549,10.2-5.101,17.85-7.649c2.55,0,2.55,0,5.101,0
				c2.55,0,7.65,2.55,10.199,2.55c12.751,12.75,35.701,30.6,58.651,51c35.699,28.05,71.398,58.651,89.25,81.601h2.55
				C464.101,198.9,433.5,112.2,420.75,89.25z"/>
		</g>
	</g>
	<g>
		<g>
			<path fill="#2C77DA" d="M599.25,25.5C499.8,25.5,443.7,51,441.149,51c-2.551,2.55-5.102,5.101-7.65,7.649
				c0,2.551,0,7.65,2.55,10.201c15.3,25.5,66.301,165.749,73.95,201.449c2.55,5.102,7.65,10.199,12.751,10.199h76.5
				c7.648,0,12.75-5.1,12.75-12.75v-229.5C612,30.601,606.899,25.5,599.25,25.5z"/>
		</g>
	</g>
	<g>
		<g>
			<path fill="#2C77DA" d="M461.55,275.4c-10.2-22.95-53.55-56.101-91.8-86.699c-20.399-17.851-40.8-33.151-56.1-45.901
				c-2.551,2.549-7.65,2.549-7.65,5.1c-7.65,2.551-10.2,5.102-20.4,5.102c-20.4,25.499-45.9,35.698-73.95,25.499
				c-12.75-2.55-20.4-12.75-22.95-22.95c-5.1-25.5,17.85-61.199,35.701-79.049h-51c-10.2,51-28.05,117.299-40.8,153
				c10.2,10.2,20.4,22.95,28.051,28.051c48.449,40.8,104.55,81.602,114.75,89.25c7.65,5.102,22.95,10.2,30.6,10.2
				c2.55,0,5.101,0,7.65,0L272.851,316.2c-5.101-5.102-5.101-12.751,0-17.851c5.1-5.1,12.75-5.101,17.85,0l51,51
				c5.101,5.102,10.2,2.551,15.3,2.551c7.65-2.551,10.2-7.65,12.751-15.301l-58.65-58.649c-5.101-5.102-5.101-12.751,0-17.851
				c5.102-5.1,12.75-5.101,17.851,0l63.749,63.749c2.55,2.551,12.751,2.551,20.399,0c2.551-2.549,7.65-5.1,10.2-10.198l-71.398-71.4
				c-5.102-5.101-5.102-12.751,0-17.85c5.1-5.101,12.75-5.102,17.85,0l73.95,73.949c5.101,2.551,10.199,0,15.3-2.55
				C461.55,293.25,466.65,285.6,461.55,275.4z"/>
		</g>
	</g>
</g>
</svg>
