<?xml version="1.0" encoding="utf-8"?>
<!-- Generator: Adobe Illustrator 16.0.0, SVG Export Plug-In . SVG Version: 6.00 Build 0)  -->
<!DOCTYPE svg PUBLIC "-//W3C//DTD SVG 1.1//EN" "http://www.w3.org/Graphics/SVG/1.1/DTD/svg11.dtd">
<svg version="1.1" id="Capa_1" xmlns="http://www.w3.org/2000/svg" xmlns:xlink="http://www.w3.org/1999/xlink" x="0px" y="0px"
	 width="612px" height="581.699px" viewBox="0 0 612 581.699" enable-background="new 0 0 612 581.699" xml:space="preserve">
<g>
	<g>
		<g>
			<path fill="#2C77DA" d="M601.721,258.437L327.137,8.237C315.084-2.747,296.91-2.745,284.863,8.236L10.277,258.438
				c-9.655,8.798-12.844,22.353-8.127,34.532c4.718,12.18,16.205,20.049,29.266,20.049h43.856v250.682
				c0,9.938,8.059,17.998,17.998,17.998h150.506c9.939,0,17.998-8.059,17.998-17.998V411.494h88.457v152.207
				c0,9.939,8.059,17.998,17.996,17.998h150.5c9.938,0,17.998-8.057,17.998-17.998V313.019h43.863
				c13.061,0,24.549-7.871,29.266-20.049C614.565,280.79,611.375,267.236,601.721,258.437z"/>
		</g>
	</g>
	<g>
		<g>
			<path fill="#2C77DA" d="M532.024,35.925H411.155L550.02,162.193V53.921C550.022,43.982,541.963,35.925,532.024,35.925z"/>
		</g>
	</g>
</g>
</svg>
