<?xml version="1.0" encoding="utf-8"?>
<!-- Generator: Adobe Illustrator 17.0.0, SVG Export Plug-In . SVG Version: 6.00 Build 0)  -->
<!DOCTYPE svg PUBLIC "-//W3C//DTD SVG 1.1//EN" "http://www.w3.org/Graphics/SVG/1.1/DTD/svg11.dtd">
<svg version="1.1" id="Forma_1_1_" xmlns="http://www.w3.org/2000/svg" xmlns:xlink="http://www.w3.org/1999/xlink" x="0px" y="0px"
	 width="56px" height="60px" viewBox="0 0 56 60" enable-background="new 0 0 56 60" xml:space="preserve">
<g id="Forma_1">
	<g>
		<path fill="#E0454A" d="M27,43h-7v7h7V43z M27,25h-7v7h7V25z M27,34h-7v7h7V34z M18,34h-7v7h7V34z M18,25h-7v7h7V25z M18,43h-7v7
			h7V43z M45,25h-7v7h7V25z M55,4h-7V1c0-0.553-0.447-1-1-1h-7c-0.553,0-1,0.447-1,1v3H17V1c0-0.553-0.447-1-1-1H9
			C8.447,0,8,0.447,8,1v3H1C0.447,4,0,4.447,0,5v54c0,0.553,0.447,1,1,1h54c0.553,0,1-0.447,1-1V5C56,4.447,55.553,4,55,4z M47,52H9
			V23h38V52z M54,15H2V6h6v3c0,0.553,0.447,1,1,1h7c0.553,0,1-0.447,1-1V6h22v3c0,0.553,0.447,1,1,1h7c0.553,0,1-0.447,1-1V6h6V15z
			 M45,34h-7v7h7V34z M45,43h-7v7h7V43z M36,43h-7v7h7V43z M36,34h-7v7h7V34z M36,25h-7v7h7V25z"/>
	</g>
</g>
</svg>
