<?xml version="1.0" encoding="utf-8"?>
<!-- Generator: Adobe Illustrator 17.0.0, SVG Export Plug-In . SVG Version: 6.00 Build 0)  -->
<!DOCTYPE svg PUBLIC "-//W3C//DTD SVG 1.1//EN" "http://www.w3.org/Graphics/SVG/1.1/DTD/svg11.dtd">
<svg version="1.1" id="Shape_1_1_" xmlns="http://www.w3.org/2000/svg" xmlns:xlink="http://www.w3.org/1999/xlink" x="0px" y="0px"
	 width="512px" height="478px" viewBox="0 0 512 478" enable-background="new 0 0 512 478" xml:space="preserve">
<g id="Shape_1">
	<g>
		<path fill="#666666" d="M486.4,256.072h-8.533V76.822c0-42.679-34.133-76.821-76.8-76.821c-37.77,0-64.935,28.014-67.974,69.06
			c-19.829,3.749-34.426,20.832-34.426,41.904c0,5.121,3.413,8.535,8.533,8.535h68.267c5.12,0,8.533-3.414,8.533-8.535
			c0-20.839-14.274-37.78-33.767-41.779c2.55-27.124,18.836-52.115,50.834-52.115c33.28,0,59.733,26.46,59.733,59.75v179.25H203.975
			c-3.86-19.687-20.878-34.143-41.841-34.143c-8.533-10.243-20.48-17.072-34.133-17.072c-16.213,0-30.72,9.39-37.547,23.046
			c-6.827-3.414-14.507-5.975-22.187-5.975c-20.963,0-37.981,14.456-41.841,34.143H25.6c-14.507,0-25.6,11.096-25.6,25.607
			c0,14.511,11.093,25.607,25.6,25.607h10.255l23.025,91.332c6.827,26.46,30.72,45.24,58.027,45.24h6.827l-11.093,22.193
			c-2.56,4.268-0.853,9.39,3.413,11.096c0.853,0.853,2.56,0.853,3.413,0.853c3.413,0,5.973-1.707,7.68-4.268l14.933-29.874h236.8
			l14.507,29.021c1.707,3.414,4.267,5.121,7.68,5.121c1.707,0,2.56,0,3.413-1.707c3.413-1.708,5.12-6.829,3.413-11.096
			l-10.689-21.385c26.419-0.938,49.266-19.395,55.916-44.34l23.24-92.186h10.04c14.507,0,25.6-11.096,25.6-25.607
			C512,267.168,500.907,256.072,486.4,256.072z M366.08,102.429h-48.64c3.413-10.243,13.653-17.072,24.747-17.072
			S362.667,92.186,366.08,102.429z M68.267,239c7.68,0,14.507,3.414,20.48,9.39c1.707,2.561,5.12,3.414,8.533,2.561
			c3.413-0.853,5.12-3.414,5.973-6.829c2.56-12.804,12.8-22.193,25.6-22.193c9.387,0,17.92,4.268,22.187,12.804
			c1.707,3.414,5.973,5.121,9.387,4.268h2.56c11.093,0,20.48,6.829,23.893,17.072H44.373C47.787,245.829,57.173,239,68.267,239z
			 M437.76,394.35c-5.12,18.778-22.187,32.436-41.813,32.436H117.76c-19.627,0-36.693-13.657-41.813-32.436L53.76,307.286h404.48
			L437.76,394.35z M486.4,290.214H25.6c-5.12,0-8.533-3.414-8.533-8.535s3.413-8.535,8.533-8.535h460.8
			c5.12,0,8.533,3.414,8.533,8.535S491.52,290.214,486.4,290.214z M307.2,157.91c5.12,0,8.533-3.414,8.533-8.535v-4.268
			c0-5.121-3.413-8.535-8.533-8.535s-8.533,3.414-8.533,8.535v4.268C298.667,154.496,302.08,157.91,307.2,157.91z M307.2,197.175
			c5.12,0,8.533-4.268,8.533-8.535v-9.39c0-5.121-3.413-8.535-8.533-8.535s-8.533,3.414-8.533,8.535v9.39
			C298.667,193.76,302.08,197.175,307.2,197.175z M307.2,230.465c5.12,0,8.533-3.414,8.533-8.535v-4.268
			c0-5.121-3.413-8.535-8.533-8.535s-8.533,3.414-8.533,8.535v4.268C298.667,227.05,302.08,230.465,307.2,230.465z M341.333,157.91
			c5.12,0,8.533-3.414,8.533-8.535v-4.268c0-5.121-3.413-8.535-8.533-8.535s-8.533,3.414-8.533,8.535v4.268
			C332.8,154.496,336.213,157.91,341.333,157.91z M332.8,188.639c0,5.121,3.413,8.535,8.533,8.535s8.533-4.268,8.533-8.535v-9.39
			c0-5.121-3.413-8.535-8.533-8.535s-8.533,3.414-8.533,8.535V188.639z M332.8,221.928c0,5.121,3.413,8.535,8.533,8.535
			s8.533-3.414,8.533-8.535v-4.268c0-5.121-3.413-8.535-8.533-8.535s-8.533,3.414-8.533,8.535V221.928z M384,149.375v-4.268
			c0-5.121-3.413-8.535-8.533-8.535s-8.533,3.414-8.533,8.535v4.268c-0.001,5.121,3.413,8.535,8.533,8.535S384,154.496,384,149.375z
			 M366.934,188.639h-0.001c0,5.121,3.413,8.535,8.533,8.535s8.534-4.267,8.534-8.535v-9.39c0-5.121-3.413-8.535-8.533-8.535
			s-8.533,3.414-8.533,8.535V188.639z M366.933,221.928c0,5.121,3.413,8.535,8.533,8.535s8.533-3.414,8.533-8.535v-4.268
			c0-5.121-3.413-8.535-8.533-8.535s-8.533,3.414-8.533,8.535V221.928z"/>
	</g>
</g>
</svg>
