<?xml version="1.0" encoding="utf-8"?>
<!-- Generator: Adobe Illustrator 16.0.0, SVG Export Plug-In . SVG Version: 6.00 Build 0)  -->
<!DOCTYPE svg PUBLIC "-//W3C//DTD SVG 1.1//EN" "http://www.w3.org/Graphics/SVG/1.1/DTD/svg11.dtd">
<svg version="1.1" id="Capa_1" xmlns="http://www.w3.org/2000/svg" xmlns:xlink="http://www.w3.org/1999/xlink" x="0px" y="0px"
	 width="612px" height="413.672px" viewBox="0 189.164 612 413.672" enable-background="new 0 189.164 612 413.672"
	 xml:space="preserve">
<g>
	<g>
		<path fill="#666666" d="M552.437,349.527v-0.655v-98.836c0-44.509-31.418-60.873-60.873-60.873H118.473
			c-29.455,0-60.873,15.709-60.873,60.873v98.836v0.655C28.146,352.8,0,372.437,0,417.6v77.236C0,507.928,10.473,518.4,23.563,518.4
			h7.854v60.872c0,13.091,10.473,23.563,23.564,23.563h22.254c13.091,0,23.563-10.473,23.563-23.563v-61.527h410.4v61.527
			c0,13.091,10.473,23.563,23.563,23.563h22.255c13.091,0,23.563-10.473,23.563-23.563v-61.527h7.854
			c13.091,0,23.563-10.473,23.563-23.563V417.6C610.036,372.437,581.891,352.8,552.437,349.527z M79.854,250.036h1.309
			c0-30.764,20.291-37.309,37.309-37.309h373.091c17.019,0,37.31,6.545,37.31,37.309v98.836H511.2v-56.291
			c0-13.091-10.473-23.564-23.563-23.564h-144c-13.091,0-23.564,10.473-23.564,23.564v56.291h-27.49v-56.291
			c0-13.091-10.473-23.564-23.564-23.564h-144c-13.091,0-23.563,10.473-23.563,23.564v56.291h-21.6V250.036z M487.637,292.582
			v56.291h-144v-56.291H487.637L487.637,292.582z M270.327,292.582v56.291h-144v-56.291H270.327L270.327,292.582z M76.582,579.272
			H54.327v-61.527h22.255V579.272z M555.709,579.272h-22.255v-61.527h22.255V579.272z M586.473,494.836h-30.764h-22.255H76.582
			H54.327H22.909v-34.69h563.563V494.836z M586.473,436.582H22.909V417.6c0-39.272,28.8-45.163,45.164-45.163h12.437h45.164h144
			h73.964h144h41.236h12.437c17.018,0,45.163,5.891,45.163,45.163V436.582L586.473,436.582z"/>
	</g>
</g>
</svg>
