<?xml version="1.0" encoding="utf-8"?>
<!-- Generator: Adobe Illustrator 17.0.0, SVG Export Plug-In . SVG Version: 6.00 Build 0)  -->
<!DOCTYPE svg PUBLIC "-//W3C//DTD SVG 1.1//EN" "http://www.w3.org/Graphics/SVG/1.1/DTD/svg11.dtd">
<svg version="1.1" id="Forma_1_1_" xmlns="http://www.w3.org/2000/svg" xmlns:xlink="http://www.w3.org/1999/xlink" x="0px" y="0px"
	 width="792px" height="459px" viewBox="0 0 792 459" enable-background="new 0 0 792 459" xml:space="preserve">
<g id="Forma_1">
	<g>
		<path fill="#FFFFFF" d="M633.262,236.915l-236.26,72.707L160.74,236.915v121.432C160.741,414.485,266.554,460,397.074,460
			c130.513,0,236.343-45.515,236.343-101.653c0-0.442-0.145-0.886-0.154-1.318L633.262,236.915L633.262,236.915z M633.261,210.448
			L793,153.327L397.001,1L1,153.326l84.404,30.188l7.193-15.402l31.008-2.636l4.421,4.6l-26.607,6.309L97.54,187.86
			c-0.007,0-60.102,125.616-51.276,187.067c0,0,37.511,22.372,75.006,0l9.964-168.015v-13.985l55.814-12.59l-3.942,9.706
			l-41.614,13.531l19.246,6.875L397,283.155L633.261,210.448z"/>
	</g>
</g>
</svg>
