<?xml version="1.0" encoding="utf-8"?>
<!-- Generator: Adobe Illustrator 16.0.0, SVG Export Plug-In . SVG Version: 6.00 Build 0)  -->
<!DOCTYPE svg PUBLIC "-//W3C//DTD SVG 1.1//EN" "http://www.w3.org/Graphics/SVG/1.1/DTD/svg11.dtd">
<svg version="1.1" id="Layer_1" xmlns="http://www.w3.org/2000/svg" xmlns:xlink="http://www.w3.org/1999/xlink" x="0px" y="0px"
	 width="612px" height="612px" viewBox="0 90 612 612" enable-background="new 0 90 612 612" xml:space="preserve">
<g>
	<path fill="#007CDC" d="M306,90C137.011,90,0,227.011,0,396c0,169.009,137.011,306,306,306c169.009,0,306-136.973,306-306
		C612,227.011,475.007,90,306,90z M306,644.624C168.683,644.624,57.376,533.316,57.376,396
		c0-137.317,111.307-248.624,248.624-248.624c137.316,0,248.624,111.307,248.624,248.624
		C554.624,533.316,443.316,644.624,306,644.624z M306.02,224.2c-21.917,0-38.5,11.438-38.5,29.912v169.447
		c0,18.493,16.581,29.893,38.5,29.893c21.382,0,38.499-11.877,38.499-29.893V254.111C344.517,236.076,327.401,224.2,306.02,224.2z
		 M306.02,491.625c-21.057,0-38.194,17.137-38.194,38.211c0,21.037,17.137,38.174,38.194,38.174s38.174-17.137,38.174-38.174
		C344.191,508.76,327.076,491.625,306.02,491.625z"/>
</g>
</svg>
