<?xml version="1.0" encoding="utf-8"?>
<!-- Generator: Adobe Illustrator 17.0.0, SVG Export Plug-In . SVG Version: 6.00 Build 0)  -->
<!DOCTYPE svg PUBLIC "-//W3C//DTD SVG 1.1//EN" "http://www.w3.org/Graphics/SVG/1.1/DTD/svg11.dtd">
<svg version="1.1" id="Forma_1_1_" xmlns="http://www.w3.org/2000/svg" xmlns:xlink="http://www.w3.org/1999/xlink" x="0px" y="0px"
	 width="449.589px" height="448px" viewBox="0 0 449.589 448" enable-background="new 0 0 449.589 448" xml:space="preserve">
<g id="Forma_1">
	<g>
		<path fill-rule="evenodd" clip-rule="evenodd" fill="#7699EA" d="M224.791,78.322c21.652,0,39.205-17.533,39.205-39.161
			S246.443-0.001,224.791-0.001s-39.205,17.533-39.205,39.161S203.138,78.322,224.791,78.322z M239.983,87.733
			c-0.185-0.005-0.37-0.01-0.555-0.013h-29.273c-30.019,0.564-53.896,25.329-53.332,55.315c0.003,0.185,0.008,0.37,0.013,0.555
			v8.354c0,4.178,1.568,8.877,6.272,8.877h123.365c4.705,0,6.272-4.699,6.272-8.877v-8.354
			C293.617,113.612,269.994,88.604,239.983,87.733z M54.903,260.028c4.33,0,7.841-3.507,7.841-7.832
			c-0.109-49.146,22.213-95.662,60.637-126.359c3.283-2.355,4.034-6.922,1.677-10.201c-0.193-0.269-0.404-0.524-0.631-0.764
			c-2.755-3.293-7.65-3.759-10.977-1.044c-41.971,33.695-66.385,84.582-66.387,138.368
			C47.063,256.522,50.573,260.028,54.903,260.028z M276.542,405.706c-33.449,10.961-69.529,10.961-102.978,0
			c-4.12-1.332-8.541,0.923-9.875,5.038c-0.02,0.061-0.039,0.122-0.057,0.183c-1.068,4.158,1.193,8.446,5.227,9.921
			c18.064,5.866,36.938,8.861,55.932,8.877c19.38,0.019,38.632-3.156,56.978-9.399c3.847-1.985,5.356-6.71,3.369-10.553
			C283.517,406.639,279.997,404.974,276.542,405.706z M318.259,120.024c0.033,0.023,0.067,0.046,0.101,0.069
			c42.863,30.387,68.374,79.6,68.478,132.103c0,4.325,3.511,7.832,7.841,7.832c4.33,0,7.841-3.507,7.841-7.832
			c-0.144-57.69-28.181-111.757-75.274-145.156c-3.656-2.206-8.389-1.305-10.977,2.089
			C313.806,112.687,314.697,117.565,318.259,120.024z M67.971,365.502c21.652,0,39.205-17.533,39.205-39.161
			s-17.553-39.161-39.205-39.161s-39.205,17.533-39.205,39.161S46.319,365.502,67.971,365.502z M83.163,374.913
			c-0.185-0.005-0.37-0.01-0.555-0.013H53.335c-30.019,0.564-53.897,25.329-53.332,55.315c0.003,0.185,0.008,0.37,0.013,0.555v8.354
			c0,4.178,1.568,8.877,6.272,8.877h123.365c4.705,0,6.272-4.699,6.272-8.877v-8.354
			C136.798,400.791,113.175,375.784,83.163,374.913z M342.405,326.34c0,21.628,17.553,39.161,39.205,39.161
			s39.205-17.533,39.205-39.161s-17.553-39.161-39.205-39.161S342.405,304.712,342.405,326.34z M396.802,374.913
			c-0.185-0.005-0.37-0.01-0.555-0.013h-29.273c-30.019,0.564-53.896,25.329-53.332,55.315c0.003,0.185,0.008,0.37,0.013,0.555
			v8.354c0,4.178,1.568,8.877,6.272,8.877h123.366c4.705,0,6.272-4.699,6.272-8.877v-8.354
			C450.437,400.791,426.814,375.784,396.802,374.913z"/>
	</g>
</g>
</svg>
