<?xml version="1.0" encoding="utf-8"?>
<!-- Generator: Adobe Illustrator 17.0.0, SVG Export Plug-In . SVG Version: 6.00 Build 0)  -->
<!DOCTYPE svg PUBLIC "-//W3C//DTD SVG 1.1//EN" "http://www.w3.org/Graphics/SVG/1.1/DTD/svg11.dtd">
<svg version="1.1" id="Forma_1_1_" xmlns="http://www.w3.org/2000/svg" xmlns:xlink="http://www.w3.org/1999/xlink" x="0px" y="0px"
	 width="510px" height="507px" viewBox="0 0 510 507" enable-background="new 0 0 510 507" xml:space="preserve">
<g id="Forma_1">
	<g>
		<path fill="#FFFFFF" d="M255,430.568c-99.45,0-178.5-78.98-178.5-178.342c0-89.171,66.3-163.056,153-175.795V-0.001
			C99.45,10.19,0,119.743,0,252.226c0,140.126,114.75,254.775,255,254.775c84.15,0,158.1-40.764,206.55-104.458l-66.3-38.216
			C362.1,405.091,311.1,430.568,255,430.568z M280.5-0.001v76.432c86.7,12.739,153,86.623,153,175.795
			c0,22.93-5.1,43.312-12.75,63.694l66.3,38.216c15.3-30.573,22.95-66.241,22.95-104.458C510,119.743,410.55,12.738,280.5-0.001z"/>
	</g>
</g>
<image display="none" overflow="visible" width="352" height="94" xlink:href="6169C893.jpg"  transform="matrix(1 0 0 1 79 206)">
</image>
</svg>
