<?xml version="1.0" encoding="utf-8"?>
<!-- Generator: Adobe Illustrator 17.0.0, SVG Export Plug-In . SVG Version: 6.00 Build 0)  -->
<!DOCTYPE svg PUBLIC "-//W3C//DTD SVG 1.1//EN" "http://www.w3.org/Graphics/SVG/1.1/DTD/svg11.dtd">
<svg version="1.1" id="Forma_1_1_" xmlns="http://www.w3.org/2000/svg" xmlns:xlink="http://www.w3.org/1999/xlink" x="0px" y="0px"
	 width="55px" height="53px" viewBox="0 0 55 53" enable-background="new 0 0 55 53" xml:space="preserve">
<g id="Forma_1">
	<g>
		<path fill-rule="evenodd" clip-rule="evenodd" fill="#8ADA85" d="M51.672,22.006H40.777c-0.553,0-1,0.447-1,1c0,0.553,0.447,1,1,1
			h9.099l2.898,26.995H2.267l3.402-26.995h9.115c0.553,0,1-0.447,1-1c0-0.553-0.447-1-1-1H3.906L0,53H55L51.672,22.006z
			 M17.474,44.153c-0.586,0.275-1.183,0.53-1.773,0.759c-0.515,0.198-0.771,0.777-0.572,1.293c0.153,0.396,0.531,0.64,0.933,0.64
			c0.12,0,0.242-0.021,0.36-0.067c0.635-0.245,1.275-0.519,1.902-0.813c0.5-0.234,0.715-0.83,0.48-1.33
			C18.57,44.134,17.978,43.917,17.474,44.153z M36.587,36.563c0.021,0.538,0.465,0.959,0.998,0.959c0.014,0,0.028,0,0.042-0.001
			l2.001-0.082c0.552-0.025,0.979-0.493,0.954-1.044c-0.025-0.553-0.504-1.004-1.045-0.954l-1.992,0.082
			C36.993,35.546,36.564,36.012,36.587,36.563z M31.417,36.162c-0.54,0.114-0.884,0.646-0.769,1.187
			c0.1,0.47,0.515,0.791,0.977,0.791c0.069,0,0.14-0.007,0.21-0.022c0.586-0.124,1.221-0.229,1.885-0.313
			c0.548-0.067,0.938-0.567,0.869-1.115c-0.068-0.549-0.562-0.95-1.115-0.869C32.752,35.91,32.059,36.025,31.417,36.162z
			 M22.426,41.167c-0.514,0.388-1.045,0.761-1.58,1.107c-0.463,0.301-0.595,0.92-0.294,1.384c0.191,0.295,0.513,0.455,0.84,0.455
			c0.187,0,0.375-0.052,0.544-0.161c0.573-0.372,1.144-0.772,1.695-1.188c0.44-0.333,0.528-0.96,0.196-1.401
			C23.494,40.926,22.869,40.835,22.426,41.167z M9.991,47.83c0.216,0.057,0.436,0.098,0.653,0.124
			c0.256,0.031,0.512,0.047,0.769,0.047c0.312,0,0.626-0.022,0.939-0.062c0.548-0.069,0.937-0.569,0.867-1.117
			c-0.068-0.548-0.566-0.933-1.117-0.867c-0.403,0.052-0.811,0.064-1.215,0.015c-0.133-0.017-0.265-0.042-0.396-0.075
			c-0.533-0.143-1.08,0.183-1.218,0.718C9.135,47.147,9.456,47.693,9.991,47.83z M46.674,31.754
			c-0.164,0.527,0.132,1.088,0.659,1.251c0.099,0.03,0.198,0.045,0.296,0.045c0.427,0,0.822-0.275,0.955-0.704
			c0.099-0.317,0.16-0.64,0.183-0.964c0.005-0.083,0.008-0.166,0.008-0.25c0-0.467-0.086-0.935-0.255-1.39
			c-0.192-0.519-0.771-0.781-1.285-0.59c-0.519,0.192-0.782,0.768-0.59,1.285c0.086,0.232,0.13,0.466,0.13,0.694l-0.004,0.116
			C46.76,31.414,46.727,31.583,46.674,31.754z M10.198,39.99c0.161,0,0.324-0.039,0.476-0.121c0.29-0.157,0.597-0.255,0.913-0.289
			c0.135-0.016,0.273-0.016,0.406,0.002c0.563,0.07,1.05-0.314,1.122-0.86c0.072-0.548-0.313-1.05-0.86-1.122
			c-0.298-0.04-0.601-0.041-0.891-0.008c-0.572,0.063-1.126,0.238-1.643,0.52c-0.485,0.264-0.666,0.87-0.402,1.355
			C9.499,39.801,9.843,39.99,10.198,39.99z M43.36,35.1c-0.541,0.111-0.889,0.641-0.777,1.182c0.098,0.473,0.514,0.798,0.979,0.798
			c0.066,0,0.135-0.007,0.203-0.021c0.844-0.174,1.528-0.451,2.071-0.835c0.059-0.039,0.114-0.08,0.169-0.122
			c0.436-0.339,0.479-0.941,0.14-1.378c-0.337-0.435-1.002-0.49-1.438-0.149C44.365,34.814,43.938,34.981,43.36,35.1z M8.857,42.39
			c0.145-0.533-0.171-1.082-0.704-1.226c-0.529-0.148-1.082,0.169-1.226,0.704c-0.126,0.464-0.201,0.938-0.225,1.406
			c-0.005,0.115-0.008,0.231-0.008,0.347c0,0.197,0.009,0.395,0.028,0.592c0.053,0.515,0.487,0.898,0.994,0.898
			c0.033,0,0.067-0.002,0.103-0.005c0.549-0.057,0.949-0.547,0.894-1.097c-0.014-0.129-0.019-0.26-0.019-0.389
			c0-0.083,0.003-0.166,0.007-0.248C8.717,43.047,8.769,42.716,8.857,42.39z M44.684,26.802c-0.789-0.106-1.607-0.04-2.385,0.18
			c-0.532,0.149-0.841,0.702-0.69,1.233c0.124,0.441,0.525,0.729,0.961,0.729c0.091,0,0.182-0.012,0.272-0.038
			c0.517-0.145,1.055-0.19,1.575-0.121c0.562,0.073,1.052-0.311,1.125-0.857C45.615,27.379,45.231,26.876,44.684,26.802z
			 M26.647,37.958c-0.147,0.087-0.307,0.165-0.447,0.256c-0.219,0.142-0.432,0.29-0.641,0.441c-0.446,0.325-0.545,0.951-0.22,1.397
			c0.196,0.269,0.501,0.411,0.81,0.411c0.204,0,0.41-0.063,0.588-0.191c0.18-0.132,0.363-0.259,0.552-0.382
			c0.316-0.205,0.656-0.399,1.01-0.577c0.47-0.236,0.661-0.792,0.464-1.271c0.008-0.008,0.018-0.014,0.026-0.023
			c1.808-1.916,7.903-9.094,10.426-21.054c0.512-2.425,0.627-4.753,0.342-6.917C38.696,3.475,34.612,0,27.746,0
			c-6.864,0-10.948,3.475-11.809,10.049c-0.284,2.166-0.169,4.492,0.343,6.917C18.778,28.813,24.78,35.966,26.647,37.958z
			 M27.746,4.23c4.05,0,7.344,3.294,7.344,7.344c0,4.05-3.294,7.345-7.344,7.345c-4.05,0-7.344-3.294-7.344-7.345
			C20.403,7.524,23.697,4.23,27.746,4.23z"/>
	</g>
</g>
</svg>
