<?xml version="1.0" encoding="utf-8"?>
<!-- Generator: Adobe Illustrator 17.0.0, SVG Export Plug-In . SVG Version: 6.00 Build 0)  -->
<!DOCTYPE svg PUBLIC "-//W3C//DTD SVG 1.1//EN" "http://www.w3.org/Graphics/SVG/1.1/DTD/svg11.dtd">
<svg version="1.1" id="L0001_xA0_Image_1_" xmlns="http://www.w3.org/2000/svg" xmlns:xlink="http://www.w3.org/1999/xlink" x="0px"
	 y="0px" width="1022.07px" height="1022.07px" viewBox="0 0 1022.07 1022.07" enable-background="new 0 0 1022.07 1022.07"
	 xml:space="preserve">
<g>
	<g>
		<path fill="#FFFFFF" d="M1022.07,443.163c0,10.647,0,21.293,0,31.94c-4.863,7.759-9.11,15.997-14.708,23.183
			c-14.683,18.849-40.506,36.386-42.096,56.046c-1.671,20.671,19.785,43.117,30.848,64.934
			c16.646,32.828,6.255,65.984-26.401,82.766c-17.712,9.102-35.843,17.471-54.18,25.237c-10.15,4.298-13.93,9.912-12.247,21.263
			c2.728,18.387,3.754,37.031,5.373,55.578c3.329,38.131-20.78,65.826-58.955,67.504c-19.27,0.847-38.585,2.059-57.833,1.506
			c-12.304-0.354-17.54,4.684-20.907,15.765c-5.787,19.04-12.213,37.952-19.616,56.419c-12.955,32.315-44.032,45.81-76.721,33.561
			c-18.023-6.754-36.11-13.694-53.217-22.415c-12.299-6.27-19.209-3.86-28.737,5.743c-20.839,21.001-43.656,40.039-65.666,59.879
			c-11.977,0-23.955,0-35.932,0c-24.996-23.311-49.993-46.621-76.18-71.042c-9.402,3.862-20.384,8.342-31.341,12.884
			c-11.648,4.829-23.143,10.054-34.929,14.515c-34.359,13.005-65.814-1.12-79.189-35.387c-2.409-6.173-4.268-12.559-6.436-18.827
			c-17.241-49.838-17.245-49.836-69.288-51.787c-7.307-0.274-14.621-0.425-21.919-0.853c-38.643-2.265-62.11-29.41-58.563-67.65
			c1.718-18.525,2.686-37.16,5.417-55.534c1.69-11.37-2.216-16.914-12.309-21.193c-17.707-7.508-35.094-15.832-52.301-24.443
			c-34.726-17.38-45.361-51.168-27.096-85.324c8.767-16.393,17.212-33.019,27.058-48.753c6.296-10.06,5.647-16.827-2.085-26.13
			C33.792,520.742,17.207,497.664,0,475.103c0-9.316,0-18.631,0-27.947c8.252-11.748,14.913-25.17,25.116-34.864
			c16.768-15.931,45.699-26.469,51.223-44.792c5.808-19.264-9.952-44.977-16.121-67.916c-10.631-39.529,7.604-69.672,47.8-79.113
			c18.1-4.251,36.52-7.453,54.187-13.048c5.682-1.8,12.269-9.125,13.52-14.976c3.88-18.141,5.61-36.762,7.781-55.243
			c4.914-41.834,34.235-63.737,75.268-55.917c8.481,1.616,16.919,3.454,25.38,5.171c42.575,8.639,42.578,8.638,65.535-29.318
			c4.815-7.961,9.466-16.026,14.432-23.891C384.876,0.38,419.373-7.216,451.675,14.22c16.058,10.656,32.23,21.259,47.365,33.14
			c9.136,7.171,15.733,6.461,24.442-0.228c14.22-10.922,29.211-20.853,44.018-30.996c34.9-23.905,69.116-16.668,91.71,19.495
			c9.858,15.778,18.496,32.392,29.335,47.439c3.543,4.918,12.631,9.087,18.599,8.414c19.082-2.151,37.871-6.832,56.806-10.357
			c39.901-7.429,69.563,14.547,74.436,54.87c2.233,18.474,5.342,36.861,6.939,55.384c0.88,10.201,4.328,14.897,15.019,16.875
			c20.863,3.861,41.579,8.946,61.963,14.876c32.367,9.417,48.773,38.606,40.42,71.417c-4.91,19.286-10.28,38.552-17.106,57.219
			c-4.389,12.001-1.598,18.382,7.977,26.683C977.307,399,999.355,421.466,1022.07,443.163z M514.58,258.5
			c-139.927-0.239-254.451,113.233-254.969,252.625c-0.522,140.696,113.643,255.616,254.053,255.733
			c140.807,0.117,255.354-114.362,254.979-254.829C768.27,372.047,654.723,258.739,514.58,258.5z"/>
		<path fill="#FFFFFF" d="M514.054,318.502c107.411-0.142,193.773,85.809,194.436,193.511
			c0.657,106.687-86.445,194.474-193.311,194.833c-107.951,0.362-195.75-87.028-195.607-194.694
			C319.714,405.37,406.813,318.643,514.054,318.502z M467.541,553.492c-5.131-6.437-9.063-11.842-13.497-16.798
			c-4.428-4.95-9.215-9.605-14.097-14.117c-15.836-14.635-33.153-15.317-45.741-1.964c-11.654,12.361-10.583,29.613,3.535,44.341
			c14.728,15.365,29.855,30.36,45.102,45.214c19.301,18.804,33.536,18.741,53.044-0.553c31.692-31.342,63.108-62.964,94.583-94.525
			c13.619-13.656,27.713-26.91,40.45-41.353c11.336-12.854,10.533-27.352-1.29-39.488c-11.827-12.141-25.962-12.471-39.674-2.606
			c-5.344,3.845-9.796,8.967-14.493,13.669C540.276,480.536,505.13,515.802,467.541,553.492z"/>
	</g>
</g>
</svg>
