<?xml version="1.0" encoding="utf-8"?>
<!-- Generator: Adobe Illustrator 16.0.0, SVG Export Plug-In . SVG Version: 6.00 Build 0)  -->
<!DOCTYPE svg PUBLIC "-//W3C//DTD SVG 1.1//EN" "http://www.w3.org/Graphics/SVG/1.1/DTD/svg11.dtd">
<svg version="1.1" id="Capa_1" xmlns="http://www.w3.org/2000/svg" xmlns:xlink="http://www.w3.org/1999/xlink" x="0px" y="0px"
	 width="612.002px" height="638.061px" viewBox="0 0 612.002 638.061" enable-background="new 0 0 612.002 638.061"
	 xml:space="preserve">
<g>
	<g id="_x35__40_">
		<g>
			<path fill="#747474" d="M321.632,319.031c-0.585,7.522,1.7,15.204,7.469,20.945l237.145,236.746
				c10.473,10.445,27.431,10.445,37.902,0c10.473-10.445,10.473-27.377,0-37.85L383.934,319.031L604.147,99.188
				c10.473-10.445,10.473-27.377,0-37.822c-10.473-10.443-27.431-10.443-37.902,0L329.1,298.112
				C323.332,303.854,321.072,311.507,321.632,319.031z M7.51,339.976l290.757,290.252c10.472,10.444,27.43,10.444,37.903,0
				c10.473-10.447,10.473-27.404,0-37.824L62.344,319.031L336.171,45.685c10.473-10.447,10.473-27.377,0-37.85
				c-10.474-10.447-27.432-10.447-37.903,0L7.539,298.083c-5.768,5.742-8.025,13.426-7.44,20.947
				C-0.516,326.553,1.77,334.234,7.51,339.976z"/>
		</g>
	</g>
</g>
</svg>
