<?xml version="1.0" encoding="utf-8"?>
<!-- Generator: Adobe Illustrator 16.0.0, SVG Export Plug-In . SVG Version: 6.00 Build 0)  -->
<!DOCTYPE svg PUBLIC "-//W3C//DTD SVG 1.1//EN" "http://www.w3.org/Graphics/SVG/1.1/DTD/svg11.dtd">
<svg version="1.1" id="Layer_1" xmlns="http://www.w3.org/2000/svg" xmlns:xlink="http://www.w3.org/1999/xlink" x="0px" y="0px"
	 width="510px" height="612px" viewBox="0 0 510 612" enable-background="new 0 0 510 612" xml:space="preserve">
<g>
	<g>
		<g>
			<path fill="#FFFFFF" d="M459,0H91.8C66.851,0,46.114,18.034,41.738,41.738C18.034,46.114,0,66.851,0,91.8V561
				c0,28.121,22.878,51,51,51h367.2c24.949,0,45.686-18.033,50.062-41.738C491.967,565.886,510,545.149,510,520.2V51
				C510,22.878,487.121,0,459,0z M448.8,561c0,16.871-13.729,30.6-30.6,30.6H51c-16.871,0-30.6-13.729-30.6-30.6V91.8
				c0-16.871,13.729-30.6,30.6-30.6h306v81.6c0,5.641,4.56,10.2,10.2,10.2h81.6V561L448.8,561z M377.4,132.6V75.623l56.977,56.977
				H377.4z M489.6,520.2c0,13.28-8.558,24.5-20.398,28.723V142.8c0-2.825-1.152-5.375-2.999-7.222l-91.771-91.769
				c-1.855-1.856-4.405-3.009-7.23-3.009H63.077C67.3,28.958,78.52,20.4,91.8,20.4H459c16.871,0,30.6,13.729,30.6,30.6V520.2z"/>
		</g>
	</g>
	<g>
		<g>
			<path fill="#FFFFFF" d="M234.6,91.8c-28.121,0-51,22.879-51,51c0,28.122,22.878,51,51,51c28.122,0,51-22.878,51-51
				C285.6,114.679,262.722,91.8,234.6,91.8z M234.6,173.4c-16.871,0-30.6-13.729-30.6-30.6s13.729-30.6,30.6-30.6
				s30.601,13.729,30.601,30.6S251.471,173.4,234.6,173.4z"/>
		</g>
	</g>
	<g>
		<g>
			<rect x="51" y="224.4" fill="#FFFFFF" width="102" height="20.399"/>
		</g>
	</g>
	<g>
		<g>
			<rect x="183.6" y="224.4" fill="#FFFFFF" width="30.6" height="20.399"/>
		</g>
	</g>
	<g>
		<g>
			<rect x="255" y="224.4" fill="#FFFFFF" width="102" height="20.399"/>
		</g>
	</g>
	<g>
		<g>
			<rect x="387.6" y="224.4" fill="#FFFFFF" width="30.602" height="20.399"/>
		</g>
	</g>
	<g>
		<g>
			<rect x="51" y="265.2" fill="#FFFFFF" width="102" height="20.399"/>
		</g>
	</g>
	<g>
		<g>
			<rect x="183.6" y="265.2" fill="#FFFFFF" width="30.6" height="20.399"/>
		</g>
	</g>
	<g>
		<g>
			<rect x="255" y="265.2" fill="#FFFFFF" width="102" height="20.399"/>
		</g>
	</g>
	<g>
		<g>
			<rect x="387.6" y="265.2" fill="#FFFFFF" width="30.602" height="20.399"/>
		</g>
	</g>
	<g>
		<g>
			<rect x="51" y="306" fill="#FFFFFF" width="102" height="20.4"/>
		</g>
	</g>
	<g>
		<g>
			<rect x="183.6" y="306" fill="#FFFFFF" width="30.6" height="20.4"/>
		</g>
	</g>
	<g>
		<g>
			<rect x="255" y="306" fill="#FFFFFF" width="102" height="20.4"/>
		</g>
	</g>
	<g>
		<g>
			<rect x="387.6" y="306" fill="#FFFFFF" width="30.602" height="20.4"/>
		</g>
	</g>
	<g>
		<g>
			<rect x="51" y="346.8" fill="#FFFFFF" width="102" height="20.4"/>
		</g>
	</g>
	<g>
		<g>
			<rect x="183.6" y="346.8" fill="#FFFFFF" width="30.6" height="20.4"/>
		</g>
	</g>
	<g>
		<g>
			<rect x="255" y="346.8" fill="#FFFFFF" width="102" height="20.4"/>
		</g>
	</g>
	<g>
		<g>
			<rect x="387.6" y="346.8" fill="#FFFFFF" width="30.602" height="20.4"/>
		</g>
	</g>
	<g>
		<g>
			<rect x="51" y="408" fill="#FFFFFF" width="102" height="20.4"/>
		</g>
	</g>
	<g>
		<g>
			<rect x="183.6" y="408" fill="#FFFFFF" width="30.6" height="20.4"/>
		</g>
	</g>
	<g>
		<g>
			<rect x="255" y="408" fill="#FFFFFF" width="102" height="20.4"/>
		</g>
	</g>
	<g>
		<g>
			<rect x="387.6" y="408" fill="#FFFFFF" width="30.602" height="20.4"/>
		</g>
	</g>
	<g>
		<g>
			<rect x="51" y="448.8" fill="#FFFFFF" width="102" height="20.4"/>
		</g>
	</g>
	<g>
		<g>
			<rect x="183.6" y="448.8" fill="#FFFFFF" width="30.6" height="20.4"/>
		</g>
	</g>
	<g>
		<g>
			<rect x="255" y="448.8" fill="#FFFFFF" width="102" height="20.4"/>
		</g>
	</g>
	<g>
		<g>
			<rect x="387.6" y="448.8" fill="#FFFFFF" width="30.602" height="20.4"/>
		</g>
	</g>
	<g>
		<g>
			<rect x="51" y="489.6" fill="#FFFFFF" width="102" height="20.4"/>
		</g>
	</g>
	<g>
		<g>
			<rect x="183.6" y="489.6" fill="#FFFFFF" width="30.6" height="20.4"/>
		</g>
	</g>
	<g>
		<g>
			<rect x="255" y="489.6" fill="#FFFFFF" width="102" height="20.4"/>
		</g>
	</g>
	<g>
		<g>
			<rect x="387.6" y="489.6" fill="#FFFFFF" width="30.602" height="20.4"/>
		</g>
	</g>
	<g>
		<g>
			<rect x="51" y="530.4" fill="#FFFFFF" width="102" height="20.398"/>
		</g>
	</g>
	<g>
		<g>
			<rect x="183.6" y="530.4" fill="#FFFFFF" width="30.6" height="20.398"/>
		</g>
	</g>
	<g>
		<g>
			<rect x="255" y="530.4" fill="#FFFFFF" width="102" height="20.398"/>
		</g>
	</g>
	<g>
		<g>
			<rect x="387.6" y="530.4" fill="#FFFFFF" width="30.602" height="20.398"/>
		</g>
	</g>
</g>
</svg>
