<?xml version="1.0" encoding="utf-8"?>
<!-- Generator: Adobe Illustrator 16.0.0, SVG Export Plug-In . SVG Version: 6.00 Build 0)  -->
<!DOCTYPE svg PUBLIC "-//W3C//DTD SVG 1.1//EN" "http://www.w3.org/Graphics/SVG/1.1/DTD/svg11.dtd">
<svg version="1.1" id="Capa_1" xmlns="http://www.w3.org/2000/svg" xmlns:xlink="http://www.w3.org/1999/xlink" x="0px" y="0px"
	 width="39.057px" height="27.643px" viewBox="0 0 39.057 27.643" enable-background="new 0 0 39.057 27.643" xml:space="preserve">
<g>
	<g>
		<path fill="#2C77DA" d="M38.831,8.552c-0.19-0.231-0.477-0.367-0.774-0.367h-3.802c-0.938-2.476-2.159-4.898-3.549-5.813
			c-4.806-3.161-17.551-3.161-22.354,0C6.961,3.288,5.745,5.715,4.801,8.185H1c-0.302,0-0.586,0.136-0.774,0.367
			C0.036,8.785-0.041,9.092,0.021,9.386l0.563,2.729c0.097,0.465,0.506,0.797,0.979,0.797h1.126
			c-1.087,1.254-1.613,2.833-1.621,4.413c-0.007,1.952,0.733,3.716,2.09,4.964c0.015,0.013,0.029,0.022,0.044,0.035v3.817
			c0,0.825,0.672,1.5,1.5,1.5h3.506c0.828,0,1.5-0.675,1.5-1.5v-1.534h19.642v1.534c0,0.825,0.672,1.5,1.5,1.5h3.506
			c0.826,0,1.5-0.675,1.5-1.5V22.4c1.438-1.317,2.125-3.129,2.134-4.938c0.007-1.634-0.545-3.271-1.695-4.551h1.201
			c0.476,0,0.885-0.332,0.979-0.798l0.563-2.729C39.094,9.092,39.021,8.787,38.831,8.552z M9.998,4.876
			c3.83-2.521,15.229-2.521,19.058,0c0.743,0.488,1.7,2.461,2.577,4.877H7.422C8.297,7.338,9.254,5.366,9.998,4.876z M5.512,17.701
			c0-1.63,1.321-2.95,2.95-2.95c1.632,0,2.951,1.32,2.951,2.95s-1.319,2.951-2.951,2.951C6.834,20.652,5.512,19.331,5.512,17.701z
			 M30.631,20.652c-1.629,0-2.95-1.321-2.95-2.951s1.321-2.95,2.95-2.95c1.632,0,2.951,1.32,2.951,2.95S32.26,20.652,30.631,20.652z
			"/>
	</g>
</g>
</svg>
