<?xml version="1.0" encoding="utf-8"?>
<!-- Generator: Adobe Illustrator 16.0.0, SVG Export Plug-In . SVG Version: 6.00 Build 0)  -->
<!DOCTYPE svg PUBLIC "-//W3C//DTD SVG 1.1//EN" "http://www.w3.org/Graphics/SVG/1.1/DTD/svg11.dtd">
<svg version="1.1" id="Capa_1" xmlns="http://www.w3.org/2000/svg" xmlns:xlink="http://www.w3.org/1999/xlink" x="0px" y="0px"
	 width="606.818px" height="612px" viewBox="0 0 606.818 612" enable-background="new 0 0 606.818 612" xml:space="preserve">
<g>
	<g>
		<path fill="#FFFFFF" d="M495.233,388.965c-35.433,0-66.685,16.88-87.104,42.73l-189.385-96.854
			c2.479-9.247,4.261-18.802,4.261-28.857c0-10.946-2.117-21.252-5.07-31.28l188.55-96.405c20.306,27.02,52.367,44.68,88.772,44.68
			c61.672,0,111.56-49.888,111.56-111.502C606.82,49.916,556.933,0,495.262,0c-61.53,0-111.475,49.916-111.475,111.475
			c0,10.084,1.783,19.666,4.29,28.941l-189.359,96.852c-20.445-25.876-51.755-42.813-87.242-42.813
			c-61.616,0-111.475,49.943-111.475,111.529c0,61.588,49.861,111.504,111.475,111.504c36.462,0,68.496-17.716,88.884-44.764
			l188.466,96.405c-2.953,10-5.097,20.39-5.097,31.365c0,61.587,49.942,111.503,111.475,111.503
			c61.671,0,111.559-49.916,111.559-111.503C606.792,438.854,556.904,388.965,495.233,388.965z"/>
	</g>
</g>
</svg>
