<?xml version="1.0" encoding="utf-8"?>
<!-- Generator: Adobe Illustrator 17.0.0, SVG Export Plug-In . SVG Version: 6.00 Build 0)  -->
<!DOCTYPE svg PUBLIC "-//W3C//DTD SVG 1.1//EN" "http://www.w3.org/Graphics/SVG/1.1/DTD/svg11.dtd">
<svg version="1.1" id="L0001_xA0_Image_1_" xmlns="http://www.w3.org/2000/svg" xmlns:xlink="http://www.w3.org/1999/xlink" x="0px"
	 y="0px" width="1027.969px" height="1028.405px" viewBox="0 0 1027.969 1028.405" enable-background="new 0 0 1027.969 1028.405"
	 xml:space="preserve">
<g>
	<g>
		<path fill="#FFFFFF" d="M4.001,888.203c0-268.061,0-536.122,0-804.183c11.035-14.355,25.613-18.648,43.453-18.004
			c29.245,1.056,58.556,0.285,87.84,0.285c16.322,0,32.645,0,48.4,0c7.021-49.145,7.021-49.145,20.353-62.3
			c8.002,0,16.004,0,24.005,0c22.23,14.82,16.938,39.138,18.883,60.481c40.478,0,79.002,0,118.717,0
			c0.377-23.033-2.627-45.789,18.435-60.481c8.002,0,16.004,0,24.005,0c22.23,14.82,16.938,39.139,18.883,60.481
			c40.474,0,78.999,0,118.717,0c0.376-23.033-2.627-45.789,18.435-60.481c8.002,0,16.004,0,24.005,0
			c22.23,14.82,16.938,39.138,18.883,60.481c40.474,0,78.999,0,118.717,0c0.376-23.033-2.627-45.789,18.435-60.481
			c8.002,0,16.004,0,24.005,0c22.401,14.807,16.666,39.482,19.199,62.3c11.269,0,20.584-0.732,29.752,0.123
			c47.188,4.399,95.483-9.91,141.832,8.364c20.063,46.741,7.657,95.736,8.546,143.519c2.157,115.962,0.333,231.993,1.221,347.988
			c0.098,12.824,4.753,27.301,11.782,38.088c27.95,42.892,44.979,89.191,47.197,140.255
			c5.173,119.07-65.614,226.011-175.639,266.766c-111.389,41.26-234.219,5.918-307.873-89.654
			c-8.544-11.087-17.173-13.813-30.035-13.785c-156.001,0.351-312.005-0.01-468.005,0.543
			C27.799,908.572,13.694,904.053,4.001,888.203z M907.547,307.958c-281.973,0-562.118,0-842.414,0c0,180.649,0,359.633,0,539.259
			c146.068,0,291.001,0,436.856,0c-4.719-20.279-9.169-39.399-13.504-58.024c-47.585-3.315-60.737-9.07-59.812-29.32
			c1.899-41.556,36.841-28.304,60.189-32.946c4.447-19.856,8.627-38.52,13.179-58.845c-15.039,0-28.984,0.508-42.877-0.125
			c-18.521-0.844-30.989-13.359-30.939-29.938c0.05-16.555,12.563-29.04,31.16-29.679c18.643-0.641,37.457-1.519,55.942,0.295
			c12.904,1.267,19.838-2.333,27.694-12.651c83.902-110.203,230.027-139.607,350.659-71.362c4.196,2.374,8.687,4.224,13.866,6.716
			C907.547,455.951,907.547,382.741,907.547,307.958z M548.15,757.819c-0.15,115.512,94.233,210.207,209.676,210.37
			c115.465,0.162,210.218-94.297,210.367-209.715c0.149-115.513-94.24-210.177-209.709-210.32
			C642.914,548.011,548.3,642.324,548.15,757.819z M65.148,244.834c281.656,0,561.788,0,841.917,0c0-39.925,0-78.331,0-116.746
			c-40.635,0-80.085,0-119.533,0c-3.841,23.189,5.848,54.329-28.56,56.442c-40.859,2.509-29.442-33.656-34.715-56.956
			c-39.314,0-77.582,0-116.307,0c-4.957,22.575,6.082,55.26-29.596,57.046c-40.69,2.036-28.397-34.608-34.333-56.864
			c-39.595,0-77.868,0-116.732,0c-3.589,23.946,6.098,57.067-31.521,56.903c-37.557-0.163-26.572-33.968-31.364-56.679
			c-39.394,0-78.148,0-116.993,0c-3.834,23.67,5.821,55.764-30.299,56.697c-39.261,1.014-27.653-34.16-33.018-57.294
			c-39.807,0-78.8,0-118.946,0C65.148,166.531,65.148,204.939,65.148,244.834z"/>
		<path fill="#FFFFFF" d="M486.207,427.9c-9.976,0.01-20.018,0.744-29.912-0.154c-16.928-1.535-29.004-14.749-27.902-30.551
			c1.178-16.895,10.972-27.586,27.693-28.6c21.204-1.286,42.583-1.127,63.812-0.077c16.918,0.837,29.038,14.677,27.911,30.438
			c-1.207,16.878-10.998,26.988-27.708,28.714C508.915,428.826,497.513,427.89,486.207,427.9z"/>
		<path fill="#FFFFFF" d="M726.617,428.025c-9.311-0.019-18.652,0.46-27.927-0.12c-18.302-1.144-30.689-13.823-30.39-30.364
			c0.286-15.803,12.195-28.423,29.468-29.147c19.918-0.835,39.918-0.785,59.844-0.054c18.307,0.672,30.728,13.757,30.402,30.271
			c-0.327,16.528-12.815,28.433-31.471,29.347C746.59,428.445,736.594,428.044,726.617,428.025z"/>
		<path fill="#FFFFFF" d="M489.665,488.182c9.311,0.019,18.652-0.455,27.928,0.119c18.288,1.132,30.711,13.859,30.364,30.374
			c-0.333,15.838-12.197,28.4-29.515,29.136c-19.917,0.846-39.919,0.799-59.843,0.051c-18.3-0.688-30.672-13.786-30.352-30.328
			c0.319-16.503,12.838-28.397,31.492-29.285C469.693,487.773,479.689,488.163,489.665,488.182z"/>
		<path fill="#FFFFFF" d="M246.501,368.204c9.955,0,19.948-0.56,29.856,0.124c17.445,1.204,28.901,13.07,29.173,29.215
			c0.272,16.14-11,29.322-28.108,30.122c-21.188,0.991-42.528,1.249-63.672-0.149c-16.683-1.103-26.287-11.89-27.079-28.911
			c-0.752-16.139,10.894-28.806,27.989-30.179c10.55-0.847,21.223-0.157,31.841-0.157
			C246.501,368.246,246.501,368.225,246.501,368.204z"/>
		<path fill="#FFFFFF" d="M247.732,488.305c9.954,0,19.967-0.693,29.849,0.154c17.064,1.463,28.675,14.191,27.833,30.331
			c-0.888,17.011-10.557,27.707-27.241,28.773c-21.149,1.351-42.487,1.134-63.672,0.112c-17.076-0.824-28.275-14.093-27.923-30.265
			c0.351-16.142,11.822-27.929,29.306-29.062c10.574-0.685,21.229-0.126,31.848-0.126
			C247.731,488.25,247.731,488.278,247.732,488.305z"/>
		<path fill="#FFFFFF" d="M244.738,667.993c-9.954-0.02-19.962,0.637-29.851-0.165c-17.167-1.393-28.493-13.858-28.34-30.004
			c0.153-16.155,11.573-28.629,28.95-29.348c20.537-0.85,41.171-0.902,61.699,0.057c17.181,0.802,28.518,13.76,28.354,29.904
			c-0.164,16.129-11.604,28.211-28.967,29.439C266.018,668.622,255.356,668.013,244.738,667.993z"/>
		<path fill="#FFFFFF" d="M244.963,787.901c-10.617-0.009-21.378,1.098-31.818-0.262c-16.639-2.167-26.45-12.578-26.394-29.563
			c0.056-16.968,9.855-28.14,26.55-29.28c21.796-1.487,43.853-1.518,65.642,0.023c16.685,1.18,26.444,12.463,26.398,29.421
			c-0.046,16.961-9.912,27.381-26.568,29.412C267.659,789.009,256.244,787.91,244.963,787.901z"/>
		<path fill="#FFFFFF" d="M788.161,728.186c29.814,0,57.027-0.193,84.235,0.061c21.792,0.203,35.248,11.519,35.639,29.267
			c0.407,18.456-13.522,30.451-36.349,30.588c-35.969,0.216-71.942,0.279-107.91-0.02c-24.493-0.203-35.308-10.998-35.512-35.449
			c-0.3-35.968-0.227-71.941-0.025-107.91c0.128-22.846,12.055-36.813,30.465-36.454c18.295,0.357,29.276,14.172,29.419,37.547
			C788.286,672.374,788.161,698.933,788.161,728.186z"/>
	</g>
</g>
<image display="none" overflow="visible" width="352" height="94" xlink:href="61893DD8.jpg"  transform="matrix(1 0 0 1 841 516)">
</image>
</svg>
