<?xml version="1.0" encoding="utf-8"?>
<!-- Generator: Adobe Illustrator 17.0.0, SVG Export Plug-In . SVG Version: 6.00 Build 0)  -->
<!DOCTYPE svg PUBLIC "-//W3C//DTD SVG 1.1//EN" "http://www.w3.org/Graphics/SVG/1.1/DTD/svg11.dtd">
<svg version="1.1" id="Forma_1_1_" xmlns="http://www.w3.org/2000/svg" xmlns:xlink="http://www.w3.org/1999/xlink" x="0px" y="0px"
	 width="345px" height="512px" viewBox="0 0 345 512" enable-background="new 0 0 345 512" xml:space="preserve">
<g id="Forma_1">
	<g>
		<path fill-rule="evenodd" clip-rule="evenodd" fill="#FC8510" d="M337.501,414.843c-4.141,0-7.498,3.358-7.498,7.5v70.514
			c0,2.283-1.857,4.141-4.14,4.141h-40.304V349.301c0-4.142-3.357-7.5-7.498-7.5c-4.141,0-7.498,3.358-7.498,7.5v147.698h-81.159
			l23.536-25.9c2.571-2.83,3.784-6.861,3.243-10.787c-0.01-0.076-0.022-0.152-0.035-0.228l-22.416-132.467l6.039-9.094
			c3.339,2.372,5.911,4.656,10.735,4.656c4.906,0,9.494-2.747,11.751-7.269v-0.001l23.643-47.4l53.859,20.865
			c1.948,0.836,30.242,13.582,30.242,47.238v50.73c-0.001,4.141,3.356,7.5,7.498,7.5c4.141,0,7.498-3.358,7.498-7.5v-50.73
			c0-44.344-37.957-60.463-39.573-61.128c-0.047-0.02-0.095-0.039-0.143-0.057l-89.64-34.726v-21.03
			c14.238-11.076,24.109-27.495,26.588-46.227c7.099-0.5,13.686-3.152,19.065-7.779c7.025-6.043,11.056-14.838,11.056-24.126
			c0-7.708-2.78-15.068-7.735-20.803V92.953C264.614,41.699,222.929,0,171.691,0S78.768,41.699,78.768,92.953v28.511
			c-5.007,5.677-7.731,12.665-7.731,20.074c0,9.291,4.029,18.085,11.055,24.129c5.375,4.625,11.958,7.274,19.055,7.775
			c2.498,19.083,12.658,36.114,28.108,47.339v19.92l-89.543,34.725c-0.047,0.018-0.094,0.037-0.141,0.056
			C37.956,276.147,0,292.266,0,336.61v156.245c0,10.555,8.584,19.142,19.136,19.142H90.57c4.141,0,7.498-3.358,7.498-7.5
			c0-4.142-3.357-7.5-7.498-7.5H74.438V349.301c0-4.142-3.357-7.5-7.498-7.5s-7.498,3.358-7.498,7.5v147.698H19.137
			c-2.282,0-4.14-1.858-4.14-4.141V336.611c0-33.769,28.484-46.486,30.234-47.234l53.817-20.87l23.645,47.402
			c2.262,4.533,6.856,7.27,11.752,7.27c4.799,0,7.347-2.249,10.735-4.656l6.039,9.094l-22.414,132.468
			c-0.013,0.075-0.024,0.15-0.035,0.226c-0.542,3.924,0.671,7.957,3.243,10.789l23.536,25.9h-29.986c-4.141,0-7.498,3.358-7.498,7.5
			c0,4.142,3.357,7.5,7.498,7.5h200.302c10.552,0,19.136-8.588,19.136-19.142v-70.514
			C344.998,418.201,341.641,414.843,337.501,414.843z M231.855,263.069l-22.042,44.19c-0.548-0.389-12.229-8.691-26.509-18.834
			c6.196-7.651-1.053,1.299,27.226-33.617L231.855,263.069z M187.537,309.833l-5.716,8.607h-18.697l-5.716-8.607l15.065-10.703
			L187.537,309.833z M144.25,243.121v-14.036c9.109,3.673,18.844,5.376,28.351,5.376c9.83,0,19.47-2.096,28.043-5.846v14.567
			l-28.172,34.785L144.25,243.121z M257.353,141.539c-0.001,4.913-2.128,9.562-5.837,12.753c-2.452,2.11-5.414,3.459-8.658,3.987
			v-33.477C251.475,126.202,257.353,133.352,257.353,141.539z M100.528,158.279c-8.715-1.415-14.495-8.623-14.495-16.741
			c0-8.018,6.645-14.544,14.495-16.359V158.279z M100.931,109.896c-2.388,0.274-5.125,0.921-7.166,1.615V92.953
			c0-42.983,34.957-77.952,77.927-77.952c42.97,0,77.927,34.969,77.927,77.952v18.043c-2.179-0.663-4.44-1.101-6.76-1.307
			c0-7.237,0.063-5.841-23.605-31.294c-4.353-4.678-11.552-5.658-17.032-2.077c-26.122,17.069-57.987,25.644-87.388,23.532
			C108.386,99.367,102.511,103.616,100.931,109.896z M115.524,164.184v-49.257c32.365,1.896,66.297-7.722,93.71-25.283
			c10.855,11.658,16.733,17.773,18.628,20.099v54.44c0,30.447-24.818,55.276-55.26,55.276
			C138.419,219.46,115.524,192.934,115.524,164.184z M135.133,307.259l-22.042-44.19l21.286-8.247l27.232,33.625
			C147.761,298.284,136.39,306.366,135.133,307.259z M143.736,461.702l21.702-128.263h14.067l21.702,128.263l-28.735,31.623
			L143.736,461.702z"/>
	</g>
</g>
</svg>
