<?xml version="1.0" encoding="utf-8"?>
<!-- Generator: Adobe Illustrator 17.0.0, SVG Export Plug-In . SVG Version: 6.00 Build 0)  -->
<!DOCTYPE svg PUBLIC "-//W3C//DTD SVG 1.1//EN" "http://www.w3.org/Graphics/SVG/1.1/DTD/svg11.dtd">
<svg version="1.1" id="L0001_xA0_Image_1_" xmlns="http://www.w3.org/2000/svg" xmlns:xlink="http://www.w3.org/1999/xlink" x="0px"
	 y="0px" width="1027.969px" height="1028.405px" viewBox="0 0 1027.969 1028.405" enable-background="new 0 0 1027.969 1028.405"
	 xml:space="preserve">
<path display="none" fill="#FFFFFF" d="M4.001,888.203c9.693,15.85,23.798,20.37,42.151,20.305
	c156-0.553,312.004-0.192,468.005-0.543c12.862-0.029,21.491,2.698,30.035,13.785c73.655,95.572,196.484,130.914,307.873,89.654
	c110.025-40.755,180.812-147.696,175.639-266.766c-2.218-51.063-19.246-97.362-47.197-140.255
	c-7.029-10.786-11.684-25.263-11.782-38.088c-0.888-115.995,0.936-232.026-1.221-347.988c-0.889-47.783,11.517-96.778-8.546-143.519
	c-46.349-18.273-94.644-3.964-141.832-8.364c-9.167-0.855-18.482-0.123-29.752-0.123c-2.533-22.818,3.202-47.492-19.199-62.3
	c88.02,0,176.04,0,264.06,0c0,342.745,0,685.489,0,1028.234c-342.745,0-685.489,0-1028.234,0
	C4.001,984.224,4.001,936.214,4.001,888.203z"/>
<path display="none" fill="#FFFFFF" d="M204.047,4.001c-13.332,13.155-13.332,13.155-20.353,62.3c-15.755,0-32.077,0-48.4,0
	c-29.283,0-58.594,0.771-87.84-0.285c-17.84-0.644-32.418,3.649-43.453,18.004c0-26.673,0-53.345,0-80.018
	C70.683,4.001,137.365,4.001,204.047,4.001z"/>
<path display="none" fill="#FFFFFF" d="M384.088,4.001c-21.062,14.692-18.059,37.448-18.435,60.481c-39.715,0-78.238,0-118.717,0
	c-1.945-21.342,3.347-45.661-18.883-60.481C280.064,4.001,332.076,4.001,384.088,4.001z"/>
<path display="none" fill="#FFFFFF" d="M564.129,4.001c-21.062,14.692-18.059,37.448-18.435,60.481c-39.717,0-78.243,0-118.717,0
	c-1.945-21.342,3.347-45.661-18.883-60.481C460.105,4.001,512.117,4.001,564.129,4.001z"/>
<path display="none" fill="#FFFFFF" d="M744.17,4.001c-21.062,14.692-18.059,37.448-18.435,60.481c-39.717,0-78.243,0-118.717,0
	c-1.945-21.342,3.347-45.661-18.883-60.481C640.146,4.001,692.158,4.001,744.17,4.001z"/>
<path display="none" fill="#FFFFFF" d="M907.547,307.958c0,74.782,0,147.992,0,223.38c-5.179-2.491-9.67-4.342-13.866-6.716
	c-120.631-68.245-266.757-38.841-350.659,71.362c-7.856,10.319-14.79,13.918-27.694,12.651c-18.485-1.814-37.3-0.936-55.942-0.295
	c-18.597,0.639-31.111,13.125-31.16,29.679c-0.05,16.58,12.418,29.095,30.939,29.938c13.893,0.633,27.838,0.125,42.877,0.125
	c-4.552,20.325-8.732,38.989-13.179,58.845c-23.349,4.642-58.29-8.61-60.189,32.946c-0.925,20.25,12.227,26.005,59.812,29.32
	c4.335,18.625,8.784,37.745,13.504,58.024c-145.855,0-290.788,0-436.856,0c0-179.626,0-358.61,0-539.259
	C345.428,307.958,625.574,307.958,907.547,307.958z M486.207,427.89c11.305,0,22.707,0.936,33.893-0.22
	c16.71-1.726,26.501-11.836,27.708-28.714c1.127-15.761-10.993-29.602-27.911-30.438c-21.229-1.05-42.608-1.209-63.812,0.077
	c-16.721,1.014-26.516,11.705-27.693,28.6c-1.101,15.802,10.975,29.015,27.902,30.551
	C466.189,428.644,476.232,427.91,486.207,427.89z M726.617,428.044c9.977,0,19.973,0.401,29.925-0.087
	c18.656-0.914,31.144-12.819,31.471-29.347c0.326-16.514-12.094-29.6-30.402-30.271c-19.925-0.731-39.926-0.78-59.844,0.054
	c-17.273,0.724-29.182,13.344-29.468,29.147c-0.299,16.542,12.088,29.22,30.39,30.364
	C707.965,428.485,717.306,428.007,726.617,428.044z M489.665,488.163c-9.977,0-19.972-0.39-29.926,0.084
	c-18.654,0.889-31.173,12.782-31.492,29.285c-0.32,16.543,12.052,29.641,30.352,30.328c19.924,0.749,39.926,0.796,59.843-0.051
	c17.318-0.736,29.181-13.298,29.515-29.136c0.348-16.514-12.076-29.241-30.364-30.374
	C508.317,487.726,498.976,488.2,489.665,488.163z M246.501,368.204c0,0.021,0,0.043,0,0.064c-10.618,0-21.291-0.69-31.841,0.157
	c-17.094,1.373-28.74,14.04-27.989,30.179c0.793,17.021,10.396,27.808,27.079,28.911c21.144,1.398,42.484,1.14,63.672,0.149
	c17.108-0.8,28.379-13.981,28.108-30.122c-0.272-16.145-11.728-28.01-29.173-29.215C266.45,367.643,256.456,368.204,246.501,368.204
	z M247.732,488.305c0-0.028,0-0.055,0-0.083c-10.619,0-21.273-0.559-31.848,0.126c-17.484,1.132-28.955,12.92-29.306,29.062
	c-0.352,16.172,10.846,29.441,27.923,30.265c21.185,1.022,42.523,1.239,63.672-0.112c16.685-1.066,26.354-11.762,27.241-28.773
	c0.842-16.14-10.769-28.868-27.833-30.331C267.699,487.612,257.686,488.305,247.732,488.305z M244.738,668.013
	c10.618,0,21.28,0.609,31.845-0.138c17.363-1.228,28.803-13.31,28.967-29.439c0.164-16.144-11.173-29.102-28.354-29.904
	c-20.528-0.959-41.162-0.907-61.699-0.057c-17.376,0.719-28.797,13.193-28.95,29.348c-0.153,16.146,11.173,28.61,28.34,30.004
	C224.776,668.631,234.784,667.974,244.738,668.013z M244.963,787.91c11.281,0,22.695,1.098,33.811-0.258
	c16.655-2.032,26.521-12.452,26.568-29.412c0.046-16.958-9.713-28.24-26.398-29.421c-21.789-1.542-43.846-1.511-65.642-0.023
	c-16.696,1.139-26.495,12.312-26.55,29.28c-0.056,16.985,9.755,27.396,26.394,29.563
	C223.585,788.999,234.346,787.892,244.963,787.91z"/>
<path display="none" fill="#FFFFFF" d="M548.15,757.819c0.15-115.495,94.764-209.808,210.334-209.665
	c115.469,0.143,209.858,94.807,209.709,210.32c-0.149,115.418-94.902,209.877-210.367,209.715
	C642.383,968.027,548,873.331,548.15,757.819z M788.161,728.186c0-29.254,0.125-55.813-0.038-82.37
	c-0.143-23.375-11.124-37.19-29.419-37.547c-18.41-0.359-30.337,13.607-30.465,36.454c-0.202,35.969-0.275,71.942,0.025,107.91
	c0.204,24.451,11.02,35.245,35.512,35.449c35.968,0.299,71.941,0.236,107.91,0.02c22.827-0.137,36.756-12.132,36.349-30.588
	c-0.391-17.748-13.847-29.064-35.639-29.267C845.188,727.994,817.976,728.186,788.161,728.186z"/>
<path display="none" fill="#FFFFFF" d="M65.148,244.834c0-39.896,0-78.304,0-117.451c40.146,0,79.139,0,118.946,0
	c5.365,23.133-6.243,58.308,33.018,57.294c36.12-0.933,26.465-33.026,30.299-56.697c38.845,0,77.599,0,116.993,0
	c4.792,22.711-6.193,56.517,31.364,56.679c37.619,0.163,27.932-32.957,31.521-56.903c38.863,0,77.137,0,116.732,0
	c5.936,22.256-6.357,58.9,34.333,56.864c35.679-1.785,24.64-34.47,29.596-57.046c38.724,0,76.993,0,116.307,0
	c5.273,23.301-6.144,59.465,34.715,56.956c34.408-2.113,24.719-33.252,28.56-56.442c39.448,0,78.898,0,119.533,0
	c0,38.414,0,76.821,0,116.746C626.936,244.834,346.804,244.834,65.148,244.834z"/>
<g>
	<g>
		<path fill="#A578B5" d="M4.001,888.203c0-268.061,0-536.122,0-804.183c11.035-14.355,25.613-18.648,43.453-18.004
			c29.245,1.056,58.556,0.285,87.84,0.285c16.322,0,32.645,0,48.4,0c7.021-49.145,7.021-49.145,20.353-62.3
			c8.002,0,16.004,0,24.005,0c22.23,14.82,16.938,39.138,18.883,60.481c40.478,0,79.002,0,118.717,0
			c0.377-23.033-2.627-45.789,18.435-60.481c8.002,0,16.004,0,24.005,0c22.23,14.82,16.938,39.139,18.883,60.481
			c40.474,0,78.999,0,118.717,0c0.376-23.033-2.627-45.789,18.435-60.481c8.002,0,16.004,0,24.005,0
			c22.23,14.82,16.938,39.138,18.883,60.481c40.474,0,78.999,0,118.717,0c0.376-23.033-2.627-45.789,18.435-60.481
			c8.002,0,16.004,0,24.005,0c22.401,14.807,16.666,39.482,19.199,62.3c11.269,0,20.584-0.732,29.752,0.123
			c47.188,4.399,95.483-9.91,141.832,8.364c20.063,46.741,7.657,95.736,8.546,143.519c2.157,115.962,0.333,231.993,1.221,347.988
			c0.098,12.824,4.753,27.301,11.782,38.088c27.95,42.892,44.979,89.191,47.197,140.255
			c5.173,119.07-65.614,226.011-175.639,266.766c-111.389,41.26-234.219,5.918-307.873-89.654
			c-8.544-11.087-17.173-13.813-30.035-13.785c-156.001,0.351-312.005-0.01-468.005,0.543
			C27.799,908.572,13.694,904.053,4.001,888.203z M907.547,307.958c-281.973,0-562.118,0-842.414,0c0,180.649,0,359.633,0,539.259
			c146.068,0,291.001,0,436.856,0c-4.719-20.279-9.169-39.399-13.504-58.024c-47.585-3.315-60.737-9.07-59.812-29.32
			c1.899-41.556,36.841-28.304,60.189-32.946c4.447-19.856,8.627-38.52,13.179-58.845c-15.039,0-28.984,0.508-42.877-0.125
			c-18.521-0.844-30.989-13.359-30.939-29.938c0.05-16.555,12.563-29.04,31.16-29.679c18.643-0.641,37.457-1.519,55.942,0.295
			c12.904,1.267,19.838-2.333,27.694-12.651c83.902-110.203,230.027-139.607,350.659-71.362c4.196,2.374,8.687,4.224,13.866,6.716
			C907.547,455.951,907.547,382.741,907.547,307.958z M548.15,757.819c-0.15,115.512,94.233,210.207,209.676,210.37
			c115.465,0.162,210.218-94.297,210.367-209.715c0.149-115.513-94.24-210.177-209.709-210.32
			C642.914,548.011,548.3,642.324,548.15,757.819z M65.148,244.834c281.656,0,561.788,0,841.917,0c0-39.925,0-78.331,0-116.746
			c-40.635,0-80.085,0-119.533,0c-3.841,23.189,5.848,54.329-28.56,56.442c-40.859,2.509-29.442-33.656-34.715-56.956
			c-39.314,0-77.582,0-116.307,0c-4.957,22.575,6.082,55.26-29.596,57.046c-40.69,2.036-28.397-34.608-34.333-56.864
			c-39.595,0-77.868,0-116.732,0c-3.589,23.946,6.098,57.067-31.521,56.903c-37.557-0.163-26.572-33.968-31.364-56.679
			c-39.394,0-78.148,0-116.993,0c-3.834,23.67,5.821,55.764-30.299,56.697c-39.261,1.014-27.653-34.16-33.018-57.294
			c-39.807,0-78.8,0-118.946,0C65.148,166.531,65.148,204.939,65.148,244.834z"/>
		<path fill="#A578B5" d="M486.207,427.9c-9.976,0.01-20.018,0.744-29.912-0.154c-16.928-1.535-29.004-14.749-27.902-30.551
			c1.178-16.895,10.972-27.586,27.693-28.6c21.204-1.286,42.583-1.127,63.812-0.077c16.918,0.837,29.038,14.677,27.911,30.438
			c-1.207,16.878-10.998,26.988-27.708,28.714C508.915,428.826,497.513,427.89,486.207,427.9z"/>
		<path fill="#A578B5" d="M726.617,428.025c-9.311-0.019-18.652,0.46-27.927-0.12c-18.302-1.144-30.689-13.823-30.39-30.364
			c0.286-15.803,12.195-28.423,29.468-29.147c19.918-0.835,39.918-0.785,59.844-0.054c18.307,0.672,30.728,13.757,30.402,30.271
			c-0.327,16.528-12.815,28.433-31.471,29.347C746.59,428.445,736.594,428.044,726.617,428.025z"/>
		<path fill="#A578B5" d="M489.665,488.182c9.311,0.019,18.652-0.455,27.928,0.119c18.288,1.132,30.711,13.859,30.364,30.374
			c-0.333,15.838-12.197,28.4-29.515,29.136c-19.917,0.846-39.919,0.799-59.843,0.051c-18.3-0.688-30.672-13.786-30.352-30.328
			c0.319-16.503,12.838-28.397,31.492-29.285C469.693,487.773,479.689,488.163,489.665,488.182z"/>
		<path fill="#A578B5" d="M246.501,368.204c9.955,0,19.948-0.56,29.856,0.124c17.445,1.204,28.901,13.07,29.173,29.215
			c0.272,16.14-11,29.322-28.108,30.122c-21.188,0.991-42.528,1.249-63.672-0.149c-16.683-1.103-26.287-11.89-27.079-28.911
			c-0.752-16.139,10.894-28.806,27.989-30.179c10.55-0.847,21.223-0.157,31.841-0.157
			C246.501,368.246,246.501,368.225,246.501,368.204z"/>
		<path fill="#A578B5" d="M247.732,488.305c9.954,0,19.967-0.693,29.849,0.154c17.064,1.463,28.675,14.191,27.833,30.331
			c-0.888,17.011-10.557,27.707-27.241,28.773c-21.149,1.351-42.487,1.134-63.672,0.112c-17.076-0.824-28.275-14.093-27.923-30.265
			c0.351-16.142,11.822-27.929,29.306-29.062c10.574-0.685,21.229-0.126,31.848-0.126
			C247.731,488.25,247.731,488.278,247.732,488.305z"/>
		<path fill="#A578B5" d="M244.738,667.993c-9.954-0.02-19.962,0.637-29.851-0.165c-17.167-1.393-28.493-13.858-28.34-30.004
			c0.153-16.155,11.573-28.629,28.95-29.348c20.537-0.85,41.171-0.902,61.699,0.057c17.181,0.802,28.518,13.76,28.354,29.904
			c-0.164,16.129-11.604,28.211-28.967,29.439C266.018,668.622,255.356,668.013,244.738,667.993z"/>
		<path fill="#A578B5" d="M244.963,787.901c-10.617-0.009-21.378,1.098-31.818-0.262c-16.639-2.167-26.45-12.578-26.394-29.563
			c0.056-16.968,9.855-28.14,26.55-29.28c21.796-1.487,43.853-1.518,65.642,0.023c16.685,1.18,26.444,12.463,26.398,29.421
			c-0.046,16.961-9.912,27.381-26.568,29.412C267.659,789.009,256.244,787.91,244.963,787.901z"/>
		<path fill="#A578B5" d="M788.161,728.186c29.814,0,57.027-0.193,84.235,0.061c21.792,0.203,35.248,11.519,35.639,29.267
			c0.407,18.456-13.522,30.451-36.349,30.588c-35.969,0.216-71.942,0.279-107.91-0.02c-24.493-0.203-35.308-10.998-35.512-35.449
			c-0.3-35.968-0.227-71.941-0.025-107.91c0.128-22.846,12.055-36.813,30.465-36.454c18.295,0.357,29.276,14.172,29.419,37.547
			C788.286,672.374,788.161,698.933,788.161,728.186z"/>
	</g>
</g>
</svg>
