<?xml version="1.0" encoding="utf-8"?>
<!-- Generator: Adobe Illustrator 17.0.0, SVG Export Plug-In . SVG Version: 6.00 Build 0)  -->
<!DOCTYPE svg PUBLIC "-//W3C//DTD SVG 1.1//EN" "http://www.w3.org/Graphics/SVG/1.1/DTD/svg11.dtd">
<svg version="1.1" id="L0001_xA0_Image_1_" xmlns="http://www.w3.org/2000/svg" xmlns:xlink="http://www.w3.org/1999/xlink" x="0px"
	 y="0px" width="1024.421px" height="1024.234px" viewBox="0 0 1024.421 1024.234" enable-background="new 0 0 1024.421 1024.234"
	 xml:space="preserve">
<g>
	<g>
		<path fill="#FFFFFF" d="M556.127,0c22.184,4.011,44.485,7.466,66.534,12.117c242.87,51.225,418.704,282.228,400.46,530.008
			c-12.878,174.897-94.889,310.541-242.542,405.923c-4.363,2.819-9.024,5.177-17.119,9.783c0-23.591-0.83-44.437,0.602-65.126
			c0.345-4.979,7.62-10.189,12.67-14.027c127.28-96.729,190.54-225.103,186.951-384.755
			c-4.885-217.35-181.652-407.845-397.11-430.319C319.928,37.878,105.781,196.031,66.607,441.084
			C38.391,617.587,101.57,763.087,242.053,873.773c14.233,11.214,20.926,21.807,19.241,39.466
			c-1.301,13.641-0.26,27.506-0.26,44.327c-43.626-23.452-79.417-51.695-111.56-84.503C65.462,787.31,16.011,684.962,3.252,565.245
			c-0.332-3.12-2.135-6.082-3.252-9.118c0-29.34,0-58.68,0-88.02c1.288-5.773,2.934-11.492,3.813-17.327
			C35.001,243.616,149.194,102.688,344.501,28.92C383.745,14.097,426.806,9.378,468.107,0C497.447,0,526.787,0,556.127,0z"/>
		<path fill="#FFFFFF" d="M616.602,673.679c62.27,44.219,88.503,104.161,86.729,178.143c-1.055,43.978-0.053,88.003-0.249,132.005
			c-0.136,30.622-10.135,40.349-41.123,40.367c-100.007,0.06-200.015,0.064-300.022-0.003c-30.792-0.021-40.668-9.821-40.791-40.671
			c-0.172-43.336,0.943-86.701-0.269-130.003c-2.091-74.722,23.922-135.396,87.491-180.323
			c-57.424-42.047-89.086-97.259-86.526-168.669c1.902-53.061,23.314-98.024,62.802-133.772
			c77.527-70.185,197.18-64.014,268.015,12.53C717.402,453.243,731.849,587.282,616.602,673.679z"/>
		<path fill="#FFFFFF" d="M269.985,763.686c-79.24-66.214-138.492-210.484-93.883-354.94
			c43.864-142.041,175.97-243.526,324.476-248.052c151.349-4.613,288.126,87.693,341.216,230.111
			c53.322,143.038,2.211,293.821-86.908,373.244c-7.579-16.862-15.962-33.13-21.909-50.245c-1.704-4.906,2.132-13.442,5.965-18.318
			c98.923-125.84,83.834-301.164-37.822-404.206c-87.015-73.701-187.456-91.658-293.626-50.295
			C301.662,282.217,239.59,362.381,223.556,475.593c-11.539,81.467,11.236,154.355,61.637,218.596
			c7.834,9.986,9.031,16.935,2.916,27.903C280.801,735.199,275.952,749.677,269.985,763.686z"/>
	</g>
</g>
</svg>
