<?xml version="1.0" encoding="utf-8"?>
<!-- Generator: Adobe Illustrator 17.0.0, SVG Export Plug-In . SVG Version: 6.00 Build 0)  -->
<!DOCTYPE svg PUBLIC "-//W3C//DTD SVG 1.1//EN" "http://www.w3.org/Graphics/SVG/1.1/DTD/svg11.dtd">
<svg version="1.1" id="Forma_1_1_" xmlns="http://www.w3.org/2000/svg" xmlns:xlink="http://www.w3.org/1999/xlink" x="0px" y="0px"
	 width="612px" height="607px" viewBox="0 0 612 607" enable-background="new 0 0 612 607" xml:space="preserve">
<g id="Forma_1">
	<g>
		<path fill="#EEBD49" d="M325.352,0c-4.585,0-8.873,2.256-11.467,6.034c-7.584,11.04-185.733,271.907-185.733,403.847
			C128.152,518.573,216.615,607,325.35,607s197.197-88.427,197.197-197.119c0-131.94-178.148-392.807-185.731-403.847
			C334.225,2.258,329.935,0,325.352,0z M325.352,579.192c-93.396,0-169.379-75.952-169.379-169.311
			c0-104.942,129.587-310.329,169.379-370.915c39.791,60.585,169.377,265.971,169.377,370.915
			C494.729,503.24,418.746,579.192,325.352,579.192z M311.444,528.206c0,7.679,6.226,13.904,13.91,13.904
			c72.943,0,132.288-59.317,132.288-132.225c0-7.679-6.226-13.904-13.91-13.904c-7.684,0-13.91,6.225-13.91,13.904
			c0,57.576-46.865,104.417-104.468,104.417C317.67,514.302,311.444,520.527,311.444,528.206z M598.09,56.313h-27.03V29.293
			c0-7.679-6.226-13.904-13.91-13.904c-7.684,0-13.91,6.225-13.91,13.904v27.021H516.21c-7.684,0-13.91,6.225-13.91,13.904
			c0,7.679,6.226,13.904,13.91,13.904h27.031v27.021c0,7.679,6.226,13.904,13.91,13.904c7.684,0,13.91-6.225,13.91-13.904V84.122
			h27.03c7.684,0,13.91-6.225,13.91-13.904C612,62.539,605.774,56.313,598.09,56.313z M95.792,474.986H68.761v-27.021
			c0-7.679-6.226-13.904-13.91-13.904c-7.684,0-13.91,6.225-13.91,13.904v27.021H13.91C6.226,474.986,0,481.212,0,488.89
			c0,7.679,6.226,13.904,13.91,13.904h27.031v27.021c0,7.679,6.226,13.904,13.91,13.904c7.684,0,13.91-6.225,13.91-13.904v-27.021
			h27.031c7.684,0,13.91-6.225,13.91-13.904C109.702,481.212,103.476,474.986,95.792,474.986z"/>
	</g>
</g>
</svg>
