<?xml version="1.0" encoding="utf-8"?>
<!-- Generator: Adobe Illustrator 17.0.0, SVG Export Plug-In . SVG Version: 6.00 Build 0)  -->
<!DOCTYPE svg PUBLIC "-//W3C//DTD SVG 1.1//EN" "http://www.w3.org/Graphics/SVG/1.1/DTD/svg11.dtd">
<svg version="1.1" id="L0001_xA0_Image_1_" xmlns="http://www.w3.org/2000/svg" xmlns:xlink="http://www.w3.org/1999/xlink" x="0px"
	 y="0px" width="1138.304px" height="1138.304px" viewBox="0 0 1138.304 1138.304" enable-background="new 0 0 1138.304 1138.304"
	 xml:space="preserve">
<g>
	<path fill="#FFFFFF" d="M0,889.3C0,626.957,0,364.613,0,102.27c22.153,37.341,45.779,73.91,65.898,112.317
		c11.796,22.518,27.026,35.856,52.048,38.368c31.831,3.196,55.057,20.095,77.035,42.843
		c63.31,65.529,128.462,129.28,192.935,193.685c5.6,5.594,11.523,10.864,17.296,16.284c-1.031-2.061-2.061-4.122-3.092-6.183
		c9.814-6.372,19.628-12.745,30.313-19.682c-70.04-69.866-138.757-136.331-204.862-205.299
		c-29.687-30.972-60.885-55.007-104.546-60.417c-6.942-0.86-15.734-6.083-19.272-11.944c-20.553-34.053-39.79-68.899-61.112-106.36
		c15.663-14.549,31.483-27.993,45.723-42.944c8.429-8.85,14.952-8.641,24.723-2.764c26.631,16.02,53.442,31.838,80.964,46.24
		c13.713,7.176,21.981,16.392,23.677,31.723c4.106,37.102,23.228,64.621,50.155,90.318
		c66.444,63.41,130.506,129.322,195.195,194.556c5.649,5.696,8.865,13.804,13.212,20.792c1.154-2.469,2.307-4.938,3.461-7.408
		c9.047-7.245,18.093-14.491,28.461-22.794c-67.482-67.272-132.424-134.274-200.073-198.421
		c-30.167-28.605-52.695-59.096-57.392-100.891c-1.849-16.452-11.338-25.731-25.362-33.51C183.994,47.819,143.26,23.678,102.27,0
		c259.379,0,518.759,0,778.138,0c-5.532,1.688-10.975,3.782-16.608,5.004c-116.064,25.19-193.255,135.709-177.758,253.093
		c1.093,8.28-3.637,20.037-9.711,26.156C546.94,414.584,416.887,544.257,287.288,674.38c-9.136,9.173-17.477,12.491-30.918,11.142
		c-112.765-11.316-210.96,52-244.31,156.768C7.161,857.681,3.977,873.617,0,889.3z"/>
	<path fill="#444444" d="M0,889.3c3.977-15.684,7.161-31.62,12.06-47.01c33.35-104.768,131.544-168.084,244.31-156.768
		c13.442,1.349,21.783-1.969,30.918-11.142C416.887,544.257,546.94,414.584,676.33,284.253c6.074-6.118,10.804-17.876,9.711-26.156
		C670.545,140.714,747.736,30.195,863.8,5.004c5.633-1.222,11.076-3.316,16.608-5.004c20.75,0,41.501,0,62.251,0
		c2.568,1.286,5.204,2.451,7.691,3.878c10.184,5.842,25.032,9.68,28.875,18.365c2.705,6.114-7.897,20.461-15.455,28.359
		c-30.704,32.085-62.162,63.478-94.164,94.272c-9.4,9.045-8.817,16.786-6.996,28.89c8.98,59.671,41.925,93.003,101.606,102.756
		c13.928,2.276,22.574,2.568,32.824-8.14c32.241-33.684,65.508-66.398,98.784-99.074c17.717-17.397,30.448-13.717,38.395,10.05
		c0.879,2.627,2.702,4.939,4.087,7.397c0,26.679,0,53.358,0,80.037c-0.706,1.302-1.807,2.531-2.062,3.915
		c-19.995,108.737-124.63,200.365-257.933,182.48c-5.656-0.759-13.67,1.336-17.651,5.159
		c-30.903,29.676-61.084,60.104-95.875,94.654c13.719,11.604,26.061,22.128,38.496,32.54c16.309,13.656,18.434,27.349,1.426,42.449
		c-10.198,9.053-12.903,20.488-2.824,31.197c10.907,11.59,23.042,9.287,32.784-1.697c15.376-17.335,27.807-13.189,42.5,1.709
		c62.913,63.793,126.051,127.38,190.1,190.027c30.435,29.768,58.368,60.559,71.039,102.327c0,23.715,0,47.429,0,71.144
		c-8.098,16.291-14.998,33.323-24.534,48.723c-22.11,35.705-57.36,53.595-95.521,66.886c-20.75,0-41.501,0-62.251,0
		c-24.825-13.83-53.792-23.302-73.74-42.264c-76.695-72.9-150.427-148.914-225.457-223.572
		c-12.304-12.243-13.815-23.748-0.721-36.065c10.812-10.17,17.242-22.032,5.085-34.503c-11.99-12.299-24.119-7.054-34.572,3.913
		c-13.141,13.787-25.295,11.916-37.858-1.348c-11.952-12.62-24.812-24.381-38.32-37.54c-29.415,29.804-56.481,58.201-84.746,85.351
		c-10.205,9.803-13.056,19.287-11.506,33.139c13.15,117.483-62.203,222.345-177.509,248.241c-4.872,1.094-9.545,3.078-14.31,4.648
		c-22.233,0-44.465,0-66.698,0c-3.306-1.354-6.499-3.201-9.935-3.989c-94.508-21.68-153.987-79.487-178.798-173.11
		c-2.416-9.117-4.614-18.292-6.913-27.44C0,918.944,0,904.122,0,889.3z M1100.033,217.525
		c-32.354,32.667-61.88,61.656-90.356,91.642c-11.22,11.815-22.421,14.901-37.639,9.509c-31.353-11.11-63.512-20.112-94.294-32.565
		c-9.964-4.031-20.013-14.734-24.208-24.807c-11.063-26.564-17.136-55.241-28.607-81.591c-10.662-24.492-5.441-40.796,13.992-58.085
		c27.84-24.768,53.118-52.415,82.438-81.786c-9.527-0.717-13.786-1.446-18.015-1.297C787.608,42.613,705.047,148.206,725.357,264.49
		c1.813,10.379-1.894,25.858-9.015,33.051c-138.66,140.08-278.05,279.441-418.062,418.171c-6.853,6.791-20.651,8.567-31.378,9.049
		c-24.212,1.088-49.027-3.394-72.711,0.21C90.349,740.771,21.57,841.389,40.036,947.734
		c17.252,99.353,117.957,170.726,216.424,153.387c107.686-18.962,178.878-117.947,158.604-221.956
		c-3.52-18.061,0.368-30.362,13.405-43.317c134.033-133.185,267.862-266.581,400.73-400.924
		c18.098-18.299,34.49-23.931,60.208-19.547C1000.586,434.326,1110.052,333.459,1100.033,217.525z M910.423,1068.244
		c53.203-53.151,106.442-106.337,161.345-161.186c-68.455-68.266-138.499-138.371-209.185-207.822
		c-3.402-3.343-13.24-2.958-18.757-0.848c-26.886,10.287-51.966,6.361-69.585-12.296c-17.756-18.802-20.723-43.723-8.381-70.003
		c1.475-3.141,2.739-6.381,1.841-4.274c-10.274-13.083-18.35-23.367-25.793-32.846c-54.626,54.693-107.95,108.082-160.775,160.972
		c8.952,9.337,18.416,19.21,27.626,28.817c33.147-16.64,56.112-15.585,76.918,3.005c21.875,19.545,24.345,43.33,9.384,81.012
		C767.789,925.538,839.932,997.717,910.423,1068.244z M1096.273,951.397c-48.303,48.654-95.745,96.439-143.031,144.068
		c41.376,12.095,81.072,4.389,113.715-27.922C1100.035,1034.803,1109.528,994.974,1096.273,951.397z"/>
	<path fill="#FFFFFF" d="M262.344,1138.304c4.766-1.569,9.438-3.553,14.31-4.648c115.305-25.895,190.658-130.758,177.509-248.241
		c-1.55-13.852,1.301-23.336,11.506-33.139c28.265-27.15,55.331-55.547,84.746-85.351c13.508,13.159,26.367,24.92,38.32,37.54
		c12.562,13.264,24.717,15.135,37.858,1.348c10.453-10.967,22.582-16.213,34.572-3.913c12.157,12.471,5.727,24.334-5.085,34.503
		c-13.094,12.317-11.583,23.821,0.721,36.065c75.03,74.659,148.762,150.672,225.457,223.572
		c19.948,18.961,48.916,28.433,73.74,42.264C724.78,1138.304,493.562,1138.304,262.344,1138.304z"/>
	<path fill="#FFFFFF" d="M1138.304,951.551c-12.67-41.768-40.604-72.558-71.039-102.327
		c-64.05-62.646-127.188-126.234-190.1-190.027c-14.693-14.899-27.124-19.044-42.5-1.709c-9.743,10.983-21.877,13.287-32.784,1.697
		c-10.078-10.709-7.373-22.144,2.824-31.197c17.008-15.1,14.884-28.793-1.426-42.449c-12.435-10.412-24.777-20.936-38.496-32.54
		c34.791-34.551,64.972-64.979,95.875-94.654c3.98-3.822,11.995-5.917,17.651-5.159c133.303,17.885,237.938-73.743,257.933-182.48
		c0.255-1.385,1.356-2.614,2.062-3.915C1138.304,495.044,1138.304,723.298,1138.304,951.551z"/>
	<path fill="#FFFFFF" d="M1138.304,186.753c-1.385-2.458-3.208-4.77-4.087-7.397c-7.948-23.766-20.678-27.447-38.395-10.05
		c-33.276,32.676-66.542,65.39-98.784,99.074c-10.25,10.708-18.896,10.416-32.824,8.14c-59.681-9.753-92.626-43.085-101.606-102.756
		c-1.822-12.104-2.404-19.845,6.996-28.89c32.002-30.794,63.46-62.188,94.164-94.272c7.558-7.898,18.16-22.245,15.455-28.359
		c-3.843-8.685-18.691-12.523-28.875-18.365c-2.487-1.427-5.123-2.592-7.691-3.878c65.215,0,130.431,0,195.646,0
		C1138.304,62.251,1138.304,124.502,1138.304,186.753z"/>
	<path fill="#444444" d="M102.27,0c40.991,23.678,81.725,47.819,123.114,70.779c14.024,7.779,23.512,17.058,25.362,33.51
		c4.697,41.795,27.225,72.286,57.392,100.891c67.649,64.147,132.591,131.149,200.073,198.421
		c-10.368,8.304-19.415,15.549-28.461,22.794c-1.154,2.469-2.307,4.938-3.461,7.408c-4.346-6.988-7.563-15.095-13.212-20.792
		c-64.689-65.234-128.75-131.146-195.195-194.556c-26.927-25.698-46.049-53.216-50.155-90.318
		c-1.697-15.331-9.964-24.547-23.677-31.723c-27.522-14.402-54.332-30.221-80.964-46.24c-9.771-5.877-16.294-6.086-24.723,2.764
		c-14.239,14.95-30.06,28.395-45.723,42.944c21.322,37.461,40.56,72.307,61.112,106.36c3.538,5.861,12.33,11.084,19.272,11.944
		c43.661,5.41,74.859,29.445,104.546,60.417c66.106,68.967,134.822,135.433,204.862,205.299
		c-10.685,6.938-20.499,13.31-30.313,19.682c1.031,2.061,2.061,4.122,3.092,6.183c-5.773-5.42-11.696-10.69-17.296-16.284
		c-64.473-64.405-129.624-128.156-192.935-193.685c-21.978-22.748-45.204-39.647-77.035-42.843
		c-25.022-2.512-40.252-15.85-52.048-38.368C45.779,176.18,22.153,139.611,0,102.27c0-4.447,0-8.893,0-13.34
		C29.643,59.287,59.287,29.643,88.93,0C93.377,0,97.823,0,102.27,0z"/>
	<path fill="#FFFFFF" d="M0,933.765c2.299,9.148,4.497,18.323,6.913,27.44c24.811,93.623,84.29,151.431,178.798,173.11
		c3.436,0.788,6.629,2.635,9.935,3.989c-65.215,0-130.431,0-195.646,0C0,1070.125,0,1001.945,0,933.765z"/>
	<path fill="#FFFFFF" d="M1018.249,1138.304c38.162-13.29,73.411-31.181,95.521-66.886c9.537-15.4,16.437-32.432,24.534-48.723
		c0,38.536,0,77.073,0,115.609C1098.286,1138.304,1058.267,1138.304,1018.249,1138.304z"/>
	<path fill="#FFFFFF" d="M88.93,0C59.287,29.643,29.643,59.287,0,88.93C0,59.287,0,29.643,0,0C29.643,0,59.287,0,88.93,0z"/>
	<path fill="#FFFFFF" d="M1100.033,217.525c10.019,115.934-99.447,216.8-210.626,197.85c-25.717-4.383-42.109,1.248-60.208,19.547
		c-132.868,134.344-266.697,267.74-400.73,400.924c-13.037,12.955-16.926,25.256-13.405,43.317
		c20.274,104.009-50.919,202.995-158.604,221.956c-98.467,17.338-199.171-54.034-216.424-153.387
		C21.57,841.389,90.349,740.771,194.191,724.97c23.684-3.604,48.5,0.879,72.711-0.21c10.727-0.482,24.525-2.258,31.378-9.049
		c140.012-138.73,279.401-278.091,418.062-418.171c7.121-7.194,10.828-22.672,9.015-33.051
		c-20.31-116.284,62.25-221.877,177.988-225.945c4.228-0.149,8.488,0.58,18.015,1.297c-29.32,29.371-54.598,57.019-82.438,81.786
		c-19.433,17.288-24.654,33.592-13.992,58.085c11.471,26.35,17.544,55.027,28.607,81.591c4.195,10.073,14.244,20.776,24.208,24.807
		c30.782,12.454,62.941,21.456,94.294,32.565c15.218,5.392,26.419,2.306,37.639-9.509
		C1038.153,279.181,1067.679,250.193,1100.033,217.525z M228.615,1021.719c53.027,16.925,80.494-9.516,103.538-54.408
		c36.258-70.633,39.83-43.75-1.67-112.844c-42.418-70.623-19.23-57.405-100.394-57.329c-85.41,0.081-59.777-13.999-103.856,58.995
		c-40.397,66.897-37.237,40.498-0.829,110.963C148.394,1011.593,175.443,1039.101,228.615,1021.719z M769.958,352.692
		C630.586,492.085,492.234,630.457,353.756,768.956c5.17,5.664,12.599,13.801,18.174,19.908
		c139.801-139.798,278.25-278.244,418.097-418.088C783.431,364.832,775.292,357.498,769.958,352.692z"/>
	<path fill="#FFFFFF" d="M910.423,1068.244c-70.491-70.527-142.634-142.706-215.362-215.47
		c14.961-37.682,12.491-61.467-9.384-81.012c-20.806-18.59-43.771-19.645-76.918-3.005c-9.21-9.607-18.674-19.479-27.626-28.817
		c52.825-52.89,106.149-106.279,160.775-160.972c7.443,9.479,15.52,19.763,25.793,32.846c0.898-2.106-0.366,1.134-1.841,4.274
		c-12.342,26.28-9.375,51.201,8.381,70.003c17.619,18.657,42.699,22.584,69.585,12.296c5.516-2.111,15.354-2.495,18.757,0.848
		c70.686,69.452,140.73,139.557,209.185,207.822C1016.865,961.906,963.627,1015.093,910.423,1068.244z M770.261,789.05
		c63.586,63.542,125.613,125.526,187.925,187.796c6.873-6.105,15.454-13.727,23.373-20.762
		c-64.167-64.329-126.26-126.58-188.456-188.934C785.248,774.681,776.927,782.659,770.261,789.05z"/>
	<path fill="#FFFFFF" d="M1096.273,951.397c13.255,43.577,3.762,83.405-29.316,116.146c-32.643,32.311-72.339,40.017-113.715,27.922
		C1000.528,1047.836,1047.969,1000.051,1096.273,951.397z"/>
	<path fill="#444444" d="M228.615,1021.719c-53.172,17.382-80.221-10.126-103.211-54.623
		c-36.408-70.465-39.568-44.066,0.829-110.963c44.079-72.994,18.446-58.914,103.856-58.995
		c81.164-0.077,57.976-13.294,100.394,57.329c41.5,69.094,37.929,42.211,1.67,112.844
		C309.108,1012.204,281.642,1038.644,228.615,1021.719z M229.226,985.243c36.225,11.669,56.806-6.091,69.478-37.791
		c0.271-0.677,0.648-1.363,1.14-1.892c21.489-23.131,16.403-43.416,1.177-70.008c-17.584-30.709-36.425-42.238-72.422-41.771
		c-34.475,0.448-53.425,10.329-71.072,40.224c-16.576,28.08-15.978,47.117,0.589,74.565
		C175.727,977.749,193.297,996.363,229.226,985.243z"/>
	<path fill="#444444" d="M769.958,352.692c5.334,4.806,13.473,12.14,20.069,18.084C650.18,510.619,511.731,649.065,371.93,788.863
		c-5.575-6.107-13.004-14.244-18.174-19.908C492.234,630.457,630.586,492.085,769.958,352.692z"/>
	<path fill="#444444" d="M770.261,789.05c6.666-6.391,14.987-14.369,22.842-21.9c62.196,62.354,124.29,124.605,188.456,188.934
		c-7.919,7.035-16.5,14.657-23.373,20.762C895.874,914.576,833.847,852.592,770.261,789.05z"/>
	<path fill="#FFFFFF" d="M229.226,985.243c-35.929,11.12-53.499-7.494-71.111-36.672c-16.567-27.448-17.165-46.486-0.589-74.565
		c17.647-29.895,36.597-39.776,71.072-40.224c35.998-0.468,54.839,11.062,72.422,41.771c15.226,26.592,20.312,46.878-1.177,70.008
		c-0.492,0.529-0.87,1.215-1.14,1.892C286.032,979.152,265.451,996.912,229.226,985.243z"/>
</g>
</svg>
