<?xml version="1.0" encoding="utf-8"?>
<!-- Generator: Adobe Illustrator 16.0.0, SVG Export Plug-In . SVG Version: 6.00 Build 0)  -->
<!DOCTYPE svg PUBLIC "-//W3C//DTD SVG 1.1//EN" "http://www.w3.org/Graphics/SVG/1.1/DTD/svg11.dtd">
<svg version="1.1" id="Capa_1" xmlns="http://www.w3.org/2000/svg" xmlns:xlink="http://www.w3.org/1999/xlink" x="0px" y="0px"
	 width="611.98px" height="612px" viewBox="0 90 611.98 612" enable-background="new 0 90 611.98 612" xml:space="preserve">
<g>
	<g>
		<path fill="#FFFFFF" d="M305.99,702C137.261,702,0,564.719,0,395.99C0,227.261,137.261,90,305.99,90
			c168.729,0,305.99,137.261,305.99,305.99C612,564.719,474.719,702,305.99,702z M305.99,124.956
			c-149.438,0-271.015,121.596-271.015,271.035S156.552,667.005,305.99,667.005S577.005,545.429,577.005,395.99
			S455.448,124.956,305.99,124.956z"/>
	</g>
	<g>
		<path fill="#FFFFFF" d="M426.641,413.468H185.34c-9.655,0-17.478-7.803-17.478-17.478c0-9.655,7.842-17.498,17.478-17.498h241.301
			c9.655,0,17.478,7.842,17.478,17.498C444.118,405.665,436.315,413.468,426.641,413.468z"/>
	</g>
</g>
</svg>
