<?xml version="1.0" encoding="utf-8"?>
<!-- Generator: Adobe Illustrator 16.0.0, SVG Export Plug-In . SVG Version: 6.00 Build 0)  -->
<!DOCTYPE svg PUBLIC "-//W3C//DTD SVG 1.1//EN" "http://www.w3.org/Graphics/SVG/1.1/DTD/svg11.dtd">
<svg version="1.1" id="Capa_1" xmlns="http://www.w3.org/2000/svg" xmlns:xlink="http://www.w3.org/1999/xlink" x="0px" y="0px"
	 width="612px" height="611.998px" viewBox="0 90.001 612 611.998" enable-background="new 0 90.001 612 611.998"
	 xml:space="preserve">
<g>
	<g>
		<path fill="#FFFFFF" d="M578.787,353.302H348.696V123.21c0-10.481-14.232-33.209-42.698-33.209
			c-28.465,0-42.698,22.729-42.698,33.209v230.093H33.209C22.729,353.302,0,367.535,0,395.999s22.729,42.698,33.209,42.698h230.093
			v230.093c0,10.479,14.231,33.21,42.698,33.21c28.466,0,42.698-22.73,42.698-33.21V438.696h230.093
			c10.479,0,33.209-14.231,33.209-42.698C612,367.533,589.268,353.302,578.787,353.302z"/>
	</g>
</g>
</svg>
