<?xml version="1.0" encoding="utf-8"?>
<!-- Generator: Adobe Illustrator 16.0.0, SVG Export Plug-In . SVG Version: 6.00 Build 0)  -->
<!DOCTYPE svg PUBLIC "-//W3C//DTD SVG 1.1//EN" "http://www.w3.org/Graphics/SVG/1.1/DTD/svg11.dtd">
<svg version="1.1" id="Capa_1" xmlns="http://www.w3.org/2000/svg" xmlns:xlink="http://www.w3.org/1999/xlink" x="0px" y="0px"
	 width="612px" height="460.667px" viewBox="0 165.672 612 460.667" enable-background="new 0 165.672 612 460.667"
	 xml:space="preserve">
<g>
	<path fill="#FF7600" d="M581.473,618.226H172.231c-16.867,0-30.538-13.671-30.538-30.537c0-16.867,13.671-30.537,30.538-30.537
		h409.232c16.866,0,30.537,13.67,30.537,30.537C612,604.555,598.34,618.226,581.473,618.226z"/>
	<path fill="#FF7600" d="M581.473,426.543H172.231c-16.867,0-30.538-13.671-30.538-30.538c0-16.867,13.671-30.537,30.538-30.537
		h409.232c16.866,0,30.537,13.67,30.537,30.537C612.01,412.872,598.34,426.543,581.473,426.543z"/>
	<path fill="#FF7600" d="M581.473,234.859H172.231c-16.867,0-30.538-13.671-30.538-30.538s13.671-30.538,30.538-30.538h409.232
		c16.866,0,30.537,13.671,30.537,30.538S598.34,234.859,581.473,234.859z"/>
	<circle fill="#FF7600" cx="41.012" cy="206.684" r="41.012"/>
	<circle fill="#FF7600" cx="41.012" cy="396.005" r="41.012"/>
	<circle fill="#FF7600" cx="41.012" cy="585.327" r="41.012"/>
</g>
</svg>
