<?xml version="1.0" encoding="utf-8"?>
<!-- Generator: Adobe Illustrator 16.0.0, SVG Export Plug-In . SVG Version: 6.00 Build 0)  -->
<!DOCTYPE svg PUBLIC "-//W3C//DTD SVG 1.1//EN" "http://www.w3.org/Graphics/SVG/1.1/DTD/svg11.dtd">
<svg version="1.1" id="Capa_1" xmlns="http://www.w3.org/2000/svg" xmlns:xlink="http://www.w3.org/1999/xlink" x="0px" y="0px"
	 width="264.018px" height="463.398px" viewBox="0 0 264.018 463.398" enable-background="new 0 0 264.018 463.398"
	 xml:space="preserve">
<g>
	<g>
		<path fill="#0176BB" d="M250.846,195.231H74.3c-7.275,0-13.174-5.897-13.174-13.174s5.898-13.173,13.174-13.173h176.542
			c7.275,0,13.174,5.897,13.174,13.173S258.123,195.231,250.846,195.231z"/>
		<path fill="#0176BB" d="M250.846,112.54H74.3c-7.275,0-13.174-5.897-13.174-13.174c0-7.277,5.897-13.174,13.174-13.174h176.542
			c7.275,0,13.174,5.897,13.174,13.173C264.02,106.642,258.123,112.54,250.846,112.54z"/>
		<path fill="#0176BB" d="M250.846,29.847H74.3c-7.275,0-13.174-5.897-13.174-13.174c0-7.276,5.898-13.174,13.174-13.174h176.542
			c7.275,0,13.174,5.898,13.174,13.174C264.016,23.95,258.123,29.847,250.846,29.847z"/>
		<circle fill="#0176BB" cx="17.692" cy="17.693" r="17.693"/>
		<circle fill="#0176BB" cx="17.692" cy="99.366" r="17.692"/>
		<circle fill="#0176BB" cx="17.692" cy="181.039" r="17.692"/>
	</g>
</g>
<g>
	<g>
		<path fill="#FF7600" d="M250.846,459.898H74.3c-7.275,0-13.174-5.896-13.174-13.174c0-7.276,5.898-13.173,13.174-13.173h176.542
			c7.275,0,13.174,5.897,13.174,13.173C264.015,454.001,258.123,459.898,250.846,459.898z"/>
		<path fill="#FF7600" d="M250.846,377.208H74.3c-7.275,0-13.174-5.897-13.174-13.174c0-7.277,5.897-13.175,13.174-13.175h176.542
			c7.275,0,13.174,5.897,13.174,13.174C264.02,371.311,258.123,377.208,250.846,377.208z"/>
		<path fill="#FF7600" d="M250.846,294.516H74.3c-7.275,0-13.174-5.897-13.174-13.175c0-7.276,5.898-13.174,13.174-13.174h176.542
			c7.275,0,13.174,5.897,13.174,13.174C264.016,288.618,258.123,294.516,250.846,294.516z"/>
		<circle fill="#FF7600" cx="17.692" cy="282.361" r="17.693"/>
		<circle fill="#FF7600" cx="17.692" cy="364.034" r="17.692"/>
		<circle fill="#FF7600" cx="17.692" cy="445.707" r="17.691"/>
	</g>
</g>
</svg>
