<?xml version="1.0" encoding="utf-8"?>
<!-- Generator: Adobe Illustrator 16.0.0, SVG Export Plug-In . SVG Version: 6.00 Build 0)  -->
<!DOCTYPE svg PUBLIC "-//W3C//DTD SVG 1.1//EN" "http://www.w3.org/Graphics/SVG/1.1/DTD/svg11.dtd">
<svg version="1.1" id="Layer_1" xmlns="http://www.w3.org/2000/svg" xmlns:xlink="http://www.w3.org/1999/xlink" x="0px" y="0px"
	 width="612px" height="537.891px" viewBox="0 0 612 537.891" enable-background="new 0 0 612 537.891" xml:space="preserve">
<g>
	<path fill="#2C77DA" d="M252.211,286.875h107.578v35.859H252.211V286.875z"/>
	<path fill="#2C77DA" d="M496.508,322.734H395.648v17.93c0,9.908-8.021,17.931-17.931,17.931H234.281
		c-9.908,0-17.93-8.021-17.93-17.931v-17.93H115.492c-23.182,0-43.685-14.778-51.025-36.77L0,92.529v391.572
		c0,29.658,24.13,53.789,53.789,53.789h504.422c29.658,0,53.789-24.131,53.789-53.789V92.543l-64.473,193.421
		C540.192,307.956,519.69,322.734,496.508,322.734z"/>
	<path fill="#2C77DA" d="M377.719,0H234.281c-29.659,0-53.789,24.13-53.789,53.789v17.93H30.849l67.624,202.899
		c2.451,7.335,9.296,12.257,17.019,12.257h100.859v-17.93c0-9.908,8.021-17.93,17.93-17.93h143.438
		c9.908,0,17.931,8.021,17.931,17.93v17.93h100.858c7.724,0,14.567-4.921,17.02-12.257l67.629-202.899H431.508v-17.93
		C431.508,24.13,407.377,0,377.719,0z M216.352,71.718v-17.93c0-9.894,8.036-17.93,17.93-17.93H377.72
		c9.895,0,17.931,8.036,17.931,17.93v17.93H216.352L216.352,71.718z"/>
</g>
</svg>
