<?xml version="1.0" encoding="utf-8"?>
<!-- Generator: Adobe Illustrator 17.0.0, SVG Export Plug-In . SVG Version: 6.00 Build 0)  -->
<!DOCTYPE svg PUBLIC "-//W3C//DTD SVG 1.1//EN" "http://www.w3.org/Graphics/SVG/1.1/DTD/svg11.dtd">
<svg version="1.1" id="Forma_1_1_" xmlns="http://www.w3.org/2000/svg" xmlns:xlink="http://www.w3.org/1999/xlink" x="0px" y="0px"
	 width="97px" height="97px" viewBox="0 0 97 97" enable-background="new 0 0 97 97" xml:space="preserve">
<g id="Forma_1">
	<g>
		<path fill-rule="evenodd" clip-rule="evenodd" fill="#8ED889" d="M48.5-0.002C21.756-0.002-0.002,21.756-0.002,48.5
			S21.756,97.001,48.5,97.001S97.001,75.244,97.001,48.5S75.244-0.002,48.5-0.002z M48.5,86.681
			c-21.053,0-38.182-17.127-38.182-38.181S27.447,10.319,48.5,10.319S86.682,27.446,86.682,48.5S69.553,86.681,48.5,86.681z
			 M73.777,47.002H51.981V20.795c0-2.205-1.788-3.994-3.994-3.994c-2.205,0-3.994,1.788-3.994,3.994v30.201
			c0,2.205,1.788,3.994,3.994,3.994h25.789c2.205,0,3.994-1.788,3.994-3.994S75.982,47.002,73.777,47.002z"/>
	</g>
</g>
</svg>
