<?xml version="1.0" encoding="utf-8"?>
<!-- Generator: Adobe Illustrator 17.0.0, SVG Export Plug-In . SVG Version: 6.00 Build 0)  -->
<!DOCTYPE svg PUBLIC "-//W3C//DTD SVG 1.1//EN" "http://www.w3.org/Graphics/SVG/1.1/DTD/svg11.dtd">
<svg version="1.1" id="L0001_xA0_Image_1_" xmlns="http://www.w3.org/2000/svg" xmlns:xlink="http://www.w3.org/1999/xlink" x="0px"
	 y="0px" width="1024.234px" height="1024.586px" viewBox="0 0 1024.234 1024.586" enable-background="new 0 0 1024.234 1024.586"
	 xml:space="preserve">
<g>
	<g>
		<path fill="#E66A86" d="M132.03,924.416c0-248.057,0-496.113,0-744.17c0.938-1.751,2.174-3.407,2.772-5.267
			c21.359-66.402,60.102-94.698,129.871-94.736c41.924-0.023,83.85,0.236,125.768-0.288c5.733-0.072,14.875-2.42,16.592-6.301
			c17.535-39.62,49.654-60.797,89.08-73.449c14.67,0,29.34,0,44.01,0c36.594,11.765,68.286,30.275,84.903,66.825
			c5.145,11.317,11.974,13.524,23.045,13.411c45.332-0.462,90.679-0.65,136.007,0.001c50.524,0.725,95.4,32.853,110.919,80.165
			c4.689,14.294,6.853,30.052,6.88,45.145c0.416,231.353,0.291,462.706,0.251,694.06c-0.001,4.658-0.392,9.326-0.791,13.973
			c-5.312,61.883-54.407,110.006-116.211,110.273c-178.678,0.77-357.363,0.615-536.043,0.066
			c-49.825-0.153-92.52-32.242-109.691-79.151C136.889,938.138,134.481,931.269,132.03,924.416z M317.405,317.65
			c0-53.344,0-104.804,0-157.416c-22.024,0-41.278-0.241-60.525,0.056c-29.039,0.449-44.726,15.627-44.746,44.525
			c-0.164,231.974-0.174,463.947,0.021,695.921c0.023,27.514,16.079,43.539,43.645,43.574c173.98,0.224,347.96,0.211,521.94,0.018
			c28.21-0.031,42.752-14.729,44.338-42.997c0.224-3.988,0.109-7.997,0.109-11.996c0.004-224.641,0.014-449.282-0.045-673.923
			c-0.002-7.311-0.067-14.726-1.224-21.912c-3.023-18.756-15.004-30.691-33.119-32.329c-22.316-2.018-44.954-0.482-70.106-0.482
			c0,53.104,0,104.655,0,156.961C583.868,317.65,452.719,317.65,317.405,317.65z M557.992,160.364
			c0-14.359,0.52-26.279-0.108-38.137c-1.335-25.201-16.96-41.576-39.211-41.901c-22.92-0.334-39.186,16.617-40.396,42.765
			c-0.547,11.817-0.093,23.679-0.093,37.901c-27.861,0-53.434,0-78.617,0c0,26.779,0,51.13,0,76.217c79.745,0,158.003,0,236.925,0
			c0-26.13,0-50.897,0-76.845C610.337,160.364,585.814,160.364,557.992,160.364z"/>
		<path fill="#E66A86" d="M729.713,514.241c-85.4,93.855-169.969,186.797-256.1,281.455
			C417.17,741.113,361.449,687.229,303.749,631.43c20.589-17.468,39.777-33.747,61.054-51.799
			c31.678,30.461,67.912,65.303,105.179,101.138c66.971-73.523,133.225-146.258,200.641-220.27
			C690.263,478.362,709.334,495.706,729.713,514.241z"/>
	</g>
</g>
<image display="none" overflow="visible" width="352" height="94" xlink:href="7512A1.jpg"  transform="matrix(1 0 0 1 -75 507.352)">
</image>
</svg>
