<?xml version="1.0" encoding="utf-8"?>
<!-- Generator: Adobe Illustrator 17.0.0, SVG Export Plug-In . SVG Version: 6.00 Build 0)  -->
<!DOCTYPE svg PUBLIC "-//W3C//DTD SVG 1.1//EN" "http://www.w3.org/Graphics/SVG/1.1/DTD/svg11.dtd">
<svg version="1.1" id="Forma_1_1_" xmlns="http://www.w3.org/2000/svg" xmlns:xlink="http://www.w3.org/1999/xlink" x="0px" y="0px"
	 width="612px" height="494px" viewBox="0 0 612 494" enable-background="new 0 0 612 494" xml:space="preserve">
<g id="Forma_1">
	<g>
		<path fill="#FC8510" d="M543.403,223.443V27.4L515.981-0.001H96.017L68.595,27.4v196.041L1.229,330.014H610.77L543.403,223.443z
			 M488.559,191.59c-35.34-9.135-96.392-20.399-182.559-20.399S158.78,182.456,123.44,191.59V54.801h365.119V191.59z M0,363.733
			v54.802h63.899v75.466h54.845v-75.466h374.511v75.466H548.1v-75.466H612v-54.802H0z M283.743,142.68v-31.925
			c0-18.949-27.523-34.315-61.473-34.315s-61.472,15.367-61.472,34.315v47.919c0,0,36.26-9.122,61.183-11.48
			C244.419,145.07,283.743,142.68,283.743,142.68z M451.201,158.674v-47.919c0-18.949-27.523-34.315-61.473-34.315
			c-33.951,0-61.473,15.366-61.473,34.315v31.925c0,0,39.325,2.388,61.763,4.514C414.943,149.552,451.201,158.674,451.201,158.674z"
			/>
	</g>
</g>
</svg>
