<?xml version="1.0" encoding="utf-8"?>
<!-- Generator: Adobe Illustrator 17.0.0, SVG Export Plug-In . SVG Version: 6.00 Build 0)  -->
<!DOCTYPE svg PUBLIC "-//W3C//DTD SVG 1.1//EN" "http://www.w3.org/Graphics/SVG/1.1/DTD/svg11.dtd">
<svg version="1.1" id="L0001_xA0_Image_1_" xmlns="http://www.w3.org/2000/svg" xmlns:xlink="http://www.w3.org/1999/xlink" x="0px"
	 y="0px" width="479.94px" height="959.88px" viewBox="0 0 479.94 959.88" enable-background="new 0 0 479.94 959.88"
	 xml:space="preserve">
<g>
	<path fill="#444444" d="M262.467,959.63c-14.998,0-29.996,0-44.994,0c-4.718-1.411-9.413-2.904-14.158-4.22
		c-60.114-16.663-100.95-53.833-117.221-114.544c-16.059-59.922-1.277-113.486,43.756-155.673
		c17.143-16.06,24.476-33.344,30.812-54.639c20.92-70.302,14.579-141.81,15.38-215.036c-48.64,0-95.208,0-144.047,0
		c0-64.521,0-127.259,0-190.797c-12.202,0-22.099,0-31.995,0c0-32.496,0-64.992,0-97.488c10.318,0,20.635,0,30.903,0
		c0-11.6,0-20.607,0-31.412C19.651,96.337,9.825,96.787,0,97.237C0,64.741,0,32.245,0-0.25c159.98,0,319.96,0,479.94,0
		c0,31.585,0,63.17,0,95.325c-11.739,0.683-20.889,1.214-30.439,1.77c0,10.745,0,20.226,0,29.97
		c10.708,0.602,19.83,1.115,29.269,1.646c0,32.19,0,63.063,0,94.779c-10.26,0.573-19.439,1.086-30.857,1.723
		c0,63.422,0,126.159,0,191.365c-49.252,0-96.271,0-143.097,0c-2.877,79.292-4.641,156.077,19.238,230.473
		c3.519,10.964,10.344,22.312,18.801,30.006c45.795,41.665,65.44,92.725,53.764,153.314
		c-11.381,59.059-47.552,99.088-103.875,120.421C282.915,954.265,272.573,956.635,262.467,959.63z M64.531,381.867
		c117.931,0,234.192,0,350.447,0c0-53.151,0-104.688,0-156.3c-117.422,0-233.711,0-349.809,0c0,31.855,0,62.147,0,94.107
		c20.986,0,40.766,0,61.554,0c0,11.277,0,20.852,0,32.625c-21.183,0-41.419,0-62.193,0C64.531,363.072,64.531,371.65,64.531,381.867
		z M239.845,927.092c70.893,0.084,127.683-56.283,127.867-126.915c0.184-70.497-56.438-128.091-126.601-128.775
		c-70.704-0.689-128.912,57.344-128.809,128.422C112.405,870.486,169.049,927.008,239.845,927.092z M271.885,416.689
		c-22.358,0-42.115,0-63.509,0c-2.876,76.785,7.07,153.812-19.614,226.304c35.797,0,68.106,0,103.353,0
		C264.362,570.454,273.873,493.835,271.885,416.689z M33.08,62.059c138.852,0,276.309,0,413.288,0c0-10.666,0-19.668,0-28.777
		c-138.521,0-275.494,0-413.288,0C33.08,43.304,33.08,51.899,33.08,62.059z M33.099,189.92c138.876,0,276.29,0,413.253,0
		c0-10.56,0-19.553,0-28.621c-138.513,0-275.463,0-413.253,0C33.099,171.135,33.099,179.716,33.099,189.92z M415.444,97.349
		c-117.643,0-233.855,0-350.481,0c0,10.422,0,19.442,0,28.963c117.31,0,233.569,0,350.481,0
		C415.444,116.512,415.444,107.933,415.444,97.349z"/>
	<path fill="#444444" d="M240.712,351.664c-25.505,0.452-47.912-21.106-48.691-46.846c-0.767-25.369,20.677-48.087,46.396-49.15
		c26.133-1.08,49.481,21.4,49.621,47.775C288.174,329.014,266.391,351.209,240.712,351.664z M240.439,325.928
		c7.058-10.45,14.532-16.654,13.976-22.027c-0.584-5.643-8.861-10.489-13.777-15.683c-5.337,5.389-13.71,10.147-15.005,16.376
		C224.676,309.197,232.945,315.717,240.439,325.928z"/>
	<path fill="#444444" d="M353.33,320.451c10.127,0,19.134,0,29.266,0c0,10.19,0,19.305,0,29.928c-9.537,0-18.987,0-29.266,0
		C353.33,340.355,353.33,330.773,353.33,320.451z"/>
	<path fill="#444444" d="M240.503,704.039c52.682,0.166,95.172,42.449,95.522,95.058c0.352,52.767-43.604,96.722-96.467,96.468
		c-52.261-0.252-95.099-43.109-95.483-95.524C143.687,746.96,186.967,703.871,240.503,704.039z M303.812,799.143
		c-0.149-35.223-29.649-64.331-64.625-63.766c-34.451,0.556-62.699,29.061-62.983,63.556c-0.295,35.8,27.796,64.082,63.702,64.135
		C275.823,863.12,303.964,834.972,303.812,799.143z"/>
</g>
</svg>
