<?xml version="1.0" encoding="utf-8"?>
<!-- Generator: Adobe Illustrator 16.0.0, SVG Export Plug-In . SVG Version: 6.00 Build 0)  -->
<!DOCTYPE svg PUBLIC "-//W3C//DTD SVG 1.1//EN" "http://www.w3.org/Graphics/SVG/1.1/DTD/svg11.dtd">
<svg version="1.1" id="Capa_1" xmlns="http://www.w3.org/2000/svg" xmlns:xlink="http://www.w3.org/1999/xlink" x="0px" y="0px"
	 width="612.002px" height="638.061px" viewBox="13.029 0 612.002 638.061" enable-background="new 13.029 0 612.002 638.061"
	 xml:space="preserve">
<g>
	<g id="_x35__40_">
		<g>
			<path fill="#747474" d="M303.4,319.03c0.585-7.521-1.701-15.203-7.469-20.944L58.786,61.339
				c-10.472-10.445-27.43-10.445-37.902,0c-10.473,10.446-10.473,27.378,0,37.85L241.098,319.03L20.884,538.872
				c-10.473,10.445-10.473,27.377,0,37.823c10.473,10.444,27.431,10.444,37.902,0l237.146-236.747
				C301.699,334.207,303.959,326.553,303.4,319.03z M617.521,298.086L326.765,7.834c-10.473-10.445-27.431-10.445-37.903,0
				c-10.473,10.446-10.473,27.404,0,37.823L562.688,319.03L288.861,592.377c-10.473,10.446-10.473,27.377,0,37.85
				c10.473,10.446,27.431,10.446,37.903,0l290.729-290.25c5.768-5.742,8.026-13.424,7.441-20.946
				C625.548,311.509,623.262,303.827,617.521,298.086z"/>
		</g>
	</g>
</g>
</svg>
