<?xml version="1.0" encoding="utf-8"?>
<!-- Generator: Adobe Illustrator 16.0.0, SVG Export Plug-In . SVG Version: 6.00 Build 0)  -->
<!DOCTYPE svg PUBLIC "-//W3C//DTD SVG 1.1//EN" "http://www.w3.org/Graphics/SVG/1.1/DTD/svg11.dtd">
<svg version="1.1" id="Capa_1" xmlns="http://www.w3.org/2000/svg" xmlns:xlink="http://www.w3.org/1999/xlink" x="0px" y="0px"
	 width="612px" height="444.998px" viewBox="0 173.506 612 444.998" enable-background="new 0 173.506 612 444.998"
	 xml:space="preserve">
<g>
	<path fill="#989898" d="M591.73,259.735L52.759,173.506v45.689l-31.655-2.532v43.083H0v358.758h612V259.746h-20.27V259.735z
		 M73.862,198.25l282.807,45.246L73.862,220.873V198.25z M42.207,239.507l10.552,0.844v0.011l71.298,5.698l170.97,13.675H42.207
		V239.507z M590.896,597.391H21.104V280.838h538.138h31.655V597.391z"/>
	<path fill="#989898" d="M68.586,365.252c20.365,0,36.931-16.566,36.931-36.931S88.951,291.39,68.586,291.39
		c-20.365,0-36.931,16.566-36.931,36.931S48.221,365.252,68.586,365.252z M68.586,312.494c8.726,0,15.827,7.101,15.827,15.828
		c0,8.726-7.101,15.828-15.827,15.828c-8.727,0-15.828-7.091-15.828-15.828S59.86,312.494,68.586,312.494z"/>
	<path fill="#989898" d="M506.482,328.321c0,20.365,16.566,36.931,36.932,36.931c20.364,0,36.931-16.566,36.931-36.931
		s-16.566-36.931-36.931-36.931C523.049,291.39,506.482,307.967,506.482,328.321z M559.241,328.321
		c0,8.726-7.102,15.828-15.827,15.828c-8.727,0-15.828-7.102-15.828-15.828c0-8.727,7.102-15.828,15.828-15.828
		C552.14,312.494,559.241,319.595,559.241,328.321z"/>
	<path fill="#989898" d="M68.586,512.977c-20.365,0-36.931,16.566-36.931,36.931c0,20.365,16.566,36.932,36.931,36.932
		c20.365,0,36.931-16.566,36.931-36.932C105.517,529.543,88.951,512.977,68.586,512.977z M68.586,565.735
		c-8.727,0-15.828-7.102-15.828-15.828c0-8.726,7.101-15.827,15.828-15.827c8.726,0,15.827,7.102,15.827,15.827
		C84.414,558.634,77.313,565.735,68.586,565.735z"/>
	<path fill="#989898" d="M543.414,512.977c-20.365,0-36.932,16.566-36.932,36.931c0,20.365,16.566,36.932,36.932,36.932
		c20.364,0,36.931-16.566,36.931-36.932C580.345,529.543,563.778,512.977,543.414,512.977z M543.414,565.735
		c-8.727,0-15.828-7.102-15.828-15.828c0-8.726,7.102-15.827,15.828-15.827c8.726,0,15.827,7.102,15.827,15.827
		C559.241,558.634,552.14,565.735,543.414,565.735z"/>
	<path fill="#989898" d="M332.886,584.274c1.298-0.243,2.606-0.433,3.894-0.707c3.883-0.834,7.734-1.825,11.533-2.976
		c1.752-0.527,3.461-1.14,5.181-1.73c2.237-0.771,4.464-1.572,6.669-2.448c1.899-0.749,3.788-1.52,5.646-2.342
		c2.089-0.939,4.146-1.963,6.204-2.997c2.87-1.445,5.677-2.965,8.441-4.59c0.422-0.243,0.844-0.496,1.266-0.749h115.447
		l-1.024-11.48c-0.105-1.436-0.211-2.87-0.211-4.348c0-26.179,21.305-47.482,47.483-47.482c1.456,0,2.881,0.095,4.305,0.222
		l11.522,1.055V374.527l-11.522,1.055c-1.424,0.126-2.859,0.222-4.305,0.222c-26.179,0-47.483-21.304-47.483-47.483
		c0-1.467,0.105-2.912,0.222-4.347l1.023-11.48H381.698C359.529,299.188,333.688,291.39,306,291.39s-53.529,7.798-75.698,21.104
		h-115.51l1.055,11.512c0.127,1.435,0.222,2.859,0.222,4.315c0,26.179-21.304,47.483-47.482,47.483
		c-1.457,0-2.892-0.095-4.316-0.222l-11.512-1.055v129.174l11.512-1.055c1.424-0.127,2.859-0.222,4.316-0.222
		c26.179,0,47.482,21.304,47.482,47.482c0,1.456-0.095,2.892-0.222,4.315l-1.055,11.513h115.257
		c1.678,1.013,3.366,1.994,5.075,2.933c0.528,0.296,1.076,0.56,1.614,0.845c3.43,1.825,6.912,3.503,10.457,5.044
		c0.813,0.348,1.614,0.707,2.427,1.044c4.021,1.668,8.093,3.187,12.25,4.495c0.105,0.032,0.211,0.074,0.317,0.105
		c4.294,1.33,8.663,2.438,13.073,3.366c1.034,0.222,2.089,0.391,3.134,0.58c3.408,0.644,6.838,1.172,10.299,1.572
		c1.255,0.148,2.5,0.307,3.767,0.423c4.485,0.411,8.99,0.686,13.538,0.686c4.453,0,8.874-0.274,13.284-0.676
		c1.372-0.126,2.733-0.284,4.095-0.443C326.565,585.351,329.73,584.854,332.886,584.274z M276.782,562.2
		c-0.665-0.158-1.33-0.349-1.994-0.517c-3.44-0.855-6.827-1.89-10.183-3.039c-1.551-0.538-3.091-1.098-4.622-1.688
		c-2.417-0.929-4.77-1.983-7.123-3.06c-1.15-0.539-2.29-1.087-3.429-1.657l27.983-13.78c6.057-2.986,9.824-9.043,9.824-15.796V505.2
		l-6.374-2.744c-13.527-5.824-22.327-16.988-26.907-34.135l-1.509-5.624l-5.561-1.73c-3.334-1.034-5.571-4.01-5.571-7.396v-9.19
		c0-3.377,2.195-5.751,4.242-6.838l4.959-2.638l0.581-5.582c0.875-8.483,2.775-16.303,5.613-23.234
		c1.213-2.966,2.248-5.182,3.081-6.975c2.807-6.036,4.063-9.613,3.777-15.406c10.583,5.445,23.045,7.756,36.446,6.69
		c1.382-0.116,2.807-0.169,4.242-0.169c33.555,0,49.931,12.092,53.117,39.2l0.645,5.508l4.906,2.596
		c2.068,1.098,4.273,3.472,4.273,6.859v9.19c0,3.387-2.237,6.362-5.571,7.396l-5.561,1.73l-1.51,5.624
		c-4.579,17.146-13.379,28.321-26.906,34.135l-6.373,2.743v17.537c0,6.638,3.672,12.642,9.602,15.69l29.303,14.973
		c-0.391,0.19-0.771,0.38-1.172,0.56c-3.65,1.688-7.365,3.208-11.153,4.526c-0.453,0.159-0.896,0.338-1.351,0.496
		C324.097,566.484,299.68,567.497,276.782,562.2z M409.27,333.597h65.759c2.574,33.628,29.481,60.535,63.109,63.11v84.814
		c-33.628,2.575-60.535,29.481-63.109,63.11H409.27c0.158-0.158,0.296-0.327,0.454-0.485c1.804-1.783,3.472-3.693,5.181-5.571
		c1.646-1.794,3.355-3.524,4.896-5.393c0.591-0.717,1.107-1.498,1.688-2.226c17.305-21.632,28.269-47.726,31.308-75.751
		c0.042-0.349,0.116-0.687,0.158-1.034c0.506-4.96,0.771-9.982,0.771-15.058s-0.265-10.098-0.76-15.067
		c-0.032-0.349-0.116-0.687-0.158-1.034c-3.039-28.015-14.013-54.12-31.308-75.751c-0.58-0.728-1.098-1.509-1.688-2.227
		c-1.551-1.857-3.25-3.598-4.896-5.392c-1.71-1.868-3.377-3.788-5.181-5.571C409.565,333.935,409.428,333.755,409.27,333.597z
		 M373.657,332.278c8.716,5.529,16.556,12.008,23.521,19.204c0.949,0.981,1.836,2.015,2.754,3.028c2.269,2.5,4.41,5.096,6.468,7.755
		c1.066,1.393,2.143,2.786,3.155,4.221c1.92,2.722,3.683,5.55,5.381,8.41c0.75,1.256,1.572,2.458,2.279,3.746
		c2.163,3.967,4.095,8.072,5.814,12.261c0.654,1.583,1.182,3.219,1.772,4.822c1.076,2.954,2.079,5.931,2.944,8.969
		c0.496,1.741,0.938,3.493,1.351,5.255c0.76,3.208,1.371,6.458,1.878,9.729c0.242,1.552,0.527,3.092,0.718,4.664
		c0.559,4.875,0.929,9.792,0.929,14.772s-0.37,9.897-0.939,14.762c-0.18,1.572-0.475,3.103-0.718,4.664
		c-0.506,3.281-1.118,6.531-1.878,9.729c-0.422,1.763-0.865,3.524-1.351,5.255c-0.854,3.039-1.857,6.015-2.944,8.969
		c-0.591,1.614-1.118,3.25-1.772,4.822c-1.73,4.189-3.65,8.294-5.813,12.262c-0.707,1.287-1.53,2.49-2.279,3.745
		c-1.699,2.859-3.461,5.688-5.382,8.41c-1.013,1.435-2.089,2.828-3.155,4.221c-2.047,2.659-4.199,5.255-6.468,7.756
		c-0.918,1.013-1.805,2.047-2.754,3.028c-4.991,5.159-10.573,9.813-16.481,14.139c-1.794-1.309-3.619-2.585-5.614-3.588
		l-32.71-16.703v-1.92c14.762-8.294,25.197-21.694,31.117-39.96c9.053-5.033,14.814-14.529,14.814-25.155v-9.19
		c0-8.758-3.988-16.894-10.688-22.327c-4.411-25.229-21.156-52.949-73.356-52.949c-2.037,0-4.031,0.074-5.951,0.232
		c-7.724,0.612-19.014-0.032-28.743-6.584c-3.64-2.448-6.373-4.812-8.104-7.017c-3.482-4.421-9.286-5.951-14.487-3.809
		c-5.17,2.131-8.209,7.313-7.566,12.863c0.401,3.471,0.981,7.513,1.857,11.934c1.699,8.525,1.699,8.525-0.612,13.474
		c-0.939,2.026-2.11,4.538-3.482,7.882c-3.028,7.396-5.202,15.49-6.458,24.11c-6.595,5.435-10.51,13.518-10.51,22.19v9.19
		c0,10.626,5.761,20.133,14.815,25.155c5.919,18.266,16.355,31.666,31.117,39.96v1.804l-33.913,16.714
		c-1.076,0.592-2.089,1.394-3.124,2.11c-5.086-3.894-9.918-8.04-14.297-12.566c-0.95-0.981-1.836-2.016-2.754-3.028
		c-2.269-2.501-4.411-5.097-6.468-7.756c-1.066-1.393-2.142-2.785-3.155-4.221c-1.92-2.723-3.682-5.55-5.381-8.41
		c-0.749-1.255-1.572-2.458-2.279-3.745c-2.163-3.968-4.094-8.072-5.814-12.262c-0.654-1.582-1.182-3.218-1.773-4.821
		c-1.076-2.955-2.079-5.931-2.944-8.97c-0.496-1.741-0.939-3.492-1.351-5.255c-0.76-3.207-1.372-6.457-1.878-9.729
		c-0.243-1.551-0.527-3.092-0.717-4.664c-0.528-4.854-0.897-9.76-0.897-14.751s0.369-9.897,0.939-14.762
		c0.18-1.572,0.475-3.103,0.718-4.664c0.506-3.281,1.118-6.531,1.878-9.729c0.422-1.762,0.865-3.524,1.351-5.255
		c0.855-3.039,1.857-6.015,2.944-8.969c0.591-1.615,1.119-3.25,1.773-4.822c1.73-4.189,3.651-8.293,5.814-12.261
		c0.707-1.287,1.53-2.49,2.279-3.746c1.699-2.86,3.461-5.688,5.381-8.41c1.013-1.435,2.089-2.828,3.155-4.221
		c2.047-2.659,4.2-5.255,6.468-7.756c0.918-1.013,1.804-2.047,2.754-3.028c6.964-7.196,14.804-13.675,23.52-19.204
		c19.594-12.461,42.766-19.785,67.658-19.785S354.063,319.816,373.657,332.278z M136.972,544.632
		c-2.575-33.618-29.482-60.535-63.11-63.11v-84.814c33.628-2.575,60.535-29.481,63.11-63.11h65.758
		c-0.159,0.158-0.295,0.327-0.454,0.485c-1.804,1.783-3.471,3.693-5.181,5.571c-1.646,1.794-3.355,3.524-4.896,5.392
		c-0.591,0.717-1.108,1.498-1.688,2.226c-17.305,21.631-28.268,47.726-31.307,75.751c-0.042,0.348-0.116,0.686-0.159,1.033
		c-0.506,4.96-0.77,9.993-0.77,15.058s0.264,10.098,0.76,15.068c0.032,0.348,0.116,0.686,0.158,1.033
		c3.039,28.016,14.013,54.12,31.307,75.751c0.58,0.729,1.097,1.509,1.688,2.227c1.551,1.857,3.25,3.599,4.896,5.393
		c1.709,1.867,3.377,3.787,5.181,5.571c0.158,0.158,0.295,0.326,0.454,0.485h-65.748V544.632z"/>
</g>
</svg>
