<?xml version="1.0" encoding="utf-8"?>
<!-- Generator: Adobe Illustrator 16.0.0, SVG Export Plug-In . SVG Version: 6.00 Build 0)  -->
<!DOCTYPE svg PUBLIC "-//W3C//DTD SVG 1.1//EN" "http://www.w3.org/Graphics/SVG/1.1/DTD/svg11.dtd">
<svg version="1.1" id="Capa_1" xmlns="http://www.w3.org/2000/svg" xmlns:xlink="http://www.w3.org/1999/xlink" x="0px" y="0px"
	 width="612px" height="478.628px" viewBox="0 0 612 478.628" enable-background="new 0 0 612 478.628" xml:space="preserve">
<g>
	<path fill="#2C77DA" d="M165.07,464.868c18.348,18.348,48.132,18.348,66.48,0l227.592-227.592
		c6.535-6.535,11.563-14.327,14.829-22.621c22.872,6.408,45.116,9.802,64.723,9.677c48.509-0.251,64.595-21.49,69.873-34.183
		c5.277-12.567,9.049-38.959-25.01-73.645c-0.377-0.377-0.754-0.754-1.131-1.131C561.314,94.26,530.65,74.781,495.838,60.33
		c-6.409-2.639-12.817-5.027-19.103-7.289v-0.377c-0.377-27.899-22.872-50.395-50.771-50.771L289.61,0.007
		c-18.097-0.251-35.439,6.786-48.133,19.605L13.761,247.204c-18.348,18.35-18.348,48.133,0,66.48L165.07,464.868z M340.508,81.441
		c15.207-15.207,39.839-15.207,55.045,0c9.048,9.047,12.692,21.491,10.935,33.177c14.955,10.557,32.8,20.358,51.901,28.276
		c6.786,2.765,13.321,5.277,19.604,7.414l-0.754-54.793c1.131,0.502,2.137,0.879,3.268,1.383
		c29.784,12.44,56.553,29.281,73.771,46.498c0.251,0.252,0.503,0.504,0.754,0.754c16.338,16.715,18.097,27.396,16.715,30.664
		c-4.273,10.181-50.145,19.229-119.766-9.801c-20.359-8.547-39.461-19.103-54.92-30.539c-0.503,0.629-1.131,1.256-1.634,1.885
		c-15.206,15.207-39.838,15.207-55.044,0C325.302,121.28,325.302,96.647,340.508,81.441z"/>
</g>
</svg>
