<?xml version="1.0" encoding="iso-8859-1"?>
<!-- Generator: Adobe Illustrator 19.0.0, SVG Export Plug-In . SVG Version: 6.00 Build 0)  -->
<svg xmlns="http://www.w3.org/2000/svg" xmlns:xlink="http://www.w3.org/1999/xlink" version="1.1" id="Capa_1" x="0px" y="0px" viewBox="0 0 512.035 512.035" style="enable-background:new 0 0 512.035 512.035;" xml:space="preserve" width="512px" height="512px">
<g>
	<g>
		<path d="M488.502,256.035l22.464-58.592c2.464-6.464,0.544-13.792-4.864-18.176l-48.704-39.488l-9.856-61.984    c-1.088-6.848-6.464-12.192-13.312-13.28l-61.984-9.856L332.79,5.923c-4.352-5.408-11.84-7.328-18.144-4.864l-58.624,22.496    L197.43,1.091c-6.496-2.496-13.76-0.512-18.144,4.864l-39.488,48.736l-61.984,9.856c-6.816,1.088-12.192,6.464-13.28,13.28    l-9.856,61.984L5.942,179.299c-5.376,4.352-7.328,11.68-4.864,18.144l22.464,58.592L1.078,314.627    c-2.496,6.464-0.512,13.792,4.864,18.144l48.736,39.456l9.856,61.984c1.088,6.848,6.432,12.224,13.28,13.312l61.984,9.856    l39.488,48.704c4.384,5.44,11.712,7.36,18.176,4.864l58.56-22.432l58.592,22.464c1.856,0.704,3.776,1.056,5.728,1.056    c4.704,0,9.344-2.08,12.448-5.952l39.456-48.704l61.984-9.856c6.848-1.088,12.224-6.464,13.312-13.312l9.856-61.984l48.704-39.456    c5.408-4.384,7.328-11.68,4.864-18.144L488.502,256.035z M272.022,350.051v17.984c0,8.832-7.168,16-16,16c-8.832,0-16-7.168-16-16    v-18.016c-10.016-2.304-19.328-6.496-27.04-12.768c-6.848-5.568-7.904-15.648-2.304-22.496c5.536-6.88,15.648-7.872,22.496-2.304    c6.016,4.896,14.144,7.584,22.848,7.584c17.344,0,32-11.008,32-24c0-13.024-14.656-24-32-24c-35.296,0-64-25.12-64-56    c0-26.016,20.48-47.744,48-54.016v-17.984c0-8.832,7.168-16,16-16c8.832,0,16,7.168,16,16v18.016    c10.016,2.272,19.36,6.496,27.072,12.768c6.88,5.568,7.904,15.648,2.304,22.496c-5.568,6.912-15.712,7.904-22.496,2.336    c-6.048-4.928-14.176-7.616-22.88-7.616c-17.344,0-32,10.976-32,24s14.656,24,32,24c35.296,0,64,25.12,64,56    C320.022,322.051,299.542,343.779,272.022,350.051z" fill="#fa9900"/>
	</g>
</g>
<g>
</g>
<g>
</g>
<g>
</g>
<g>
</g>
<g>
</g>
<g>
</g>
<g>
</g>
<g>
</g>
<g>
</g>
<g>
</g>
<g>
</g>
<g>
</g>
<g>
</g>
<g>
</g>
<g>
</g>
</svg>
