<?xml version="1.0" encoding="utf-8"?>
<!-- Generator: Adobe Illustrator 16.0.0, SVG Export Plug-In . SVG Version: 6.00 Build 0)  -->
<!DOCTYPE svg PUBLIC "-//W3C//DTD SVG 1.1//EN" "http://www.w3.org/Graphics/SVG/1.1/DTD/svg11.dtd">
<svg version="1.1" id="Layer_1" xmlns="http://www.w3.org/2000/svg" xmlns:xlink="http://www.w3.org/1999/xlink" x="0px" y="0px"
	 width="612px" height="571.199px" viewBox="0 110.4 612 571.199" enable-background="new 0 110.4 612 571.199"
	 xml:space="preserve">
<g transform="translate(1 1)">
	<g>
		<g>
			<path fill="#999999" d="M580.4,415.4h-10.2V201.2c0-51-40.8-91.8-91.8-91.8c-45.146,0-77.617,33.476-81.25,82.525
				C373.448,196.406,356,216.819,356,242c0,6.12,4.08,10.2,10.2,10.2h81.601c6.119,0,10.199-4.08,10.199-10.2
				c0-24.902-17.062-45.146-40.362-49.925c3.048-32.412,22.515-62.275,60.763-62.275c39.78,0,71.399,31.619,71.399,71.399v214.2
				H242.814c-4.614-23.525-24.956-40.8-50.013-40.8c-10.2-12.24-24.48-20.4-40.8-20.4c-19.379,0-36.72,11.22-44.88,27.54
				c-8.16-4.08-17.34-7.14-26.52-7.14c-25.058,0-45.399,17.274-50.013,40.8H29.6c-17.34,0-30.6,13.26-30.6,30.6
				C-1,463.34,12.26,476.6,29.6,476.6h12.258l27.522,109.14c8.161,31.62,36.72,54.061,69.36,54.061h8.161l-13.26,26.521
				c-3.06,5.101-1.02,11.221,4.08,13.26c1.02,1.02,3.06,1.02,4.08,1.02c4.08,0,7.14-2.04,9.18-5.101l17.85-35.699h283.05
				l17.341,34.68c2.04,4.08,5.1,6.12,9.18,6.12c2.04,0,3.06,0,4.08-2.04c4.079-2.041,6.119-8.161,4.079-13.26l-12.776-25.555
				c31.579-1.121,58.888-23.177,66.837-52.986L568.399,476.6H580.4c17.34,0,30.6-13.26,30.6-30.601
				C611,428.66,597.74,415.4,580.4,415.4z M436.58,231.8h-58.14c4.079-12.24,16.319-20.4,29.58-20.4S432.5,219.561,436.58,231.8z
				 M80.601,395c9.18,0,17.34,4.08,24.48,11.221c2.04,3.06,6.12,4.079,10.199,3.06s6.12-4.079,7.14-8.16
				c3.06-15.3,15.3-26.521,30.6-26.521c11.221,0,21.42,5.101,26.521,15.3c2.041,4.08,7.14,6.12,11.22,5.101c1.02,0,2.041,0,3.06,0
				c13.26,0,24.48,8.16,28.56,20.4H52.04C56.121,403.16,67.34,395,80.601,395z M522.26,580.641
				c-6.12,22.439-26.521,38.76-49.979,38.76H139.76c-23.46,0-43.859-16.319-49.979-38.76L63.26,476.601h483.48L522.26,580.641z
				 M580.4,456.2H560H50H29.6c-6.12,0-10.2-4.08-10.2-10.2c0-6.119,4.08-10.199,10.2-10.199h10.2h193.799H580.4
				c6.119,0,10.199,4.08,10.199,10.199C590.6,452.12,586.52,456.2,580.4,456.2z"/>
			<path fill="#999999" d="M366.2,298.1c6.12,0,10.199-4.08,10.199-10.2v-5.1c0-6.12-4.079-10.2-10.199-10.2s-10.2,4.08-10.2,10.2
				v5.1C356,294.02,360.08,298.1,366.2,298.1z"/>
			<path fill="#999999" d="M366.2,345.021c6.12,0,10.199-5.101,10.199-10.2v-11.22c0-6.12-4.079-10.2-10.199-10.2
				s-10.2,4.08-10.2,10.2v11.22C356,340.939,360.08,345.021,366.2,345.021z"/>
			<path fill="#999999" d="M366.2,384.8c6.12,0,10.199-4.08,10.199-10.2v-5.1c0-6.12-4.079-10.2-10.199-10.2s-10.2,4.08-10.2,10.2
				v5.1C356,380.72,360.08,384.8,366.2,384.8z"/>
			<path fill="#999999" d="M407,298.1c6.119,0,10.199-4.08,10.199-10.2v-5.1c0-6.12-4.08-10.2-10.199-10.2
				c-6.12,0-10.2,4.08-10.2,10.2v5.1C396.8,294.02,400.88,298.1,407,298.1z"/>
			<path fill="#999999" d="M396.8,334.819c0,6.12,4.08,10.2,10.2,10.2c6.119,0,10.199-5.1,10.199-10.2v-11.22
				c0-6.12-4.08-10.2-10.199-10.2c-6.12,0-10.2,4.08-10.2,10.2V334.819z"/>
			<path fill="#999999" d="M396.8,374.6c0,6.12,4.08,10.2,10.2,10.2c6.119,0,10.199-4.08,10.199-10.2v-5.101
				c0-6.12-4.08-10.199-10.199-10.199c-6.12,0-10.2,4.08-10.2,10.199V374.6z"/>
			<path fill="#999999" d="M447.801,298.1c6.119,0,10.199-4.08,10.199-10.2v-5.1c0-6.12-4.08-10.2-10.199-10.2
				c-6.12,0-10.2,4.08-10.2,10.2v5.1C437.6,294.02,441.681,298.1,447.801,298.1z"/>
			<path fill="#999999" d="M437.6,334.819c0,6.12,4.08,10.2,10.199,10.2c6.12,0,10.201-5.099,10.201-10.2v-11.22
				c0-6.12-4.08-10.2-10.199-10.2c-6.12,0-10.2,4.08-10.2,10.2L437.6,334.819L437.6,334.819z"/>
			<path fill="#999999" d="M437.6,374.6c0,6.12,4.08,10.2,10.199,10.2c6.12,0,10.2-4.08,10.2-10.2v-5.101
				c0-6.12-4.08-10.199-10.2-10.199c-6.119,0-10.199,4.08-10.199,10.199V374.6z"/>
		</g>
	</g>
</g>
</svg>
