<?xml version="1.0" encoding="utf-8"?>
<!-- Generator: Adobe Illustrator 16.0.0, SVG Export Plug-In . SVG Version: 6.00 Build 0)  -->
<!DOCTYPE svg PUBLIC "-//W3C//DTD SVG 1.1//EN" "http://www.w3.org/Graphics/SVG/1.1/DTD/svg11.dtd">
<svg version="1.1" id="Capa_1" xmlns="http://www.w3.org/2000/svg" xmlns:xlink="http://www.w3.org/1999/xlink" x="0px" y="0px"
	 width="612.002px" height="638.061px" viewBox="0 0 612.002 638.061" enable-background="new 0 0 612.002 638.061"
	 xml:space="preserve">
<g>
	<g id="_x35__40_">
		<g>
			<path fill="#FFFFFF" d="M290.372,319.03c0.585-7.521-1.701-15.203-7.469-20.944L45.758,61.339
				c-10.472-10.445-27.43-10.445-37.902,0c-10.473,10.446-10.473,27.378,0,37.85L228.07,319.03L7.855,538.872
				c-10.473,10.445-10.473,27.377,0,37.823c10.473,10.443,27.431,10.443,37.902,0l237.146-236.747
				C288.671,334.207,290.931,326.554,290.372,319.03z M604.493,298.086L313.736,7.834c-10.473-10.445-27.431-10.445-37.903,0
				c-10.473,10.446-10.473,27.404,0,37.823L549.659,319.03L275.833,592.377c-10.473,10.446-10.473,27.377,0,37.85
				c10.473,10.446,27.431,10.446,37.903,0l290.729-290.249c5.768-5.742,8.025-13.425,7.44-20.946
				C612.52,311.509,610.233,303.827,604.493,298.086z"/>
		</g>
	</g>
</g>
</svg>
